<svg xmlns="http://www.w3.org/2000/svg" xmlns:xlink="http://www.w3.org/1999/xlink" width="1088" height="41" viewBox="0 0 1088 41">
  <defs>
    <clipPath id="clip-path">
      <path id="パス_608" data-name="パス 608" d="M19.586,10.219a7.92,7.92,0,1,1-9.216-6.364A7.918,7.918,0,0,1,19.586,10.219Z" transform="translate(-3.874 -3.724)" fill="none"/>
    </clipPath>
  </defs>
  <g id="footer_bkimage" transform="translate(-416 -9366)">
    <g id="footer_bkimage-2" data-name="footer_bkimage">
      <g id="長方形_347" data-name="長方形 347" transform="translate(416 9366)" fill="#fff" stroke="#141414" stroke-width="1">
        <rect width="1088" height="41" stroke="none"/>
        <rect x="0.5" y="0.5" width="1087" height="40" fill="none"/>
      </g>
      <g id="グループ_629" data-name="グループ 629" transform="translate(1)">
        <g id="グループ_628" data-name="グループ 628">
          <text id="WHO_IS_THE_ALIEN_" data-name="WHO IS THE ALIEN?" transform="translate(474 9390)" fill="#0b0b0b" font-size="10" font-family="Futura-Bold, Futura" font-weight="700"><tspan x="0" y="0">WHO IS THE ALIEN?</tspan></text>
          <g id="_宇宙人" transform="translate(435 9375)">
            <path id="パス_590" data-name="パス 590" d="M24.65,20.338l-6.415-5.131.281-.351a.36.36,0,0,0-.059-.507l-.624-.5a.333.333,0,0,0-.1-.051,9.405,9.405,0,1,0-8.323,5.03A9.429,9.429,0,0,0,15.25,16.8a.347.347,0,0,0,.105.152l.624.5a.36.36,0,0,0,.507-.059l.281-.351,6.415,5.131,1.463-1.83Z" transform="translate(1.128 1.144)" fill="#0b0b0b"/>
            <g id="グループ_604" data-name="グループ 604" transform="translate(0 0)">
              <circle id="楕円形_105" data-name="楕円形 105" cx="7.847" cy="7.847" r="7.847" transform="translate(0 14.007) rotate(-63.19)" fill="#dbdbdb"/>
            </g>
            <g id="グループ_614" data-name="グループ 614" transform="translate(2.641 2.598)" clip-path="url(#clip-path)">
              <g id="グループ_613" data-name="グループ 613" transform="translate(1.127 2.882)">
                <g id="グループ_606" data-name="グループ 606" transform="translate(4.007 10.669)">
                  <path id="パス_591" data-name="パス 591" d="M17.035,38.7c.324,1.916.273,3.879.757,5.771a.2.2,0,0,0,.375-.105c-.484-1.889-.433-3.855-.757-5.771-.043-.246-.418-.14-.375.105Z" transform="translate(-17.031 -38.451)" fill="#060001"/>
                  <g id="グループ_605" data-name="グループ 605" transform="translate(0.782 5.587)">
                    <path id="パス_592" data-name="パス 592" d="M19.655,53.54c.289-.031.55-.179.835-.226a.5.5,0,0,1,.363.055.242.242,0,0,1,.074.328.339.339,0,0,1-.179.1,1.281,1.281,0,0,1-.843-.078c-.129-.059-.246-.14-.375-.2" transform="translate(-19.337 -53.096)" fill="#060001"/>
                    <path id="パス_593" data-name="パス 593" d="M19.353,53.411a5.488,5.488,0,0,0,.741-.2.759.759,0,0,1,.16-.031h.09c.035,0,0,0,.035,0a.176.176,0,0,1,.043.012c-.012,0-.008,0,.012.008s.023.016.008,0c.016.016.016.016,0,0l.02.031h0c0,.023.008.023,0,0v.016h0c0-.008.008-.012.016-.012a.158.158,0,0,1-.035.02c.02-.008-.043.012-.055.016-.027.008-.055.012-.086.02a1.026,1.026,0,0,1-.328,0,1.976,1.976,0,0,1-.652-.285.194.194,0,0,0-.2.336,2.707,2.707,0,0,0,.675.308,1.355,1.355,0,0,0,.749-.027.427.427,0,0,0,.285-.269.436.436,0,0,0-.051-.347.622.622,0,0,0-.683-.219c-.25.047-.507.183-.757.215a.2.2,0,0,0-.2.2.2.2,0,0,0,.2.2h0Z" transform="translate(-19.036 -52.771)" fill="#060001"/>
                  </g>
                </g>
                <g id="グループ_608" data-name="グループ 608" transform="translate(7.233 10.669)">
                  <path id="パス_594" data-name="パス 594" d="M29.786,38.591c-.324,1.916-.273,3.882-.757,5.771a.2.2,0,0,0,.375.105c.484-1.889.433-3.855.757-5.771.043-.246-.336-.351-.375-.105Z" transform="translate(-27.569 -38.451)" fill="#060001"/>
                  <g id="グループ_607" data-name="グループ 607" transform="translate(0 5.603)">
                    <path id="パス_595" data-name="パス 595" d="M27.1,53.54c-.289-.031-.55-.179-.835-.226a.5.5,0,0,0-.363.055.242.242,0,0,0-.074.328.339.339,0,0,0,.179.1,1.281,1.281,0,0,0,.843-.078c.129-.059.246-.14.375-.2" transform="translate(-25.599 -53.111)" fill="#060001"/>
                    <path id="パス_596" data-name="パス 596" d="M26.8,53.044a6.352,6.352,0,0,1-.663-.2.731.731,0,0,0-.714.117.415.415,0,0,0,.07.652.905.905,0,0,0,.375.1,1.575,1.575,0,0,0,.382-.012,1.385,1.385,0,0,0,.4-.121c.125-.059.246-.14.375-.2a.194.194,0,1,0-.2-.336,2.132,2.132,0,0,1-.656.285,1.392,1.392,0,0,1-.312,0,.864.864,0,0,1-.1-.02c-.008,0-.07-.023-.055-.016-.012-.008-.023-.012-.035-.02.008,0,.012.008.016.012h0c0-.02,0-.023,0-.008V53.27h0a.137.137,0,0,1,.02-.031c-.012.016-.012.016,0,0-.02.012-.016.012.008,0a.11.11,0,0,1,.043-.02.366.366,0,0,1,.137-.008.206.206,0,0,1,.062.008.877.877,0,0,1,.086.02,5.649,5.649,0,0,0,.753.2.2.2,0,0,0,.2-.2.2.2,0,0,0-.2-.2h0Z" transform="translate(-25.297 -52.81)" fill="#060001"/>
                  </g>
                </g>
                <g id="グループ_609" data-name="グループ 609" transform="translate(2.133)">
                  <path id="パス_597" data-name="パス 597" d="M29,13.709a4.024,4.024,0,0,0,2.337-.792c.757-.757,0-1.807,0-1.807a1.606,1.606,0,0,1,.808,1.807,3.719,3.719,0,0,1-1.822,2.15Z" transform="translate(-22.455 -11.11)" fill="#040000"/>
                  <path id="パス_598" data-name="パス 598" d="M15.408,13.709a4.024,4.024,0,0,1-2.337-.792c-.757-.757,0-1.807,0-1.807a1.606,1.606,0,0,0-.808,1.807,3.7,3.7,0,0,0,1.822,2.15Z" transform="translate(-12.227 -11.11)" fill="#040000"/>
                </g>
                <path id="パス_599" data-name="パス 599" d="M20.973,23.943a3.387,3.387,0,0,1-.492-1.35,5.157,5.157,0,0,0-.593-2.357,3.556,3.556,0,0,0,.5.14,2.685,2.685,0,0,1-.816-.851,1.99,1.99,0,0,1-.09-.757,3.773,3.773,0,0,0-.23-1.651,4.244,4.244,0,0,0-3.824-2.841,2.724,2.724,0,0,1-1.03-.488,3.075,3.075,0,0,0,.378.515,4.185,4.185,0,0,0-3.652,4.148c0,.086,0,.168.008.25a2.485,2.485,0,0,1-.07.761,2.778,2.778,0,0,1-.835.878,3.3,3.3,0,0,0,.523-.152,5.129,5.129,0,0,0-.617,2.322,3.356,3.356,0,0,1-.5,1.393,3.876,3.876,0,0,0,.558-.48,5.1,5.1,0,0,0,.784,2.037,3.343,3.343,0,0,1,.156,1.452,2.959,2.959,0,0,0,.32-.831,5.162,5.162,0,0,0,7.7.016,2.94,2.94,0,0,0,.324.851,3.393,3.393,0,0,1,.168-1.479.173.173,0,0,0-.023.02,5.126,5.126,0,0,0,.792-2.037,3.691,3.691,0,0,0,.562.484Z" transform="translate(-8.511 -12.744)" fill="#040000"/>
                <g id="グループ_611" data-name="グループ 611" transform="translate(4.424 7.25)">
                  <path id="パス_600" data-name="パス 600" d="M22.829,29.694h0a.035.035,0,0,1-.02,0,2.75,2.75,0,0,1-2.353,1.229,2.721,2.721,0,0,1-2.318-1.182.055.055,0,0,1-.023-.008s-.008.012-.012.016a.03.03,0,0,1,0,.016,2.752,2.752,0,0,0,4.741-.047s-.008-.012-.012-.016Z" transform="translate(-18.1 -29.69)" fill="#fff"/>
                  <g id="グループ_610" data-name="グループ 610" transform="translate(0.765 0.913)">
                    <path id="パス_601" data-name="パス 601" d="M20.06,32.03l.476.207-.375.5Z" transform="translate(-20.06 -32.03)" fill="#fff"/>
                    <path id="パス_602" data-name="パス 602" d="M27.456,32.03l-.476.207.375.5Z" transform="translate(-24.28 -32.03)" fill="#fff"/>
                  </g>
                </g>
                <path id="パス_603" data-name="パス 603" d="M35.754,31.651a1.724,1.724,0,0,1,1.081,1.065,8.436,8.436,0,0,1,.285.855,1.019,1.019,0,0,0,.16.4,1.106,1.106,0,0,0,.378.219l.152-.355a.678.678,0,0,1-.281-.113.193.193,0,0,0-.285.117l-.035.222h.375a1.222,1.222,0,0,0-.129-.258.2.2,0,0,0-.265-.07c-.074.035-.148.074-.222.109-.226.109-.027.445.2.336.074-.035.148-.074.222-.109L37.12,34a.671.671,0,0,1,.09.164c.059.16.343.211.375,0l.035-.222-.285.117a.928.928,0,0,0,.375.152.2.2,0,0,0,.23-.113.192.192,0,0,0-.078-.242c-.078-.035-.164-.07-.238-.113-.055-.035-.055-.055-.074-.125-.043-.144-.086-.289-.133-.433a4.841,4.841,0,0,0-.332-.855,2.011,2.011,0,0,0-1.221-1.05.2.2,0,0,0-.105.375h0Z" transform="translate(-24.361 -23.402)" fill="#060001"/>
                <path id="パス_604" data-name="パス 604" d="M8.853,31.26a2,2,0,0,0-1.221,1.05,5.239,5.239,0,0,0-.324.831c-.043.144-.086.289-.133.433-.023.074-.023.109-.082.148a1.894,1.894,0,0,1-.238.113.193.193,0,0,0-.078.242.2.2,0,0,0,.23.113.928.928,0,0,0,.375-.152L7.1,33.921l.035.222c.031.211.316.16.375,0a.833.833,0,0,1,.09-.164l-.265.07c.074.035.148.074.222.109.226.109.421-.226.2-.336-.074-.035-.148-.074-.222-.109a.2.2,0,0,0-.265.07,1,1,0,0,0-.129.258h.375l-.035-.222a.2.2,0,0,0-.285-.117.678.678,0,0,1-.281.113l.152.355a1.429,1.429,0,0,0,.363-.2.91.91,0,0,0,.168-.394,8.645,8.645,0,0,1,.293-.882,1.733,1.733,0,0,1,1.081-1.065.2.2,0,0,0-.105-.375h0Z" transform="translate(-6.762 -23.39)" fill="#060001"/>
                <g id="グループ_612" data-name="グループ 612" transform="translate(4.881 3.262)">
                  <path id="パス_605" data-name="パス 605" d="M23.094,21.382a1.912,1.912,0,1,1-1.912-1.912A1.91,1.91,0,0,1,23.094,21.382Z" transform="translate(-19.27 -19.47)" fill="#fff"/>
                  <path id="パス_606" data-name="パス 606" d="M23.623,22.852a.972.972,0,1,1-.972-.972A.972.972,0,0,1,23.623,22.852Z" transform="translate(-20.74 -20.94)" fill="#4c9dd6"/>
                  <path id="パス_607" data-name="パス 607" d="M24.016,23.943a.273.273,0,1,1-.273-.273A.271.271,0,0,1,24.016,23.943Z" transform="translate(-21.831 -22.031)" fill="#102c3c"/>
                </g>
              </g>
            </g>
          </g>
          <text id="WHO_IS_THE_ALIEN_2" data-name="WHO IS THE ALIEN?" transform="translate(1236 9390)" fill="#0b0b0b" font-size="10" font-family="Futura-Bold, Futura" font-weight="700"><tspan x="0" y="0">WHO IS THE ALIEN?</tspan></text>
          <g id="_宇宙人-2" data-name="_宇宙人" transform="translate(1196 9375)">
            <path id="パス_590-2" data-name="パス 590" d="M24.65,20.338l-6.415-5.131.281-.351a.36.36,0,0,0-.059-.507l-.624-.5a.333.333,0,0,0-.1-.051,9.405,9.405,0,1,0-8.323,5.03A9.429,9.429,0,0,0,15.25,16.8a.347.347,0,0,0,.105.152l.624.5a.36.36,0,0,0,.507-.059l.281-.351,6.415,5.131,1.463-1.83Z" transform="translate(1.128 1.144)" fill="#0b0b0b"/>
            <g id="グループ_604-2" data-name="グループ 604" transform="translate(0 0)">
              <circle id="楕円形_105-2" data-name="楕円形 105" cx="7.847" cy="7.847" r="7.847" transform="translate(0 14.007) rotate(-63.19)" fill="#dbdbdb"/>
            </g>
            <g id="グループ_614-2" data-name="グループ 614" transform="translate(2.641 2.598)" clip-path="url(#clip-path)">
              <g id="グループ_613-2" data-name="グループ 613" transform="translate(1.127 2.882)">
                <g id="グループ_606-2" data-name="グループ 606" transform="translate(4.007 10.669)">
                  <path id="パス_591-2" data-name="パス 591" d="M17.035,38.7c.324,1.916.273,3.879.757,5.771a.2.2,0,0,0,.375-.105c-.484-1.889-.433-3.855-.757-5.771-.043-.246-.418-.14-.375.105Z" transform="translate(-17.031 -38.451)" fill="#060001"/>
                  <g id="グループ_605-2" data-name="グループ 605" transform="translate(0.782 5.587)">
                    <path id="パス_592-2" data-name="パス 592" d="M19.655,53.54c.289-.031.55-.179.835-.226a.5.5,0,0,1,.363.055.242.242,0,0,1,.074.328.339.339,0,0,1-.179.1,1.281,1.281,0,0,1-.843-.078c-.129-.059-.246-.14-.375-.2" transform="translate(-19.337 -53.096)" fill="#060001"/>
                    <path id="パス_593-2" data-name="パス 593" d="M19.353,53.411a5.488,5.488,0,0,0,.741-.2.759.759,0,0,1,.16-.031h.09c.035,0,0,0,.035,0a.176.176,0,0,1,.043.012c-.012,0-.008,0,.012.008s.023.016.008,0c.016.016.016.016,0,0l.02.031h0c0,.023.008.023,0,0v.016h0c0-.008.008-.012.016-.012a.158.158,0,0,1-.035.02c.02-.008-.043.012-.055.016-.027.008-.055.012-.086.02a1.026,1.026,0,0,1-.328,0,1.976,1.976,0,0,1-.652-.285.194.194,0,0,0-.2.336,2.707,2.707,0,0,0,.675.308,1.355,1.355,0,0,0,.749-.027.427.427,0,0,0,.285-.269.436.436,0,0,0-.051-.347.622.622,0,0,0-.683-.219c-.25.047-.507.183-.757.215a.2.2,0,0,0-.2.2.2.2,0,0,0,.2.2h0Z" transform="translate(-19.036 -52.771)" fill="#060001"/>
                  </g>
                </g>
                <g id="グループ_608-2" data-name="グループ 608" transform="translate(7.233 10.669)">
                  <path id="パス_594-2" data-name="パス 594" d="M29.786,38.591c-.324,1.916-.273,3.882-.757,5.771a.2.2,0,0,0,.375.105c.484-1.889.433-3.855.757-5.771.043-.246-.336-.351-.375-.105Z" transform="translate(-27.569 -38.451)" fill="#060001"/>
                  <g id="グループ_607-2" data-name="グループ 607" transform="translate(0 5.603)">
                    <path id="パス_595-2" data-name="パス 595" d="M27.1,53.54c-.289-.031-.55-.179-.835-.226a.5.5,0,0,0-.363.055.242.242,0,0,0-.074.328.339.339,0,0,0,.179.1,1.281,1.281,0,0,0,.843-.078c.129-.059.246-.14.375-.2" transform="translate(-25.599 -53.111)" fill="#060001"/>
                    <path id="パス_596-2" data-name="パス 596" d="M26.8,53.044a6.352,6.352,0,0,1-.663-.2.731.731,0,0,0-.714.117.415.415,0,0,0,.07.652.905.905,0,0,0,.375.1,1.575,1.575,0,0,0,.382-.012,1.385,1.385,0,0,0,.4-.121c.125-.059.246-.14.375-.2a.194.194,0,1,0-.2-.336,2.132,2.132,0,0,1-.656.285,1.392,1.392,0,0,1-.312,0,.864.864,0,0,1-.1-.02c-.008,0-.07-.023-.055-.016-.012-.008-.023-.012-.035-.02.008,0,.012.008.016.012h0c0-.02,0-.023,0-.008V53.27h0a.137.137,0,0,1,.02-.031c-.012.016-.012.016,0,0-.02.012-.016.012.008,0a.11.11,0,0,1,.043-.02.366.366,0,0,1,.137-.008.206.206,0,0,1,.062.008.877.877,0,0,1,.086.02,5.649,5.649,0,0,0,.753.2.2.2,0,0,0,.2-.2.2.2,0,0,0-.2-.2h0Z" transform="translate(-25.297 -52.81)" fill="#060001"/>
                  </g>
                </g>
                <g id="グループ_609-2" data-name="グループ 609" transform="translate(2.133)">
                  <path id="パス_597-2" data-name="パス 597" d="M29,13.709a4.024,4.024,0,0,0,2.337-.792c.757-.757,0-1.807,0-1.807a1.606,1.606,0,0,1,.808,1.807,3.719,3.719,0,0,1-1.822,2.15Z" transform="translate(-22.455 -11.11)" fill="#040000"/>
                  <path id="パス_598-2" data-name="パス 598" d="M15.408,13.709a4.024,4.024,0,0,1-2.337-.792c-.757-.757,0-1.807,0-1.807a1.606,1.606,0,0,0-.808,1.807,3.7,3.7,0,0,0,1.822,2.15Z" transform="translate(-12.227 -11.11)" fill="#040000"/>
                </g>
                <path id="パス_599-2" data-name="パス 599" d="M20.973,23.943a3.387,3.387,0,0,1-.492-1.35,5.157,5.157,0,0,0-.593-2.357,3.556,3.556,0,0,0,.5.14,2.685,2.685,0,0,1-.816-.851,1.99,1.99,0,0,1-.09-.757,3.773,3.773,0,0,0-.23-1.651,4.244,4.244,0,0,0-3.824-2.841,2.724,2.724,0,0,1-1.03-.488,3.075,3.075,0,0,0,.378.515,4.185,4.185,0,0,0-3.652,4.148c0,.086,0,.168.008.25a2.485,2.485,0,0,1-.07.761,2.778,2.778,0,0,1-.835.878,3.3,3.3,0,0,0,.523-.152,5.129,5.129,0,0,0-.617,2.322,3.356,3.356,0,0,1-.5,1.393,3.876,3.876,0,0,0,.558-.48,5.1,5.1,0,0,0,.784,2.037,3.343,3.343,0,0,1,.156,1.452,2.959,2.959,0,0,0,.32-.831,5.162,5.162,0,0,0,7.7.016,2.94,2.94,0,0,0,.324.851,3.393,3.393,0,0,1,.168-1.479.173.173,0,0,0-.023.02,5.126,5.126,0,0,0,.792-2.037,3.691,3.691,0,0,0,.562.484Z" transform="translate(-8.511 -12.744)" fill="#040000"/>
                <g id="グループ_611-2" data-name="グループ 611" transform="translate(4.424 7.25)">
                  <path id="パス_600-2" data-name="パス 600" d="M22.829,29.694h0a.035.035,0,0,1-.02,0,2.75,2.75,0,0,1-2.353,1.229,2.721,2.721,0,0,1-2.318-1.182.055.055,0,0,1-.023-.008s-.008.012-.012.016a.03.03,0,0,1,0,.016,2.752,2.752,0,0,0,4.741-.047s-.008-.012-.012-.016Z" transform="translate(-18.1 -29.69)" fill="#fff"/>
                  <g id="グループ_610-2" data-name="グループ 610" transform="translate(0.765 0.913)">
                    <path id="パス_601-2" data-name="パス 601" d="M20.06,32.03l.476.207-.375.5Z" transform="translate(-20.06 -32.03)" fill="#fff"/>
                    <path id="パス_602-2" data-name="パス 602" d="M27.456,32.03l-.476.207.375.5Z" transform="translate(-24.28 -32.03)" fill="#fff"/>
                  </g>
                </g>
                <path id="パス_603-2" data-name="パス 603" d="M35.754,31.651a1.724,1.724,0,0,1,1.081,1.065,8.436,8.436,0,0,1,.285.855,1.019,1.019,0,0,0,.16.4,1.106,1.106,0,0,0,.378.219l.152-.355a.678.678,0,0,1-.281-.113.193.193,0,0,0-.285.117l-.035.222h.375a1.222,1.222,0,0,0-.129-.258.2.2,0,0,0-.265-.07c-.074.035-.148.074-.222.109-.226.109-.027.445.2.336.074-.035.148-.074.222-.109L37.12,34a.671.671,0,0,1,.09.164c.059.16.343.211.375,0l.035-.222-.285.117a.928.928,0,0,0,.375.152.2.2,0,0,0,.23-.113.192.192,0,0,0-.078-.242c-.078-.035-.164-.07-.238-.113-.055-.035-.055-.055-.074-.125-.043-.144-.086-.289-.133-.433a4.841,4.841,0,0,0-.332-.855,2.011,2.011,0,0,0-1.221-1.05.2.2,0,0,0-.105.375h0Z" transform="translate(-24.361 -23.402)" fill="#060001"/>
                <path id="パス_604-2" data-name="パス 604" d="M8.853,31.26a2,2,0,0,0-1.221,1.05,5.239,5.239,0,0,0-.324.831c-.043.144-.086.289-.133.433-.023.074-.023.109-.082.148a1.894,1.894,0,0,1-.238.113.193.193,0,0,0-.078.242.2.2,0,0,0,.23.113.928.928,0,0,0,.375-.152L7.1,33.921l.035.222c.031.211.316.16.375,0a.833.833,0,0,1,.09-.164l-.265.07c.074.035.148.074.222.109.226.109.421-.226.2-.336-.074-.035-.148-.074-.222-.109a.2.2,0,0,0-.265.07,1,1,0,0,0-.129.258h.375l-.035-.222a.2.2,0,0,0-.285-.117.678.678,0,0,1-.281.113l.152.355a1.429,1.429,0,0,0,.363-.2.91.91,0,0,0,.168-.394,8.645,8.645,0,0,1,.293-.882,1.733,1.733,0,0,1,1.081-1.065.2.2,0,0,0-.105-.375h0Z" transform="translate(-6.762 -23.39)" fill="#060001"/>
                <g id="グループ_612-2" data-name="グループ 612" transform="translate(4.881 3.262)">
                  <path id="パス_605-2" data-name="パス 605" d="M23.094,21.382a1.912,1.912,0,1,1-1.912-1.912A1.91,1.91,0,0,1,23.094,21.382Z" transform="translate(-19.27 -19.47)" fill="#fff"/>
                  <path id="パス_606-2" data-name="パス 606" d="M23.623,22.852a.972.972,0,1,1-.972-.972A.972.972,0,0,1,23.623,22.852Z" transform="translate(-20.74 -20.94)" fill="#4c9dd6"/>
                  <path id="パス_607-2" data-name="パス 607" d="M24.016,23.943a.273.273,0,1,1-.273-.273A.271.271,0,0,1,24.016,23.943Z" transform="translate(-21.831 -22.031)" fill="#102c3c"/>
                </g>
              </g>
            </g>
          </g>
          <text id="WHO_IS_THE_ALIEN_3" data-name="WHO IS THE ALIEN?" transform="translate(784 9390)" fill="#0b0b0b" font-size="10" font-family="Futura-Bold, Futura" font-weight="700"><tspan x="0" y="0">WHO IS THE ALIEN?</tspan></text>
          <g id="_宇宙人-3" data-name="_宇宙人" transform="translate(745 9375)">
            <path id="パス_590-3" data-name="パス 590" d="M24.65,20.338l-6.415-5.131.281-.351a.36.36,0,0,0-.059-.507l-.624-.5a.333.333,0,0,0-.1-.051,9.405,9.405,0,1,0-8.323,5.03A9.429,9.429,0,0,0,15.25,16.8a.347.347,0,0,0,.105.152l.624.5a.36.36,0,0,0,.507-.059l.281-.351,6.415,5.131,1.463-1.83Z" transform="translate(1.128 1.144)" fill="#0b0b0b"/>
            <g id="グループ_604-3" data-name="グループ 604" transform="translate(0 0)">
              <circle id="楕円形_105-3" data-name="楕円形 105" cx="7.847" cy="7.847" r="7.847" transform="translate(0 14.007) rotate(-63.19)" fill="#dbdbdb"/>
            </g>
            <g id="グループ_614-3" data-name="グループ 614" transform="translate(2.641 2.598)" clip-path="url(#clip-path)">
              <g id="グループ_613-3" data-name="グループ 613" transform="translate(1.127 2.882)">
                <g id="グループ_606-3" data-name="グループ 606" transform="translate(4.007 10.669)">
                  <path id="パス_591-3" data-name="パス 591" d="M17.035,38.7c.324,1.916.273,3.879.757,5.771a.2.2,0,0,0,.375-.105c-.484-1.889-.433-3.855-.757-5.771-.043-.246-.418-.14-.375.105Z" transform="translate(-17.031 -38.451)" fill="#060001"/>
                  <g id="グループ_605-3" data-name="グループ 605" transform="translate(0.782 5.587)">
                    <path id="パス_592-3" data-name="パス 592" d="M19.655,53.54c.289-.031.55-.179.835-.226a.5.5,0,0,1,.363.055.242.242,0,0,1,.074.328.339.339,0,0,1-.179.1,1.281,1.281,0,0,1-.843-.078c-.129-.059-.246-.14-.375-.2" transform="translate(-19.337 -53.096)" fill="#060001"/>
                    <path id="パス_593-3" data-name="パス 593" d="M19.353,53.411a5.488,5.488,0,0,0,.741-.2.759.759,0,0,1,.16-.031h.09c.035,0,0,0,.035,0a.176.176,0,0,1,.043.012c-.012,0-.008,0,.012.008s.023.016.008,0c.016.016.016.016,0,0l.02.031h0c0,.023.008.023,0,0v.016h0c0-.008.008-.012.016-.012a.158.158,0,0,1-.035.02c.02-.008-.043.012-.055.016-.027.008-.055.012-.086.02a1.026,1.026,0,0,1-.328,0,1.976,1.976,0,0,1-.652-.285.194.194,0,0,0-.2.336,2.707,2.707,0,0,0,.675.308,1.355,1.355,0,0,0,.749-.027.427.427,0,0,0,.285-.269.436.436,0,0,0-.051-.347.622.622,0,0,0-.683-.219c-.25.047-.507.183-.757.215a.2.2,0,0,0-.2.2.2.2,0,0,0,.2.2h0Z" transform="translate(-19.036 -52.771)" fill="#060001"/>
                  </g>
                </g>
                <g id="グループ_608-3" data-name="グループ 608" transform="translate(7.233 10.669)">
                  <path id="パス_594-3" data-name="パス 594" d="M29.786,38.591c-.324,1.916-.273,3.882-.757,5.771a.2.2,0,0,0,.375.105c.484-1.889.433-3.855.757-5.771.043-.246-.336-.351-.375-.105Z" transform="translate(-27.569 -38.451)" fill="#060001"/>
                  <g id="グループ_607-3" data-name="グループ 607" transform="translate(0 5.603)">
                    <path id="パス_595-3" data-name="パス 595" d="M27.1,53.54c-.289-.031-.55-.179-.835-.226a.5.5,0,0,0-.363.055.242.242,0,0,0-.074.328.339.339,0,0,0,.179.1,1.281,1.281,0,0,0,.843-.078c.129-.059.246-.14.375-.2" transform="translate(-25.599 -53.111)" fill="#060001"/>
                    <path id="パス_596-3" data-name="パス 596" d="M26.8,53.044a6.352,6.352,0,0,1-.663-.2.731.731,0,0,0-.714.117.415.415,0,0,0,.07.652.905.905,0,0,0,.375.1,1.575,1.575,0,0,0,.382-.012,1.385,1.385,0,0,0,.4-.121c.125-.059.246-.14.375-.2a.194.194,0,1,0-.2-.336,2.132,2.132,0,0,1-.656.285,1.392,1.392,0,0,1-.312,0,.864.864,0,0,1-.1-.02c-.008,0-.07-.023-.055-.016-.012-.008-.023-.012-.035-.02.008,0,.012.008.016.012h0c0-.02,0-.023,0-.008V53.27h0a.137.137,0,0,1,.02-.031c-.012.016-.012.016,0,0-.02.012-.016.012.008,0a.11.11,0,0,1,.043-.02.366.366,0,0,1,.137-.008.206.206,0,0,1,.062.008.877.877,0,0,1,.086.02,5.649,5.649,0,0,0,.753.2.2.2,0,0,0,.2-.2.2.2,0,0,0-.2-.2h0Z" transform="translate(-25.297 -52.81)" fill="#060001"/>
                  </g>
                </g>
                <g id="グループ_609-3" data-name="グループ 609" transform="translate(2.133)">
                  <path id="パス_597-3" data-name="パス 597" d="M29,13.709a4.024,4.024,0,0,0,2.337-.792c.757-.757,0-1.807,0-1.807a1.606,1.606,0,0,1,.808,1.807,3.719,3.719,0,0,1-1.822,2.15Z" transform="translate(-22.455 -11.11)" fill="#040000"/>
                  <path id="パス_598-3" data-name="パス 598" d="M15.408,13.709a4.024,4.024,0,0,1-2.337-.792c-.757-.757,0-1.807,0-1.807a1.606,1.606,0,0,0-.808,1.807,3.7,3.7,0,0,0,1.822,2.15Z" transform="translate(-12.227 -11.11)" fill="#040000"/>
                </g>
                <path id="パス_599-3" data-name="パス 599" d="M20.973,23.943a3.387,3.387,0,0,1-.492-1.35,5.157,5.157,0,0,0-.593-2.357,3.556,3.556,0,0,0,.5.14,2.685,2.685,0,0,1-.816-.851,1.99,1.99,0,0,1-.09-.757,3.773,3.773,0,0,0-.23-1.651,4.244,4.244,0,0,0-3.824-2.841,2.724,2.724,0,0,1-1.03-.488,3.075,3.075,0,0,0,.378.515,4.185,4.185,0,0,0-3.652,4.148c0,.086,0,.168.008.25a2.485,2.485,0,0,1-.07.761,2.778,2.778,0,0,1-.835.878,3.3,3.3,0,0,0,.523-.152,5.129,5.129,0,0,0-.617,2.322,3.356,3.356,0,0,1-.5,1.393,3.876,3.876,0,0,0,.558-.48,5.1,5.1,0,0,0,.784,2.037,3.343,3.343,0,0,1,.156,1.452,2.959,2.959,0,0,0,.32-.831,5.162,5.162,0,0,0,7.7.016,2.94,2.94,0,0,0,.324.851,3.393,3.393,0,0,1,.168-1.479.173.173,0,0,0-.023.02,5.126,5.126,0,0,0,.792-2.037,3.691,3.691,0,0,0,.562.484Z" transform="translate(-8.511 -12.744)" fill="#040000"/>
                <g id="グループ_611-3" data-name="グループ 611" transform="translate(4.424 7.25)">
                  <path id="パス_600-3" data-name="パス 600" d="M22.829,29.694h0a.035.035,0,0,1-.02,0,2.75,2.75,0,0,1-2.353,1.229,2.721,2.721,0,0,1-2.318-1.182.055.055,0,0,1-.023-.008s-.008.012-.012.016a.03.03,0,0,1,0,.016,2.752,2.752,0,0,0,4.741-.047s-.008-.012-.012-.016Z" transform="translate(-18.1 -29.69)" fill="#fff"/>
                  <g id="グループ_610-3" data-name="グループ 610" transform="translate(0.765 0.913)">
                    <path id="パス_601-3" data-name="パス 601" d="M20.06,32.03l.476.207-.375.5Z" transform="translate(-20.06 -32.03)" fill="#fff"/>
                    <path id="パス_602-3" data-name="パス 602" d="M27.456,32.03l-.476.207.375.5Z" transform="translate(-24.28 -32.03)" fill="#fff"/>
                  </g>
                </g>
                <path id="パス_603-3" data-name="パス 603" d="M35.754,31.651a1.724,1.724,0,0,1,1.081,1.065,8.436,8.436,0,0,1,.285.855,1.019,1.019,0,0,0,.16.4,1.106,1.106,0,0,0,.378.219l.152-.355a.678.678,0,0,1-.281-.113.193.193,0,0,0-.285.117l-.035.222h.375a1.222,1.222,0,0,0-.129-.258.2.2,0,0,0-.265-.07c-.074.035-.148.074-.222.109-.226.109-.027.445.2.336.074-.035.148-.074.222-.109L37.12,34a.671.671,0,0,1,.09.164c.059.16.343.211.375,0l.035-.222-.285.117a.928.928,0,0,0,.375.152.2.2,0,0,0,.23-.113.192.192,0,0,0-.078-.242c-.078-.035-.164-.07-.238-.113-.055-.035-.055-.055-.074-.125-.043-.144-.086-.289-.133-.433a4.841,4.841,0,0,0-.332-.855,2.011,2.011,0,0,0-1.221-1.05.2.2,0,0,0-.105.375h0Z" transform="translate(-24.361 -23.402)" fill="#060001"/>
                <path id="パス_604-3" data-name="パス 604" d="M8.853,31.26a2,2,0,0,0-1.221,1.05,5.239,5.239,0,0,0-.324.831c-.043.144-.086.289-.133.433-.023.074-.023.109-.082.148a1.894,1.894,0,0,1-.238.113.193.193,0,0,0-.078.242.2.2,0,0,0,.23.113.928.928,0,0,0,.375-.152L7.1,33.921l.035.222c.031.211.316.16.375,0a.833.833,0,0,1,.09-.164l-.265.07c.074.035.148.074.222.109.226.109.421-.226.2-.336-.074-.035-.148-.074-.222-.109a.2.2,0,0,0-.265.07,1,1,0,0,0-.129.258h.375l-.035-.222a.2.2,0,0,0-.285-.117.678.678,0,0,1-.281.113l.152.355a1.429,1.429,0,0,0,.363-.2.91.91,0,0,0,.168-.394,8.645,8.645,0,0,1,.293-.882,1.733,1.733,0,0,1,1.081-1.065.2.2,0,0,0-.105-.375h0Z" transform="translate(-6.762 -23.39)" fill="#060001"/>
                <g id="グループ_612-3" data-name="グループ 612" transform="translate(4.881 3.262)">
                  <path id="パス_605-3" data-name="パス 605" d="M23.094,21.382a1.912,1.912,0,1,1-1.912-1.912A1.91,1.91,0,0,1,23.094,21.382Z" transform="translate(-19.27 -19.47)" fill="#fff"/>
                  <path id="パス_606-3" data-name="パス 606" d="M23.623,22.852a.972.972,0,1,1-.972-.972A.972.972,0,0,1,23.623,22.852Z" transform="translate(-20.74 -20.94)" fill="#4c9dd6"/>
                  <path id="パス_607-3" data-name="パス 607" d="M24.016,23.943a.273.273,0,1,1-.273-.273A.271.271,0,0,1,24.016,23.943Z" transform="translate(-21.831 -22.031)" fill="#102c3c"/>
                </g>
              </g>
            </g>
          </g>
          <text id="WHO_IS_THE_ALIEN_4" data-name="WHO IS THE ALIEN?" transform="translate(625 9390)" fill="#0b0b0b" font-size="10" font-family="Futura-Bold, Futura" font-weight="700"><tspan x="0" y="0">WHO IS THE ALIEN?</tspan></text>
          <g id="_お客様の作業領域" transform="translate(594 9379)">
            <path id="パス_609" data-name="パス 609" d="M7.659.62.182,13.08a1.281,1.281,0,0,0,1.1,1.94H16.234a1.281,1.281,0,0,0,1.1-1.94L9.857.62A1.284,1.284,0,0,0,7.659.62Z" transform="translate(0.002 0)" fill="#103047"/>
            <path id="パス_610" data-name="パス 610" d="M9.468,2.394,2.728,14.065a.788.788,0,0,0,.681,1.184H16.888a.788.788,0,0,0,.681-1.184L10.83,2.394a.789.789,0,0,0-1.367,0Z" transform="translate(-1.389 -1.061)" fill="#facf00"/>
            <path id="パス_611" data-name="パス 611" d="M16.81,17.914a.868.868,0,1,1,.864.911A.863.863,0,0,1,16.81,17.914Zm.178-4.2-.052-1.306h1.47l-.052,1.306-.216,2.78H17.2l-.211-2.78Z" transform="translate(-8.914 -6.582)" fill="#103047"/>
          </g>
          <text id="WHO_IS_THE_ALIEN_5" data-name="WHO IS THE ALIEN?" transform="translate(1077 9390)" fill="#0b0b0b" font-size="10" font-family="Futura-Bold, Futura" font-weight="700"><tspan x="0" y="0">WHO IS THE ALIEN?</tspan></text>
          <g id="_お客様の作業領域-2" data-name="_お客様の作業領域" transform="translate(1046 9379)">
            <path id="パス_609-2" data-name="パス 609" d="M7.659.62.182,13.08a1.281,1.281,0,0,0,1.1,1.94H16.234a1.281,1.281,0,0,0,1.1-1.94L9.857.62A1.284,1.284,0,0,0,7.659.62Z" transform="translate(0.002 0)" fill="#103047"/>
            <path id="パス_610-2" data-name="パス 610" d="M9.468,2.394,2.728,14.065a.788.788,0,0,0,.681,1.184H16.888a.788.788,0,0,0,.681-1.184L10.83,2.394a.789.789,0,0,0-1.367,0Z" transform="translate(-1.389 -1.061)" fill="#facf00"/>
            <path id="パス_611-2" data-name="パス 611" d="M16.81,17.914a.868.868,0,1,1,.864.911A.863.863,0,0,1,16.81,17.914Zm.178-4.2-.052-1.306h1.47l-.052,1.306-.216,2.78H17.2l-.211-2.78Z" transform="translate(-8.914 -6.582)" fill="#103047"/>
          </g>
          <text id="WHO_IS_THE_ALIEN_6" data-name="WHO IS THE ALIEN?" transform="translate(926 9390)" fill="#0b0b0b" font-size="10" font-family="Futura-Bold, Futura" font-weight="700"><tspan x="0" y="0">WHO IS THE ALIEN?</tspan></text>
          <g id="_お客様の作業領域-3" data-name="_お客様の作業領域" transform="translate(903 9372)">
            <g id="グループ_615" data-name="グループ 615" transform="translate(0 0)">
              <path id="パス_612" data-name="パス 612" d="M9.582,4.727a2.361,2.361,0,0,0,2.362-2.4A2.393,2.393,0,0,0,9.617,0a2.362,2.362,0,1,0-.035,4.724h0Z" transform="translate(-4.895 0.001)" fill="#00a43e"/>
              <path id="パス_613" data-name="パス 613" d="M9.368,20.842v-.1a.98.98,0,0,0-.08-.389c-.206-.727-.93-1.8-3.424-1.87a1.638,1.638,0,0,0-.222-.016h-1.9a1.581,1.581,0,0,0-.216.016C1.011,18.55.283,19.628.074,20.356A.978.978,0,0,0,0,20.745v.1c0,.1,0,.161,0,.177v6.529a1.007,1.007,0,0,0,.673.972,1,1,0,0,0,1.316-.943V22.167c.042,0,.084-.006.132-.006h.045V40.805a1.113,1.113,0,0,0,2.214,0V29.575a.266.266,0,0,1,.267-.267H4.75a.258.258,0,0,1,.257.257V40.8a1.113,1.113,0,0,0,2.214,0V22.171c.045,0,.09-.006.142-.006h.016v5.384a1.007,1.007,0,0,0,.673.972,1,1,0,0,0,1.313-.943V21.015c0-.016,0-.08,0-.177Z" transform="translate(0.004 -12.526)" fill="#00a43e"/>
            </g>
          </g>
          <text id="WHO_IS_THE_ALIEN_7" data-name="WHO IS THE ALIEN?" transform="translate(1378 9390)" fill="#0b0b0b" font-size="10" font-family="Futura-Bold, Futura" font-weight="700"><tspan x="0" y="0">WHO IS THE ALIEN?</tspan></text>
          <g id="_お客様の作業領域-4" data-name="_お客様の作業領域" transform="translate(1355 9372)">
            <g id="グループ_616" data-name="グループ 616" transform="translate(0)">
              <path id="パス_614" data-name="パス 614" d="M9.582,4.727A2.364,2.364,0,1,0,7.22,2.362,2.361,2.361,0,0,0,9.582,4.727h0Z" transform="translate(-4.895)" fill="#ea4f06"/>
              <path id="パス_615" data-name="パス 615" d="M9.368,20.842v-.1a.98.98,0,0,0-.08-.389c-.206-.727-.93-1.8-3.424-1.87a1.638,1.638,0,0,0-.222-.016h-1.9a1.581,1.581,0,0,0-.216.016C1.011,18.55.283,19.628.074,20.356A.978.978,0,0,0,0,20.745v.1c0,.1,0,.161,0,.177v6.523a1.017,1.017,0,0,0,.795,1.01.994.994,0,0,0,1.191-.975V22.167c.042,0,.084-.006.132-.006h.045V40.805a1.113,1.113,0,0,0,2.214,0V29.536a.229.229,0,0,1,.228-.228h.174A.229.229,0,0,1,5,29.536V40.8a1.113,1.113,0,0,0,2.214,0V22.171c.045,0,.09-.006.142-.006h.016v5.377a1.017,1.017,0,0,0,.8,1.01.994.994,0,0,0,1.191-.975V21.015c0-.016,0-.08,0-.177Z" transform="translate(0.004 -12.527)" fill="#ea4f06"/>
            </g>
          </g>
        </g>
      </g>
    </g>
    <g id="長方形_374" data-name="長方形 374" transform="translate(416 9367)" fill="#fff" stroke="#fff" stroke-width="1">
      <rect width="6" height="39" stroke="none"/>
      <rect x="0.5" y="0.5" width="5" height="38" fill="none"/>
    </g>
    <g id="長方形_375" data-name="長方形 375" transform="translate(1498 9367)" fill="#fff" stroke="#fff" stroke-width="1">
      <rect width="6" height="39" stroke="none"/>
      <rect x="0.5" y="0.5" width="5" height="38" fill="none"/>
    </g>
  </g>
</svg>
