<svg xmlns="http://www.w3.org/2000/svg" xmlns:xlink="http://www.w3.org/1999/xlink" width="507" height="152.675" viewBox="0 0 507 152.675">
  <defs>
    <clipPath id="clip-path">
      <rect id="長方形_221" data-name="長方形 221" width="193.753" height="152.675" fill="none"/>
    </clipPath>
    <clipPath id="clip-path-2">
      <path id="パス_550" data-name="パス 550" d="M34.425,64.72A54.425,54.425,0,1,0,88.85,10.3,54.426,54.426,0,0,0,34.425,64.72" fill="none"/>
    </clipPath>
    <clipPath id="clip-path-3">
      <path id="パス_568" data-name="パス 568" d="M79.048,11.175a54.37,54.37,0,1,0,9.864-.9,54.426,54.426,0,0,0-9.864.9" fill="none"/>
    </clipPath>
  </defs>
  <g id="グループ_549" data-name="グループ 549" transform="translate(1729 -9672)">
    <text id="宇宙人はダレ_" data-name="宇宙人はダレ？" transform="translate(-1363 9763)" fill="#0b0b0b" font-size="40" font-family="VDL-LogoMaruJr-Regular, VDL-LogoMaru Jr" letter-spacing="0.004em"><tspan x="-140.48" y="0">宇宙人はダレ？</tspan></text>
    <g id="グループ_548" data-name="グループ 548" transform="translate(-1729 9672)">
      <g id="グループ_543" data-name="グループ 543">
        <g id="グループ_542" data-name="グループ 542" clip-path="url(#clip-path)">
          <path id="パス_548" data-name="パス 548" d="M193.753,140.062l-44.189-35.325,1.94-2.426a2.49,2.49,0,0,0-.39-3.5l-4.308-3.444a2.439,2.439,0,0,0-.676-.348A64.757,64.757,0,1,0,129,115.663a2.423,2.423,0,0,0,.729,1.061l4.308,3.443a2.49,2.49,0,0,0,3.5-.39l1.94-2.426,44.189,35.325Z" fill="#0b0b0b"/>
          <path id="パス_549" data-name="パス 549" d="M142,54.987A54.035,54.035,0,1,1,79.117,11.568,54.035,54.035,0,0,1,142,54.987" fill="#fff"/>
        </g>
      </g>
      <g id="グループ_545" data-name="グループ 545">
        <g id="グループ_544" data-name="グループ 544" clip-path="url(#clip-path-2)">
          <line id="線_19" data-name="線 19" x2="177.7" transform="translate(0 10.986)" fill="none" stroke="#090406" stroke-miterlimit="10" stroke-width="2.1"/>
          <line id="線_20" data-name="線 20" x2="177.7" transform="translate(0 16.205)" fill="none" stroke="#090406" stroke-miterlimit="10" stroke-width="2.1"/>
          <line id="線_21" data-name="線 21" x2="177.7" transform="translate(0 21.424)" fill="none" stroke="#090406" stroke-miterlimit="10" stroke-width="2.1"/>
          <line id="線_22" data-name="線 22" x2="177.7" transform="translate(0 26.643)" fill="none" stroke="#090406" stroke-miterlimit="10" stroke-width="2.1"/>
          <line id="線_23" data-name="線 23" x2="177.7" transform="translate(0 31.863)" fill="none" stroke="#090406" stroke-miterlimit="10" stroke-width="2.1"/>
          <line id="線_24" data-name="線 24" x2="177.7" transform="translate(0 37.082)" fill="none" stroke="#090406" stroke-miterlimit="10" stroke-width="2.1"/>
          <line id="線_25" data-name="線 25" x2="177.7" transform="translate(0 42.301)" fill="none" stroke="#090406" stroke-miterlimit="10" stroke-width="2.1"/>
          <line id="線_26" data-name="線 26" x2="177.7" transform="translate(0 47.52)" fill="none" stroke="#090406" stroke-miterlimit="10" stroke-width="2.1"/>
          <line id="線_27" data-name="線 27" x2="177.7" transform="translate(0 52.74)" fill="none" stroke="#090406" stroke-miterlimit="10" stroke-width="2.1"/>
          <line id="線_28" data-name="線 28" x2="177.7" transform="translate(0 57.959)" fill="none" stroke="#090406" stroke-miterlimit="10" stroke-width="2.1"/>
          <line id="線_29" data-name="線 29" x2="177.7" transform="translate(0 63.178)" fill="none" stroke="#090406" stroke-miterlimit="10" stroke-width="2.1"/>
          <line id="線_30" data-name="線 30" x2="177.7" transform="translate(0 68.397)" fill="none" stroke="#090406" stroke-miterlimit="10" stroke-width="2.1"/>
          <line id="線_31" data-name="線 31" x2="177.7" transform="translate(0 73.617)" fill="none" stroke="#090406" stroke-miterlimit="10" stroke-width="2.1"/>
          <line id="線_32" data-name="線 32" x2="177.7" transform="translate(0 78.836)" fill="none" stroke="#090406" stroke-miterlimit="10" stroke-width="2.1"/>
          <line id="線_33" data-name="線 33" x2="177.7" transform="translate(0 84.055)" fill="none" stroke="#090406" stroke-miterlimit="10" stroke-width="2.1"/>
          <line id="線_34" data-name="線 34" x2="177.7" transform="translate(0 89.274)" fill="none" stroke="#090406" stroke-miterlimit="10" stroke-width="2.1"/>
          <line id="線_35" data-name="線 35" x2="177.7" transform="translate(0 94.494)" fill="none" stroke="#090406" stroke-miterlimit="10" stroke-width="2.1"/>
          <line id="線_36" data-name="線 36" x2="177.7" transform="translate(0 99.713)" fill="none" stroke="#090406" stroke-miterlimit="10" stroke-width="2.1"/>
          <line id="線_37" data-name="線 37" x2="177.7" transform="translate(0 104.932)" fill="none" stroke="#090406" stroke-miterlimit="10" stroke-width="2.1"/>
          <line id="線_38" data-name="線 38" x2="177.7" transform="translate(0 110.151)" fill="none" stroke="#090406" stroke-miterlimit="10" stroke-width="2.1"/>
          <line id="線_39" data-name="線 39" x2="177.7" transform="translate(0 115.371)" fill="none" stroke="#090406" stroke-miterlimit="10" stroke-width="2.1"/>
          <line id="線_40" data-name="線 40" x2="177.7" transform="translate(0 120.59)" fill="none" stroke="#090406" stroke-miterlimit="10" stroke-width="2.1"/>
        </g>
      </g>
      <g id="グループ_547" data-name="グループ 547">
        <g id="グループ_546" data-name="グループ 546" clip-path="url(#clip-path-3)">
          <path id="パス_551" data-name="パス 551" d="M70.676,104.952c1.738,10.18,1.868,20.548,3.421,30.751a85.677,85.677,0,0,0,1.735,8.606.5.5,0,0,0,.964-.266c-2.6-10.048-2.91-20.46-3.994-30.733-.305-2.885-.673-5.764-1.162-8.624-.108-.633-1.072-.364-.964.266" fill="#0a0507"/>
          <path id="パス_552" data-name="パス 552" d="M77.335,144.657c1.958-.213,3.747-1.234,5.693-1.537a3.421,3.421,0,0,1,2.478.38,1.641,1.641,0,0,1,.51,2.235,2.207,2.207,0,0,1-1.237.661,8.778,8.778,0,0,1-5.737-.531c-.879-.4-1.685-.951-2.546-1.394" fill="#0a0507"/>
          <path id="パス_553" data-name="パス 553" d="M77.335,145.157a35.921,35.921,0,0,0,4.838-1.344,4.969,4.969,0,0,1,2.384-.188,1.428,1.428,0,0,1,1.217,1.391c-.064.772-1.1.913-1.7,1.02a8.147,8.147,0,0,1-2.556.037,14.738,14.738,0,0,1-4.767-2.034c-.57-.3-1.076.565-.5.864a18.008,18.008,0,0,0,4.412,2.027,8.729,8.729,0,0,0,4.671-.175,1.96,1.96,0,0,0,1.112-2.968c-.775-1.27-2.393-1.353-3.71-1.122-1.844.324-3.528,1.267-5.394,1.492-.631.076-.639,1.077,0,1" fill="#0a0507"/>
          <path id="パス_554" data-name="パス 554" d="M107.783,104.686c-1.739,10.181-1.868,20.548-3.421,30.751a85.677,85.677,0,0,1-1.735,8.606.5.5,0,0,0,.963.266c2.584-9.979,2.928-20.32,3.982-30.525.305-2.955.674-5.9,1.174-8.832.108-.63-.855-.9-.963-.266" fill="#0a0507"/>
          <path id="パス_555" data-name="パス 555" d="M102.088,144.657c-1.958-.213-3.747-1.234-5.693-1.537a3.421,3.421,0,0,0-2.478.38,1.641,1.641,0,0,0-.51,2.235,2.207,2.207,0,0,0,1.237.661,8.778,8.778,0,0,0,5.737-.531c.879-.4,1.685-.951,2.546-1.394" fill="#0a0507"/>
          <path id="パス_556" data-name="パス 556" d="M102.088,144.157a39.311,39.311,0,0,1-4.735-1.35c-1.311-.328-3.042-.514-4.067.582a2,2,0,0,0,.3,3.138,5.515,5.515,0,0,0,2.13.565,9.307,9.307,0,0,0,4.918-.8c.881-.4,1.689-.945,2.546-1.393.57-.3.065-1.163-.5-.864a15.2,15.2,0,0,1-4.667,2.02,8.141,8.141,0,0,1-2.574-.008c-.615-.1-1.718-.242-1.784-1.035a1.405,1.405,0,0,1,1.145-1.371,4.713,4.713,0,0,1,2.375.147,38.318,38.318,0,0,0,4.919,1.365c.638.077.632-.924,0-1" fill="#0a0507"/>
          <path id="パス_557" data-name="パス 557" d="M101.711,48.446s10.791-.235,15.952-5.4,0-12.316,0-12.316,7.154,3.284,5.512,12.316-12.433,14.661-12.433,14.661Z" fill="#c83074"/>
          <path id="パス_558" data-name="パス 558" d="M78.748,48.446s-10.791-.235-15.952-5.4,0-12.316,0-12.316-7.154,3.284-5.512,12.316S69.717,57.712,69.717,57.712Z" fill="#c83074"/>
          <path id="パス_559" data-name="パス 559" d="M127.523,107.122a23.177,23.177,0,0,1-3.361-9.2,34.979,34.979,0,0,0-4.051-16.068,23.674,23.674,0,0,0,3.388.955,18.943,18.943,0,0,1-5.575-5.8,14.049,14.049,0,0,1-.62-5.176,26.17,26.17,0,0,0-1.558-11.267c-4.12-11.216-14.277-19.034-26.092-19.387a18.8,18.8,0,0,1-7.027-3.319,20.024,20.024,0,0,0,2.587,3.519,28.542,28.542,0,0,0-24.9,28.306q0,.867.055,1.717a16.747,16.747,0,0,1-.485,5.189,18.926,18.926,0,0,1-5.692,6,23.128,23.128,0,0,0,3.571-1.034,34.994,34.994,0,0,0-4.2,15.836,23.125,23.125,0,0,1-3.4,9.512,26.27,26.27,0,0,0,3.8-3.269,34.821,34.821,0,0,0,5.348,13.891,23.181,23.181,0,0,1,1.069,9.914s2.027-3.655,2.192-5.673a35.228,35.228,0,0,0,52.517.1c.1,1.993,2.211,5.79,2.211,5.79a23.248,23.248,0,0,1,1.132-10.089l-.169.135a35.053,35.053,0,0,0,5.417-13.892,26,26,0,0,0,3.84,3.31" fill="#090406"/>
          <path id="パス_560" data-name="パス 560" d="M104.94,80.2l-.015-.008c-.041-.011-.083-.02-.125-.028-3.091,4.988-9.108,8.377-16.038,8.377a18.782,18.782,0,0,1-15.8-8.053c-.058-.013-.113-.032-.172-.042-.024.036-.049.073-.071.11s-.02.065-.03.1c2.8,5.341,8.919,9.066,16.066,9.066,7.3,0,13.546-3.879,16.259-9.407-.025-.037-.045-.076-.072-.112" fill="#fff"/>
          <path id="パス_561" data-name="パス 561" d="M77.9,86.412l3.245,1.414-2.554,3.362Z" fill="#fff"/>
          <path id="パス_562" data-name="パス 562" d="M99.573,86.412l-3.245,1.414,2.554,3.362Z" fill="#fff"/>
          <path id="パス_563" data-name="パス 563" d="M120.441,86.187c3.823,1.078,6.305,4.054,7.848,7.587a52.833,52.833,0,0,1,2.027,6.013,7.381,7.381,0,0,0,.887,2.426,6.716,6.716,0,0,0,2.411,1.369q.193-.458.386-.914a5.031,5.031,0,0,1-2.119-.846.5.5,0,0,0-.735.3q-.117.762-.233,1.523h.964a6.254,6.254,0,0,0-.8-1.549.517.517,0,0,0-.684-.179l-1.519.739c-.578.282-.072,1.145.505.864l1.519-.739-.684-.18a5.291,5.291,0,0,1,.7,1.31c.147.412.882.535.964,0q.117-.762.233-1.524l-.734.3a5.682,5.682,0,0,0,2.358.947c.51.081.94-.646.385-.914l-1.414-.683a1.453,1.453,0,0,1-.948-.958c-.353-1.025-.63-2.079-.944-3.117a36.255,36.255,0,0,0-2.09-5.613,12.967,12.967,0,0,0-8.016-7.124.5.5,0,0,0-.266.964" fill="#0a0507"/>
          <path id="パス_564" data-name="パス 564" d="M56.994,85.223a12.967,12.967,0,0,0-8.017,7.125,36.212,36.212,0,0,0-2.089,5.613c-.314,1.038-.6,2.09-.945,3.117a1.486,1.486,0,0,1-.947.957q-.706.343-1.414.683c-.55.266-.13,1,.385.914a5.694,5.694,0,0,0,2.358-.946l-.735-.3.234,1.524c.082.533.816.412.964,0a5.273,5.273,0,0,1,.7-1.31l-.684.179,1.519.739c.576.281,1.083-.581.5-.863l-1.518-.74a.518.518,0,0,0-.684.18,6.236,6.236,0,0,0-.8,1.549h.964q-.117-.762-.233-1.524a.5.5,0,0,0-.735-.3,5.023,5.023,0,0,1-2.119.846l.386.914a6.7,6.7,0,0,0,2.411-1.368,7.378,7.378,0,0,0,.887-2.427,52.9,52.9,0,0,1,2.027-6.013c1.543-3.533,4.025-6.509,7.848-7.587a.5.5,0,0,0-.266-.964" fill="#0a0507"/>
          <path id="パス_565" data-name="パス 565" d="M101.889,66.006A13.039,13.039,0,1,1,88.85,52.966a13.04,13.04,0,0,1,13.039,13.04" fill="#fff"/>
          <path id="パス_566" data-name="パス 566" d="M95.466,66.006A6.616,6.616,0,1,1,88.85,59.39a6.615,6.615,0,0,1,6.616,6.616" fill="#2f83be"/>
          <path id="パス_567" data-name="パス 567" d="M90.713,66.006a1.862,1.862,0,1,1-1.863-1.863,1.862,1.862,0,0,1,1.863,1.863" fill="#0b212d"/>
        </g>
      </g>
    </g>
  </g>
</svg>
