<svg id="fv_parchese_bk" xmlns="http://www.w3.org/2000/svg" width="206" height="206" viewBox="0 0 206 206">
  <path id="パス_743" data-name="パス 743" d="M104.59,1.96l2.61.29,1.01,5.79c.13,1.05.23,2.01.34,3.04h.09c.38-.96.74-1.9,1.14-2.86l2.38-5.41,2.38.27,1.15,5.8c.18,1.05.32,2.02.5,3.06h.09c.36-.96.67-1.88,1.05-2.87l2.23-5.43,2.43.27-4.36,10.02-3.1-.35-1-5.31c-.18-1.01-.3-1.98-.45-3.09h-.11c-.37,1.04-.7,1.97-1.13,2.92l-2.08,4.95-2.99-.33Z" transform="translate(0.729 0.001)" fill="#fff"/>
  <path id="パス_744" data-name="パス 744" d="M127.08.52l2.49.75-1.16,3.84-.71,1.95a6.268,6.268,0,0,1,4.33-.42c2.53.76,3.23,2.52,2.46,5.07L132.6,18l-2.49-.75,1.82-6.04c.52-1.73.12-2.6-1.29-3.03a4.432,4.432,0,0,0-3.31.49l-2.14,7.09-2.49-.75L127.07.51Z" transform="translate(0.832 0.001)" fill="#fff"/>
  <path id="パス_745" data-name="パス 745" d="M137.04,14.08c1.5-3.14,4.88-3.75,7.65-2.42s4.41,4.35,2.91,7.49-4.87,3.73-7.64,2.4S135.54,17.22,137.04,14.08Zm8.15,3.91c.95-1.99.49-3.85-1.28-4.7-1.75-.84-3.49-.03-4.45,1.95-.96,2-.49,3.85,1.26,4.69,1.77.85,3.51.06,4.47-1.95Z" transform="translate(0.924 0.001)" fill="#fff"/>
  <path id="パス_746" data-name="パス 746" d="M157.7,19.49l2.12,1.5-6.03,8.53-2.12-1.5,6.03-8.54Zm1.63-2.85a1.4,1.4,0,0,1,2.06-.13,1.408,1.408,0,0,1,.58,1.99,1.423,1.423,0,0,1-2.09.13,1.4,1.4,0,0,1-.55-2Z" transform="translate(1.021 0.001)" fill="#fff"/>
  <path id="パス_747" data-name="パス 747" d="M156.46,29.88l1.84-.27a6.272,6.272,0,0,0,1.89,3.21c1.13.97,2.06.97,2.58.36.62-.72-.17-1.95-.9-3.15-.92-1.49-1.83-3.25-.67-4.59,1.14-1.33,3.26-1.23,5.35.57a7.266,7.266,0,0,1,2.24,3.56l-1.8.23a5.083,5.083,0,0,0-1.5-2.49c-1.04-.9-1.9-.88-2.37-.33-.58.68.12,1.73.88,2.93.96,1.55,2,3.29.71,4.79-1.14,1.33-3.32,1.33-5.65-.67a8.656,8.656,0,0,1-2.61-4.15Z" transform="translate(1.063 0.001)" fill="#fff"/>
  <path id="パス_748" data-name="パス 748" d="M170.69,40.35l4.05-3.39-1.16-1.39,1.25-1.05,1.33,1.42,2.4-1.63,1.39,1.66-2.21,1.85,2.08,2.48-1.34,1.12-2.08-2.48-4.07,3.4a1.621,1.621,0,0,0-.3,2.61,4.367,4.367,0,0,0,1.04.86l-.93,1.4a9.13,9.13,0,0,1-1.86-1.63c-1.8-2.15-1.3-3.83.39-5.25Z" transform="translate(1.308 0.614)" fill="#fff"/>
  <path id="パス_749" data-name="パス 749" d="M185.99,40.65l1.4,2.19L184.02,45l-1.8,1.02a6.247,6.247,0,0,1,3.56,2.49c1.43,2.23.82,4.02-1.42,5.45l-5.53,3.55-1.4-2.19,5.31-3.4c1.52-.97,1.79-1.9.99-3.13a4.407,4.407,0,0,0-2.83-1.78l-6.24,4-1.4-2.19L186,40.65Z" transform="translate(1.308 0.743)" fill="#fff"/>
  <path id="パス_750" data-name="パス 750" d="M184.7,57.43a5.509,5.509,0,0,1,7.34,2.92c1.36,3.01.27,5.46-2.42,6.67a4.987,4.987,0,0,1-1.08.34L185.23,60a3.5,3.5,0,0,0-1.33,4.81,5.97,5.97,0,0,0,1.93,2.38l-.89,1.39a8.656,8.656,0,0,1-2.73-3.38c-1.38-3.07-.65-6.35,2.51-7.77Zm4.36,7.36a2.544,2.544,0,0,0,1.44-3.7,3.132,3.132,0,0,0-3.89-1.75l2.45,5.44Z" transform="translate(1.308 1.011)" fill="#fff"/>
  <path id="パス_751" data-name="パス 751" d="M189.14,75.05c2.19-.5,3.82,1.45,5.43,6.39a2.086,2.086,0,0,0,1.7-2.82,7.7,7.7,0,0,0-1.83-3.27l1.23-1.28a10.887,10.887,0,0,1,2.45,4.59c.69,3.02-.61,4.78-3.32,5.39l-6.13,1.39-.47-2.07,1.12-.46-.02-.09a6.751,6.751,0,0,1-2.28-3.54c-.48-2.09.34-3.83,2.13-4.24Zm1.57,7.27,2.5-.57c-1.17-3.51-2.22-4.55-3.37-4.29-1,.23-1.22,1.14-.98,2.22a4.735,4.735,0,0,0,1.85,2.64Z" transform="translate(1.308 1.314)" fill="#fff"/>
  <path id="パス_752" data-name="パス 752" d="M191.47,88.48l12.61-1.45.3,2.58-12.72,1.46c-.58.07-.76.38-.72.7a1.658,1.658,0,0,0,.09.42l-1.6.53a4.94,4.94,0,0,1-.33-1.37c-.21-1.86.71-2.67,2.39-2.87Z" transform="translate(1.308 1.499)" fill="#fff"/>
  <path id="パス_753" data-name="パス 753" d="M200.08,94.78l.11,2.6-10.44.45-.11-2.6,10.44-.44Zm3.25-.46c.78-.03,1.32.6,1.36,1.55s-.44,1.65-1.22,1.68c-.8.03-1.34-.62-1.38-1.57S202.53,94.36,203.33,94.32Z" transform="translate(1.308 1.606)" fill="#fff"/>
  <path id="パス_754" data-name="パス 754" d="M195.15,100.8a5.508,5.508,0,0,1,5.13,6c-.21,3.29-2.31,4.95-5.25,4.77a4.565,4.565,0,0,1-1.11-.21l.5-8.06a3.516,3.516,0,0,0-3.42,3.64,6.028,6.028,0,0,0,.59,3l-1.44.82a8.621,8.621,0,0,1-.84-4.27c.21-3.36,2.39-5.92,5.84-5.71Zm.42,8.54a2.542,2.542,0,0,0,3-2.6,3.122,3.122,0,0,0-2.63-3.36Z" transform="translate(1.308 1.782)" fill="#fff"/>
  <path id="パス_755" data-name="パス 755" d="M199.14,115.77l-.44,2.08-1.46-.1v.07a6.4,6.4,0,0,1,.8,4.38c-.55,2.59-2.24,3.43-4.85,2.88l-6.43-1.37.54-2.54,6.17,1.31c1.77.38,2.6-.09,2.91-1.53a4.451,4.451,0,0,0-.76-3.26l-7.25-1.54.54-2.54,10.22,2.17Z" transform="translate(1.308 2.017)" fill="#fff"/>
  <path id="パス_756" data-name="パス 756" d="M186.42,128.7a1.6,1.6,0,0,1,.87,2.17,1.619,1.619,0,0,1-2.06,1.1,1.762,1.762,0,0,1,1.19-3.28Zm7.73,7.03c1,.36,2-.11,2.49-1.45a4.014,4.014,0,0,0-.15-2.97l1.56-1a6.351,6.351,0,0,1,.17,4.85c-.91,2.49-2.7,3.75-4.79,3-2.61-.95-2.19-5.08-4.99-5.69l.78-2.15c3.18.58,2.98,4.69,4.93,5.4Z" transform="translate(1.308 2.261)" fill="#fff"/>
  <path id="パス_757" data-name="パス 757" d="M186.82,150.52l-1.54,2.13-5.54-1.97c-.98-.4-1.87-.79-2.81-1.2l-.05.07c.66.81,1.3,1.58,1.94,2.41l3.54,4.74-1.4,1.94-5.62-1.86c-1-.36-1.92-.72-2.91-1.07l-.05.07c.67.79,1.32,1.51,1.99,2.33l3.63,4.61-1.43,1.98-6.59-8.73,1.83-2.53,5.12,1.75c.97.34,1.88.71,2.91,1.13l.07-.09c-.73-.84-1.38-1.59-2-2.42l-3.29-4.25,1.76-2.44,10.44,3.4Z" transform="translate(1.308 2.696)" fill="#fff"/>
  <path id="パス_758" data-name="パス 758" d="M177.03,170.79l-1.87,1.8-2.78-2.89-1.35-1.57a6.226,6.226,0,0,1-1.76,3.98c-1.91,1.83-3.78,1.58-5.62-.34l-4.56-4.74,1.87-1.8,4.37,4.55c1.25,1.3,2.21,1.38,3.27.37a4.446,4.446,0,0,0,1.2-3.13l-5.14-5.34,1.87-1.8,10.5,10.92Z" transform="translate(1.308 3.39)" fill="#fff"/>
  <path id="パス_760" data-name="パス 760" d="M145.49,188.19l-2.35,1.12-4.49-9.43,2.35-1.12Zm1.69,2.81a4.347,4.347,0,1,1,.01,0Z" transform="translate(0.924 3.39)" fill="#fff"/>
  <path id="パス_761" data-name="パス 761" d="M137.05,182.03l-.67,1.74a6.209,6.209,0,0,0-3.72.08c-1.4.51-1.85,1.32-1.58,2.07.32.89,1.78.81,3.19.76,1.75-.07,3.73,0,4.33,1.66.6,1.64-.53,3.45-3.12,4.39a7.253,7.253,0,0,1-4.21.21l.69-1.68a5.107,5.107,0,0,0,2.9-.09c1.3-.47,1.7-1.22,1.45-1.9-.3-.84-1.57-.74-2.99-.67-1.83.08-3.85.13-4.53-1.73-.6-1.64.47-3.54,3.36-4.59a8.582,8.582,0,0,1,4.89-.24Z" transform="translate(0.863 3.39)" fill="#fff"/>
  <path id="パス_762" data-name="パス 762" d="M120.94,189.3l.96,5.2,1.78-.33.3,1.61-1.89.46.24,2.89-2.13.39-.52-2.84-3.18.59-.32-1.72,3.18-.59-.96-5.21c-.23-1.23-.86-1.77-2.12-1.54a4.413,4.413,0,0,0-1.27.49l-.76-1.5a9.617,9.617,0,0,1,2.33-.82c2.76-.51,3.98.75,4.38,2.92Z" transform="translate(0.765 3.39)" fill="#fff"/>
  <path id="パス_763" data-name="パス 763" d="M113.16,202.46l-2.59.15-.23-4v-2.07a6.331,6.331,0,0,1-3.93,1.88c-2.64.15-3.9-1.27-4.05-3.92l-.37-6.56,2.59-.15.35,6.3c.1,1.8.77,2.49,2.24,2.41a4.4,4.4,0,0,0,2.94-1.59l-.42-7.4,2.59-.15.85,15.12Z" transform="translate(0.688 3.39)" fill="#fff"/>
  <path id="パス_764" data-name="パス 764" d="M99.18,193.09a5.5,5.5,0,0,1-6.14,4.96c-3.29-.29-4.89-2.44-4.63-5.37a4.225,4.225,0,0,1,.24-1.1l8.04.72a3.509,3.509,0,0,0-3.54-3.52,6,6,0,0,0-3.02.51l-.78-1.46a8.549,8.549,0,0,1,4.29-.72c3.36.3,5.86,2.55,5.55,5.99Zm-8.55.19a2.545,2.545,0,0,0,2.52,3.07,3.13,3.13,0,0,0,3.43-2.54l-5.95-.53Z" transform="translate(0.594 3.39)" fill="#fff"/>
  <path id="パス_765" data-name="パス 765" d="M81.67,188.34c-.64,2.15-3.13,2.62-8.23,1.61a2.084,2.084,0,0,0,1.63,2.86,7.8,7.8,0,0,0,3.75,0l.51,1.7a10.843,10.843,0,0,1-5.2-.11c-2.97-.88-3.87-2.87-3.08-5.53l1.78-6.03,2.04.6-.14,1.21.09.03a6.761,6.761,0,0,1,4.2-.26c2.06.61,3.18,2.17,2.66,3.94Zm-7.11-2.18-.73,2.46c3.64.7,5.06.29,5.39-.84.29-.98-.39-1.62-1.46-1.94a4.751,4.751,0,0,0-3.21.32Z" transform="translate(0.476 3.39)" fill="#fff"/>
  <path id="パス_766" data-name="パス 766" d="M68.81,183.8,63.9,195.5l-2.4-1.01,4.96-11.81c.23-.54.04-.85-.25-.97a2.216,2.216,0,0,0-.41-.13l.33-1.66a5.105,5.105,0,0,1,1.36.38c1.73.73,1.99,1.92,1.33,3.48Z" transform="translate(0.406 3.39)" fill="#fff"/>
  <path id="パス_767" data-name="パス 767" d="M57.88,191.27a1.4,1.4,0,0,1-2.02.42c-.85-.43-1.22-1.2-.87-1.89a1.415,1.415,0,0,1,2.04-.43,1.4,1.4,0,0,1,.84,1.9Zm1.2-3.06-2.32-1.18,4.73-9.32,2.32,1.18-4.73,9.32Z" transform="translate(0.364 3.39)" fill="#fff"/>
  <path id="パス_768" data-name="パス 768" d="M56.27,180.97a5.5,5.5,0,0,1-7.75,1.51c-2.77-1.8-3.18-4.44-1.58-6.91a5.02,5.02,0,0,1,.72-.87l6.77,4.4a3.506,3.506,0,0,0-1.49-4.77,6.057,6.057,0,0,0-2.91-.96v-1.66a8.537,8.537,0,0,1,4.12,1.37c2.83,1.83,3.99,4.99,2.1,7.89Zm-7.65-3.83a2.543,2.543,0,0,0,.79,3.89,3.128,3.128,0,0,0,4.22-.64l-5.01-3.25Z" transform="translate(0.308 3.39)" fill="#fff"/>
  <path id="パス_769" data-name="パス 769" d="M41.27,177.07l-1.59-1.41.8-1.22-.05-.04a6.439,6.439,0,0,1-4.22-1.44c-1.98-1.75-1.88-3.64-.12-5.63l4.35-4.93,1.95,1.72-4.17,4.73c-1.19,1.35-1.2,2.31-.1,3.29a4.454,4.454,0,0,0,3.21.94l4.9-5.55,1.95,1.72-6.92,7.83Z" transform="translate(0.235 3.39)" fill="#fff"/>
  <path id="パス_770" data-name="パス 770" d="M26.33,162.95c-.81.69-.88,1.8.04,2.88a3.944,3.944,0,0,0,2.66,1.32l.11,1.84a6.363,6.363,0,0,1-4.31-2.23c-1.72-2.01-1.95-4.2-.26-5.64,2.1-1.81,5.5.58,7.4-1.56l1.49,1.73c-2.07,2.49-5.55.3-7.13,1.65Zm9.92-3.3a1.757,1.757,0,1,1,.02-2.31A1.583,1.583,0,0,1,36.25,159.65Z" transform="translate(-0.003 2.791)" fill="#fff"/>
  <path id="パス_771" data-name="パス 771" d="M17.03,149.33l-1.1-2.38,4.43-3.87c.83-.66,1.6-1.24,2.42-1.87l-.04-.08c-1.03.18-2.01.36-3.05.51l-5.86.77-1.01-2.18,4.37-3.99c.81-.7,1.56-1.32,2.36-2.01l-.04-.08c-1.02.2-1.97.41-3.01.6l-5.8.91-1.03-2.22,10.83-1.48,1.31,2.83-4.02,3.61c-.77.68-1.54,1.29-2.41,1.99l.05.1c1.09-.23,2.06-.43,3.09-.56l5.31-.79,1.26,2.73-8.07,7.45Z" transform="translate(-0.003 2.415)" fill="#fff"/>
  <path id="パス_772" data-name="パス 772" d="M4.13,130.84l-.65-2.52,3.88-1,2.03-.41a6.252,6.252,0,0,1-2.61-3.49c-.66-2.56.48-4.07,3.06-4.73l6.37-1.64.65,2.52-6.11,1.58c-1.75.45-2.29,1.24-1.92,2.67a4.415,4.415,0,0,0,2.14,2.58l7.18-1.85.65,2.52L4.13,130.85Z" transform="translate(-0.003 2.102)" fill="#fff"/>
  <path id="パス_773" data-name="パス 773" d="M10.57,115.28c-3.46.34-5.74-2.23-6.04-5.29s1.43-6.03,4.89-6.37,5.72,2.23,6.02,5.29-1.41,6.02-4.87,6.37Zm-.88-9c-2.19.22-3.55,1.58-3.36,3.53s1.78,3.01,3.98,2.79,3.55-1.58,3.36-3.51c-.19-1.96-1.77-3.03-3.98-2.81Z" transform="translate(-0.003 1.84)" fill="#fff"/>
  <path id="パス_774" data-name="パス 774" d="M1.19,94.93c-.78-.05-1.25-.74-1.18-1.69s.62-1.59,1.4-1.54c.8.05,1.26.77,1.2,1.71s-.62,1.57-1.42,1.51Zm3.28-.1.18-2.59,10.42.71-.18,2.59L4.47,94.83Z" transform="translate(-0.003 1.564)" fill="#fff"/>
  <path id="パス_775" data-name="パス 775" d="M13.98,90.47l-1.19-1.43a6.233,6.233,0,0,0,1.75-3.29c.24-1.47-.25-2.26-1.03-2.39-.94-.15-1.58,1.16-2.22,2.41-.8,1.56-1.82,3.25-3.57,2.96-1.73-.28-2.75-2.15-2.3-4.87a7.223,7.223,0,0,1,1.87-3.77l1.13,1.42a5.253,5.253,0,0,0-1.35,2.57c-.22,1.36.24,2.08.95,2.19.88.15,1.42-1,2.05-2.27.83-1.63,1.77-3.42,3.72-3.1,1.73.28,2.87,2.14,2.37,5.18a8.626,8.626,0,0,1-2.18,4.38Z" transform="translate(-0.003 1.413)" fill="#fff"/>
  <path id="パス_776" data-name="パス 776" d="M15.53,72.87l-5-1.71-.58,1.71L8.4,72.34l.52-1.88L6.28,69.25l.7-2.05,2.73.93,1.04-3.06,1.65.56-1.05,3.06,5.02,1.71a1.607,1.607,0,0,0,2.38-1.1,4.275,4.275,0,0,0,.2-1.34l1.68.07a9.515,9.515,0,0,1-.43,2.43c-.91,2.65-2.6,3.1-4.69,2.39Z" transform="translate(-0.003 1.135)" fill="#fff"/>
  <path id="パス_777" data-name="パス 777" d="M7.86,59.63,9.01,57.3l3.6,1.77,1.81,1.01a6.211,6.211,0,0,1,.29-4.34c1.17-2.38,3.01-2.78,5.4-1.6l5.9,2.9-1.15,2.33L19.2,56.59c-1.62-.8-2.55-.55-3.2.77a4.46,4.46,0,0,0-.06,3.35l6.65,3.27-1.15,2.33L7.84,59.63Z" transform="translate(-0.003 0.956)" fill="#fff"/>
  <path id="パス_778" data-name="パス 778" d="M22.89,52.04a5.517,5.517,0,0,1-1.3-7.79c1.87-2.72,4.53-3.06,6.95-1.38a4.77,4.77,0,0,1,.85.75l-4.58,6.65a3.517,3.517,0,0,0,4.81-1.35,6.033,6.033,0,0,0,1.04-2.88l1.66.04a8.579,8.579,0,0,1-1.48,4.09c-1.91,2.77-5.1,3.85-7.94,1.88Zm4.04-7.54a2.544,2.544,0,0,0-3.91.68,3.12,3.12,0,0,0,.52,4.23Z" transform="translate(-0.003 0.742)" fill="#fff"/>
  <path id="パス_779" data-name="パス 779" d="M35.66,39.12c-1.56-1.61-.75-4.02,2.64-7.96a2.077,2.077,0,0,0-3.29.02,7.751,7.751,0,0,0-1.84,3.27l-1.73-.39a10.811,10.811,0,0,1,2.65-4.48c2.22-2.16,4.4-1.96,6.33.03l4.38,4.51L43.27,35.6l-.98-.72-.06.06a6.743,6.743,0,0,1-1.84,3.79c-1.54,1.5-3.45,1.71-4.73.38Zm5.39-5.13-1.79-1.84c-2.4,2.83-2.73,4.27-1.91,5.11.71.74,1.61.45,2.4-.32A4.774,4.774,0,0,0,41.05,33.99Z" transform="translate(0.212 0.001)" fill="#fff"/>
  <path id="パス_780" data-name="パス 780" d="M45.9,30.16,38.09,20.15l2.05-1.6,7.88,10.1c.36.46.72.45.97.25a2.2,2.2,0,0,0,.32-.29l1.28,1.09a4.835,4.835,0,0,1-1,1c-1.48,1.15-2.65.79-3.69-.54Z" transform="translate(0.257 0.001)" fill="#fff"/>
  <path id="パス_781" data-name="パス 781" d="M44.73,16.97A1.4,1.4,0,0,1,45.35,15a1.412,1.412,0,0,1,2.07.17,1.426,1.426,0,0,1-.62,2,1.387,1.387,0,0,1-2.06-.2Zm2.08,2.54,2.16-1.45,5.81,8.69L52.62,28.2Z" transform="translate(0.297 0.001)" fill="#fff"/>
  <path id="パス_782" data-name="パス 782" d="M54.52,20.59a5.515,5.515,0,0,1,2.47-7.5c2.92-1.54,5.43-.6,6.8,2.01a4.929,4.929,0,0,1,.4,1.05L57.04,19.9a3.519,3.519,0,0,0,4.89,1.04,6.031,6.031,0,0,0,2.26-2.07l1.45.81a8.582,8.582,0,0,1-3.21,2.93c-2.98,1.57-6.3,1.04-7.91-2.03Zm7.09-4.79a2.544,2.544,0,0,0-3.78-1.21,3.141,3.141,0,0,0-1.51,3.99l5.29-2.78Z" transform="translate(0.363 0.001)" fill="#fff"/>
  <path id="パス_783" data-name="パス 783" d="M65.26,9.41l2.01-.7.67,1.3L68,9.99a6.388,6.388,0,0,1,3.32-2.97c2.5-.87,4.09.14,4.97,2.66l2.16,6.21-2.46.85-2.07-5.96c-.59-1.7-1.43-2.18-2.82-1.7a4.446,4.446,0,0,0-2.39,2.34l2.43,7-2.46.85L65.25,9.4Z" transform="translate(0.444 0.001)" fill="#fff"/>
  <path id="パス_784" data-name="パス 784" d="M84.92,3.33c-.21-1.04-1.13-1.66-2.53-1.38a3.979,3.979,0,0,0-2.46,1.67L78.27,2.8A6.367,6.367,0,0,1,82.33.14c2.6-.51,4.61.37,5.04,2.55.54,2.72-3.21,4.51-2.29,7.21l-2.24.44c-1.15-3.03,2.47-4.98,2.07-7.02ZM82.91,13.59a1.754,1.754,0,0,1,3.42-.68,1.6,1.6,0,0,1-1.41,1.83,1.585,1.585,0,0,1-2-1.16Z" transform="translate(0.522 0.001)" fill="#fff"/>
  <path id="パス_785" data-name="パス 785" d="M137.04,14.08c1.5-3.14,4.88-3.75,7.65-2.42s4.41,4.35,2.91,7.49-4.87,3.73-7.64,2.4S135.54,17.22,137.04,14.08Zm8.15,3.91c.95-1.99.49-3.85-1.28-4.7-1.75-.84-3.49-.03-4.45,1.95-.96,2-.49,3.85,1.26,4.69,1.77.85,3.51.06,4.47-1.95Z" transform="matrix(-0.616, 0.788, -0.788, -0.616, 257.253, 77.917)" fill="#fff"/>
</svg>
