<?xml version="1.0" encoding="UTF-8"?>
<svg id="_レイヤー_2" data-name="レイヤー 2" xmlns="http://www.w3.org/2000/svg" xmlns:xlink="http://www.w3.org/1999/xlink" viewBox="0 0 100.55 90.4">
  <defs>
    <style>
      .cls-1, .cls-2 {
        fill: none;
      }

      .cls-3 {
        clip-path: url(#clippath);
      }

      .cls-4 {
        fill: #f9ce00;
      }

      .cls-5 {
        fill: #fff;
      }

      .cls-6 {
        fill: #e7478f;
      }

      .cls-7 {
        fill: #102c3b;
      }

      .cls-8 {
        fill: #4c9cd6;
      }

      .cls-9 {
        clip-path: url(#clippath-1);
      }

      .cls-2 {
        stroke: #040000;
        stroke-miterlimit: 10;
        stroke-width: 2px;
      }

      .cls-10 {
        opacity: .42;
      }
    </style>
    <clipPath id="clippath">
      <circle class="cls-1" cx="38.55" cy="38.48" r="32.36"/>
    </clipPath>
    <clipPath id="clippath-1">
      <circle class="cls-1" cx="38.55" cy="38.48" r="32.36"/>
    </clipPath>
  </defs>
  <g id="_レイヤー_1-2" data-name="レイヤー 1">
    <g>
      <path class="cls-5" d="m100.21,82.7l-25.56-20.44,1.15-1.44c.51-.64.41-1.57-.23-2.08l-2.56-2.05c-.12-.1-.26-.15-.4-.21,3.9-7.38,5.45-16.06,3.84-24.89C72.62,10.7,52.5-3.2,31.6.64,10.7,4.46-3.19,24.58.63,45.48c3.4,18.57,19.65,31.6,37.89,31.6,2.29,0,4.62-.21,6.96-.63,6.41-1.17,12.16-3.89,16.95-7.68.09.24.22.46.43.63l2.56,2.05c.64.51,1.57.41,2.08-.23l1.15-1.44,25.56,20.44c.39.31.96.25,1.27-.14l4.86-6.08c.31-.39.25-.96-.14-1.27Z"/>
      <circle class="cls-5" cx="38.55" cy="38.48" r="32.12"/>
      <g class="cls-3">
        <g>
          <line class="cls-2" x1="-14.27" y1="5.26" x2="91.38" y2="5.26"/>
          <line class="cls-2" x1="-14.27" y1="8.42" x2="91.38" y2="8.42"/>
          <line class="cls-2" x1="-14.27" y1="11.59" x2="91.38" y2="11.59"/>
          <line class="cls-2" x1="-14.27" y1="14.75" x2="91.38" y2="14.75"/>
          <line class="cls-2" x1="-14.27" y1="17.91" x2="91.38" y2="17.91"/>
          <line class="cls-2" x1="-14.27" y1="21.08" x2="91.38" y2="21.08"/>
          <line class="cls-2" x1="-14.27" y1="24.24" x2="91.38" y2="24.24"/>
          <line class="cls-2" x1="-14.27" y1="27.4" x2="91.38" y2="27.4"/>
          <line class="cls-2" x1="-14.27" y1="30.57" x2="91.38" y2="30.57"/>
          <line class="cls-2" x1="-14.27" y1="33.73" x2="91.38" y2="33.73"/>
          <line class="cls-2" x1="-14.27" y1="36.89" x2="91.38" y2="36.89"/>
          <line class="cls-2" x1="-14.27" y1="40.06" x2="91.38" y2="40.06"/>
          <line class="cls-2" x1="-14.27" y1="43.22" x2="91.38" y2="43.22"/>
          <line class="cls-2" x1="-14.27" y1="46.38" x2="91.38" y2="46.38"/>
          <line class="cls-2" x1="-14.27" y1="49.55" x2="91.38" y2="49.55"/>
          <line class="cls-2" x1="-14.27" y1="52.71" x2="91.38" y2="52.71"/>
          <line class="cls-2" x1="-14.27" y1="55.88" x2="91.38" y2="55.88"/>
          <line class="cls-2" x1="-14.27" y1="59.04" x2="91.38" y2="59.04"/>
          <line class="cls-2" x1="-14.27" y1="62.2" x2="91.38" y2="62.2"/>
          <line class="cls-2" x1="-14.27" y1="65.37" x2="91.38" y2="65.37"/>
          <line class="cls-2" x1="-14.27" y1="68.53" x2="91.38" y2="68.53"/>
          <line class="cls-2" x1="-14.27" y1="71.69" x2="91.38" y2="71.69"/>
        </g>
      </g>
      <g class="cls-9">
        <g>
          <path class="cls-4" d="m59.99,59.86c-.03-3.52-.92-6.84-2.46-9.76.92.36,2.06.58,2.06.58-1.92-1.23-3.1-3.04-3.38-3.52-.31-1.02-.46-2.07-.38-3.14.17-2.17-.07-4.45-.95-6.84-.36-.99-.81-1.92-1.32-2.81,2.01-1.41,5.16-4.15,5.83-7.82,1-5.48-3.35-7.48-3.35-7.48,0,0,3.13,4.34,0,7.48-1.71,1.71-4.42,2.52-6.54,2.91-2.89-2.44-6.52-3.93-10.46-4.05-.71-.17-2.61-.71-4.27-2.02,0,0,.82,1.41,1.57,2.14-3.2.41-6.13,1.69-8.55,3.6-1.8-.47-3.74-1.26-5.07-2.59-3.13-3.13,0-7.48,0-7.48,0,0-4.34,1.99-3.35,7.48.54,2.96,2.69,5.31,4.57,6.86-1.72,2.69-2.73,5.88-2.73,9.32,0,.35.01.7.03,1.04.07,1.07-.04,2.13-.29,3.15-.02.03-1.24,2.22-3.46,3.64,0,0,1.23-.25,2.17-.63-1.55,2.88-2.47,6.14-2.55,9.62-.02.17-.33,3.14-2.06,5.78,0,0,1.47-1.03,2.31-1.98.47,3.07,1.6,5.93,3.25,8.43.18.51,1.03,3.13.65,6.02,0,0,1.23-2.22,1.33-3.44,3.44,3.83,8.22,6.45,13.56,7.02,7.27.79,13.91-2.06,18.33-6.96.06,1.21,1.34,3.52,1.34,3.52-.42-3.22.69-6.13.69-6.13,0,0-.04.03-.1.08,1.66-2.5,2.8-5.35,3.29-8.43.84.96,2.33,2.01,2.33,2.01-1.52-2.3-1.94-4.86-2.04-5.59Z"/>
          <g class="cls-10">
            <path class="cls-4" d="m18.57,52.03c-2.58.74-4.45,2.58-5.65,4.94-.62,1.23-1.07,2.54-1.47,3.85-.23.74-.43,1.48-.67,2.21-.13.39-.24.6-.62.78-.35.17-.69.33-1.04.5-.55.26-.13,1,.39.91.61-.1,1.17-.33,1.69-.68l-.73-.3c.05.36.11.71.16,1.07.08.54.81.41.96,0,.12-.32.28-.6.48-.88l-.68.18,1.07.52c.58.28,1.08-.58.5-.86l-1.07-.52c-.26-.13-.52-.06-.68.18-.25.35-.43.72-.58,1.12h.96c-.05-.36-.11-.71-.16-1.07-.05-.31-.49-.46-.73-.3-.46.31-.91.49-1.45.58l.39.91c.51-.25,1.16-.45,1.58-.84.45-.42.57-1.14.74-1.71.42-1.4.81-2.81,1.37-4.17,1.05-2.54,2.78-4.7,5.51-5.48.62-.18.35-1.14-.27-.96h0Z"/>
          </g>
          <g>
            <path class="cls-6" d="m46.28,29.8s6.58-.14,9.73-3.29c3.15-3.15,0-7.51,0-7.51,0,0,4.36,2,3.36,7.51-1,5.51-7.58,8.94-7.58,8.94l-5.51-5.65Z"/>
            <path class="cls-6" d="m32.47,29.87s-6.58-.14-9.73-3.29c-3.15-3.15,0-7.51,0-7.51,0,0-4.36,2-3.36,7.51,1,5.51,7.58,8.94,7.58,8.94l5.51-5.65Z"/>
          </g>
          <g>
            <path d="m62.1,65.55c-1.52-2.31-1.95-4.88-2.05-5.61-.03-3.54-.92-6.86-2.47-9.79.92.36,2.06.58,2.06.58-1.93-1.24-3.11-3.05-3.4-3.53-.31-1.02-.46-2.08-.38-3.15.17-2.17-.07-4.47-.95-6.86-2.51-6.83-8.7-11.59-15.89-11.81-.72-.17-2.62-.71-4.28-2.02,0,0,.82,1.41,1.58,2.14-8.56,1.09-15.17,8.39-15.17,17.24,0,.35.01.7.03,1.05.07,1.07-.04,2.14-.3,3.16-.02.03-1.25,2.23-3.47,3.65,0,0,1.24-.25,2.18-.63-1.56,2.88-2.47,6.16-2.56,9.65-.02.17-.33,3.15-2.07,5.79,0,0,1.47-1.03,2.32-1.99.47,3.08,1.6,5.95,3.26,8.46.18.51,1.03,3.14.65,6.04,0,0,1.23-2.23,1.34-3.46,3.45,3.85,8.24,6.47,13.6,7.05,7.3.79,13.96-2.07,18.39-6.98.06,1.21,1.35,3.53,1.35,3.53-.42-3.23.69-6.15.69-6.15,0,0-.04.03-.1.08,1.66-2.5,2.81-5.37,3.3-8.46.84.97,2.34,2.02,2.34,2.02Z"/>
            <g>
              <circle class="cls-5" cx="38.55" cy="40.44" r="7.53"/>
              <circle class="cls-8" cx="38.55" cy="40.44" r="3.82"/>
              <circle class="cls-7" cx="38.55" cy="40.44" r="1.08"/>
            </g>
            <g>
              <path class="cls-5" d="m48.32,49.1s0,0,0,0c-.03,0-.05-.01-.08-.02-1.88,3.03-5.53,5.09-9.74,5.09s-7.68-1.97-9.59-4.89c-.04,0-.07-.02-.1-.03-.02.02-.03.04-.04.07,0,.02-.01.04-.02.06,1.7,3.24,5.42,5.5,9.75,5.5s8.22-2.36,9.87-5.71c-.02-.02-.03-.05-.04-.07Z"/>
              <g>
                <polygon class="cls-5" points="31.9 52.87 33.87 53.73 32.32 55.77 31.9 52.87"/>
                <polygon class="cls-5" points="45.06 52.87 43.09 53.73 44.64 55.77 45.06 52.87"/>
              </g>
            </g>
          </g>
          <path class="cls-4" d="m36.88,86.88c-.36-.79-1.42-.47-1.42-.47l-3.17,1.08h0c-.51.04-.69-.39-.7-.4-.41-1.59-1.32-5.78-1.32-5.78,0,0-.07-.39.1-.69.16-.3.73-.38.73-.38l-3.29-1.55s.93,1.01,1,1.54c.06.53,1.42,7.96,1.42,7.96,0,0,.22.65.58.92.36.27,3.32.94,5.01.42.48-.15.77-.45.92-.8h.02s.48-1.05.12-1.83Z"/>
          <path class="cls-4" d="m40.36,86.88c.36-.79,1.42-.47,1.42-.47l3.17,1.08h0c.51.04.69-.39.7-.4.41-1.59,1.32-5.78,1.32-5.78,0,0,.07-.39-.1-.69-.16-.3-.73-.38-.73-.38l3.29-1.55s-.93,1.01-1,1.54c-.06.53-1.42,7.96-1.42,7.96,0,0-.22.65-.58.92-.36.27-3.32.94-5.01.42-.48-.15-.77-.45-.92-.8h-.02s-.48-1.05-.12-1.83Z"/>
          <g>
            <g>
              <path d="m10.84,63.25c-.16-.03-.32.03-.46.09-.43.18-.87.4-1.15.78-.09.12-.17.27-.19.42-.02.15.03.32.14.43.12.11.28.14.44.14.29,0,.58-.09.82-.26.02.16.03.32.05.49.01.14.03.29.13.4.08.08.2.12.32.13.17.03.36.03.51-.07.11-.08.18-.21.21-.35.03-.14.03-.28.03-.41.09.14.26.2.42.25.15.04.3.08.45.07.15,0,.31-.07.4-.19.11-.14.11-.35.04-.52-.07-.17-.19-.31-.33-.43-.5-.48-1.12-.79-1.79-.95h-.06Z"/>
              <path class="cls-4" d="m10.84,63.13c-.39-.04-.84.23-1.16.43s-.64.49-.74.86c-.09.34.06.69.41.79.39.11.83-.03,1.16-.24l-.19-.11c.03.26,0,.61.13.85.11.21.33.28.55.3s.47-.02.63-.19c.19-.21.19-.5.19-.77l-.21.09c.23.3.81.43,1.16.32.41-.13.5-.59.31-.94-.2-.38-.63-.68-1-.89s-.79-.37-1.21-.48c-.16-.04-.22.2-.07.24.63.16,1.23.43,1.72.87.22.2.66.68.25.93-.27.16-.81.02-1-.22-.07-.09-.22-.01-.21.09,0,.19.02.41-.1.57s-.31.17-.49.14c-.2-.03-.31-.12-.35-.32-.03-.19-.04-.38-.06-.57,0-.09-.1-.17-.19-.11-.26.17-.59.29-.91.23-.41-.08-.34-.51-.15-.77.17-.23.4-.39.65-.53s.57-.32.87-.3c.16.02.16-.23,0-.25Z"/>
            </g>
            <path d="m19,51.28s-1.21.98-2.71,1.79-3.33,2.96-4.29,6-1.46,4.5-1.46,4.5l1.1.16s1.3-4.79,2.07-6.22c.78-1.42,2.15-3.01,2.67-3.3s1.58-.82,1.59-.3l1.03-2.62Z"/>
          </g>
          <g>
            <g>
              <path d="m66.26,63.25c.16-.03.32.03.46.09.43.18.87.4,1.15.78.09.12.17.27.19.42.02.15-.03.32-.14.43-.12.11-.28.14-.44.14-.29,0-.58-.09-.82-.26-.02.16-.03.32-.05.49-.01.14-.03.29-.13.4-.08.08-.2.12-.32.13-.17.03-.36.03-.51-.07-.11-.08-.18-.21-.21-.35-.03-.14-.03-.28-.03-.41-.09.14-.26.2-.42.25-.15.04-.3.08-.45.07-.15,0-.31-.07-.4-.19-.11-.14-.11-.35-.04-.52.07-.17.19-.31.33-.43.5-.48,1.12-.79,1.79-.95h.06Z"/>
              <path class="cls-4" d="m66.26,63.38c.29-.03.61.16.87.3s.48.3.65.53c.19.26.26.7-.15.77-.31.06-.65-.06-.91-.23-.09-.06-.18.02-.19.11-.02.19-.03.39-.06.57-.03.2-.15.29-.35.32-.18.03-.38.02-.49-.14s-.1-.38-.1-.57c0-.1-.14-.18-.21-.09-.19.24-.73.38-1,.22-.41-.25.03-.73.25-.93.49-.44,1.09-.71,1.72-.87.16-.04.09-.28-.07-.24-.42.1-.83.26-1.21.48s-.79.51-1,.89c-.19.35-.1.81.31.94.35.12.93-.02,1.16-.32l-.21-.09c0,.26,0,.56.19.77.16.18.4.22.63.19s.44-.09.55-.3c.12-.24.11-.58.13-.85l-.19.11c.32.21.77.35,1.16.24.35-.1.5-.45.41-.79-.1-.37-.42-.66-.74-.86s-.77-.46-1.16-.43c-.16.02-.16.27,0,.25Z"/>
            </g>
            <path d="m58.11,51.28s1.21.98,2.71,1.79,3.33,2.96,4.29,6,1.46,4.5,1.46,4.5l-1.1.16s-1.3-4.79-2.07-6.22-2.15-3.01-2.67-3.3-1.58-.82-1.59-.3l-1.03-2.62Z"/>
          </g>
        </g>
      </g>
    </g>
  </g>
</svg>