<?xml version="1.0" encoding="UTF-8"?><svg id="_レイヤー_1" xmlns="http://www.w3.org/2000/svg" viewBox="0 0 289.13 204.09"><defs><style>.cls-1{fill:#040000;}.cls-2{fill:#fff;}</style></defs><rect class="cls-1" width="289.13" height="204.09"/><g><path class="cls-2" d="m105.93,46.64h-5.61v2.58c0,1-.23,1.47-.95,1.74-.72.29-1.72.31-3.04.31-.12-.54-.48-1.32-.75-1.8.96.04,2.12.04,2.43.04.32-.01.42-.08.42-.33v-2.55h-5.5v-1.69h5.5v-1.69h-3.07v-1.65h8.05v1.65h-3.09v1.69h5.61v1.69Zm-11.23-4.09h-1.75v-3.79h5.49v-1.47h1.89v1.47h5.58v3.79h-1.84v-2.17h-9.36v2.17Z"/><path class="cls-2" d="m121.35,38.83v3.71h-1.86v-2.06h-9.01v2.06h-1.75v-3.71h5.31v-1.54h1.89v1.54h5.43Zm-5.49,4.15h4.27v8.27h-1.83v-.57h-6.6v.57h-1.74v-8.27h4.14v-1.9h1.75v1.9Zm-4.16,1.63v1.41h2.4v-1.41h-2.4Zm0,4.44h2.4v-1.53h-2.4v1.53Zm4.16-4.44v1.41h2.44v-1.41h-2.44Zm2.44,4.44v-1.53h-2.44v1.53h2.44Z"/><path class="cls-2" d="m130.81,37.61c-.01.24-.03.54-.04.85.12,2.07.87,8.53,6.46,11.16-.55.42-1.09,1.04-1.38,1.51-3.39-1.68-5.07-4.77-5.91-7.53-.81,2.7-2.38,5.6-5.55,7.53-.32-.46-.9-1-1.5-1.42,5.98-3.31,5.77-10.12,5.88-12.1h2.04Z"/><path class="cls-2" d="m141.72,39.73c-.22,1-.72,4.3-.72,5.8,0,.3.01.68.06.98.2-.52.45-1.04.68-1.54l.91.75c-.42,1.23-.9,2.76-1.08,3.57-.04.21-.08.54-.08.71,0,.15.01.41.03.62l-1.7.13c-.32-1.05-.6-2.76-.6-4.8,0-2.27.45-5.1.61-6.25.06-.42.14-.99.15-1.47l2.07.18c-.12.3-.3,1.07-.34,1.33Zm7.58-.52c-.02.33-.03.88-.04,1.54.82-.08,1.6-.19,2.32-.35v1.88c-.72.1-1.5.2-2.32.26.03,1.45.1,2.65.16,3.67,1.24.51,2.19,1.27,2.91,1.93l-1.04,1.58c-.63-.58-1.23-1.11-1.83-1.51-.09,1.44-.9,2.46-2.92,2.46s-3.36-.87-3.36-2.45,1.29-2.56,3.33-2.56c.34,0,.67.02.97.06-.03-.93-.09-2.02-.1-3.09-.36.02-.72.02-1.07.02-.88,0-1.74-.03-2.62-.09v-1.78c.86.09,1.73.13,2.62.13.34,0,.71,0,1.05-.02,0-.73-.01-1.35-.01-1.66,0-.23-.04-.69-.11-.99h2.15c-.04.29-.08.65-.09.98Zm-2.97,9.69c.91,0,1.23-.48,1.23-1.37v-.27c-.39-.1-.79-.17-1.2-.17-.85,0-1.42.36-1.42.93,0,.62.6.87,1.4.87Z"/><path class="cls-2" d="m165.99,39.71l-.84.36,1.1.67c-.17.3-.36.71-.5,1.08-.39,1.21-1.14,2.82-2.22,4.32.64.46,1.23.9,1.68,1.26l-1.44,1.69c-.4-.38-.96-.84-1.57-1.33-1.32,1.4-3.02,2.67-5.36,3.55l-1.74-1.51c2.59-.79,4.26-2.01,5.49-3.27-.97-.7-1.96-1.38-2.73-1.87l1.33-1.37c.79.45,1.74,1.07,2.7,1.71.77-1.09,1.41-2.38,1.64-3.31h-4.29c-1.05,1.4-2.45,2.83-3.96,3.88l-1.62-1.26c2.62-1.62,4.02-3.67,4.79-4.98.22-.36.54-1.05.67-1.56l2.17.67c-.36.52-.75,1.2-.93,1.53h3.06c.41,0,.84-.04,1.17-.13-.29-.57-.64-1.23-.97-1.71l1.18-.48c.38.54.92,1.5,1.19,2.05Zm1.8-.7l-1.18.52c-.32-.63-.8-1.5-1.22-2.07l1.19-.5c.39.57.94,1.51,1.21,2.04Z"/><path class="cls-2" d="m171.24,48.4v-8.13c0-.57-.08-1.27-.16-1.71h2.35c-.09.58-.15,1.12-.15,1.71v7.8c2.44-.71,5.79-2.62,7.71-4.96l1.07,1.69c-2.05,2.46-5.16,4.25-8.7,5.4-.21.08-.54.18-.88.41l-1.42-1.23c.18-.38.2-.63.2-.98Z"/><path class="cls-2" d="m191.44,41.77c0-.9-.72-1.41-1.89-1.41-.93,0-1.67.41-2.4,1.19l-1.23-1.14c.94-1.11,2.26-1.83,3.87-1.83,2.18,0,3.77,1,3.77,3,0,2.2-3.27,2.46-3.04,4.54h-1.94c-.31-2.35,2.87-2.89,2.87-4.35Zm-3.21,7.02c0-.8.57-1.34,1.32-1.34s1.32.54,1.32,1.34-.55,1.32-1.32,1.32-1.32-.54-1.32-1.32Z"/></g><path class="cls-2" d="m256.68,170.74H32.45c-4.75,0-8.61-3.86-8.61-8.61s3.86-8.62,8.61-8.62h224.23c4.75,0,8.61,3.86,8.61,8.62s-3.86,8.61-8.61,8.61Zm-224.23-16.23c-4.2,0-7.61,3.42-7.61,7.62s3.42,7.61,7.61,7.61h224.23c4.2,0,7.61-3.42,7.61-7.61s-3.42-7.62-7.61-7.62H32.45Z"/><g><path class="cls-2" d="m45.17,158.98c.42,0,.77.35.77.78s-.35.77-.77.77c-.03,0-.06,0-.08,0-.02.07-.03.14-.05.2-.15.64-.43,1.64-.98,2.37-.58.78-1.46,1.42-2.61,1.8l-.71-.78c1.29-.3,2.02-.86,2.55-1.53.43-.54.68-1.27.76-1.83h-3.02c-.3,0-.61.01-.77.03v-.92c.19.03.56.05.77.05h3.01c.09,0,.23,0,.37-.03,0-.04-.01-.08-.01-.12,0-.43.35-.78.78-.78Zm0,1.15c.2,0,.37-.17.37-.37s-.17-.38-.37-.38-.38.17-.38.38.17.37.38.37Z"/><path class="cls-2" d="m47.42,163.84v-3.52c0-.25-.03-.55-.07-.74h1.02c-.04.25-.06.49-.06.74v3.38c1.06-.31,2.51-1.14,3.34-2.15l.46.74c-.89,1.07-2.24,1.84-3.77,2.34-.09.03-.23.08-.38.18l-.62-.53c.08-.16.08-.27.08-.42Z"/><path class="cls-2" d="m55.81,160.83c.67-.42,1.41-1.07,1.83-1.58l.7.67c-.49.49-1.12,1-1.75,1.41v2.63c0,.29.01.69.06.85h-1.03c.03-.16.05-.57.05-.85v-2.08c-.67.35-1.49.7-2.29.94l-.41-.82c1.16-.3,2.12-.72,2.84-1.16Z"/><path class="cls-2" d="m61.52,159.8c.06.21.14.47.22.77,1-.19,2.15-.41,2.46-.48.14-.02.29-.07.38-.12l.6.43c-.31.66-1.1,1.79-1.63,2.39l-.84-.4c.49-.4,1.01-1.09,1.21-1.45-.19.03-1.06.21-1.97.39.31,1.11.64,2.33.77,2.77.05.14.14.45.21.61l-.97.23c-.03-.18-.08-.44-.14-.66-.12-.4-.45-1.67-.74-2.76-.66.14-1.24.26-1.47.32l-.23-.88c.25-.03.48-.05.73-.09.1-.02.38-.06.75-.14-.08-.3-.16-.57-.2-.73-.08-.29-.15-.45-.22-.57l.96-.21c.03.16.06.37.12.58Z"/><path class="cls-2" d="m67.21,161.56h3.49c.31,0,.59-.03.76-.04v1.02c-.16,0-.49-.03-.76-.03h-3.49c-.37,0-.81.01-1.05.03v-1.02c.23.02.71.04,1.05.04Z"/><path class="cls-2" d="m74.7,160.57c0-.36.27-.62.62-.62s.62.26.62.62-.27.6-.62.6-.62-.26-.62-.6Zm0,3.1c0-.36.27-.62.62-.62s.62.26.62.62-.27.6-.62.6-.62-.26-.62-.6Z"/><path class="cls-2" d="m80.76,163.36h-2.05v-.66l1.79-2.87h1.15v2.79h.57v.74h-.57v1.16h-.89v-1.16Zm0-.74v-.94c0-.28.02-.72.03-1h-.03c-.12.25-.25.49-.38.75l-.75,1.18h1.12Z"/><path class="cls-2" d="m86.7,159.17c0,.1-.01.23-.02.37.05.9.38,3.7,2.8,4.84-.24.18-.47.45-.6.66-1.47-.73-2.2-2.07-2.56-3.26-.35,1.17-1.03,2.42-2.41,3.26-.14-.2-.39-.44-.65-.62,2.59-1.44,2.5-4.39,2.55-5.25h.88Z"/></g><g><path class="cls-2" d="m114.45,158.98c.42,0,.77.35.77.78s-.35.77-.77.77c-.03,0-.06,0-.08,0-.02.07-.03.14-.05.2-.15.64-.43,1.64-.98,2.37-.58.78-1.46,1.42-2.61,1.8l-.71-.78c1.29-.3,2.02-.86,2.55-1.53.43-.54.68-1.27.76-1.83h-3.02c-.3,0-.61.01-.77.03v-.92c.19.03.56.05.77.05h3.01c.09,0,.23,0,.37-.03,0-.04-.01-.08-.01-.12,0-.43.35-.78.78-.78Zm0,1.15c.2,0,.37-.17.37-.37s-.17-.38-.37-.38-.38.17-.38.38.17.37.38.37Z"/><path class="cls-2" d="m116.69,163.84v-3.52c0-.25-.03-.55-.07-.74h1.02c-.04.25-.06.49-.06.74v3.38c1.06-.31,2.51-1.14,3.34-2.15l.46.74c-.89,1.07-2.24,1.84-3.77,2.34-.09.03-.23.08-.38.18l-.62-.53c.08-.16.08-.27.08-.42Z"/><path class="cls-2" d="m125.09,160.83c.67-.42,1.41-1.07,1.83-1.58l.7.67c-.49.49-1.12,1-1.75,1.41v2.63c0,.29.01.69.06.85h-1.03c.03-.16.05-.57.05-.85v-2.08c-.67.35-1.49.7-2.29.94l-.41-.82c1.16-.3,2.12-.72,2.84-1.16Z"/><path class="cls-2" d="m130.8,163.84h-1.32v.57h-.72v-4.99h2.03v4.42Zm-1.32-3.73v1.14h.6v-1.14h-.6Zm.6,3.04v-1.22h-.6v1.22h.6Zm3.87-1.52v.56h.62v.67h-.62v1.42c0,.37-.07.57-.33.68-.25.11-.6.13-1.09.13-.03-.21-.14-.52-.25-.73.31.01.68.01.77.01.1,0,.14-.03.14-.12v-1.4h-2.28v-.67h2.28v-.56h-2.29v-.68h1.47v-.57h-1.25v-.68h1.25v-.68h.76v.68h1.3v.68h-1.3v.57h1.48v.68h-.67Zm-2.15,1.31c.3.32.65.75.79,1.07l-.66.38c-.12-.3-.45-.76-.74-1.09l.62-.36Z"/><path class="cls-2" d="m136.14,161.61v3.48h-.77v-5.82h2.49v2.35h-1.72Zm0-1.79v.34h1v-.34h-1Zm1,1.23v-.37h-1v.37h1Zm3.72,3.11c0,.42-.08.64-.34.77-.25.13-.63.15-1.19.15-.02-.16-.09-.4-.17-.6h-1.61v.33h-.7v-2.81h.32s2.18,0,2.18,0v2.3c.25,0,.49,0,.58,0,.12,0,.16-.04.16-.14v-2.54h-1.77v-2.36h2.55v4.91Zm-2.24-1.6h-1.07v.39h1.07v-.39Zm0,1.35v-.4h-1.07v.4h1.07Zm.43-4.09v.34h1.03v-.34h-1.03Zm1.03,1.25v-.38h-1.03v.38h1.03Z"/><path class="cls-2" d="m143.98,160.57c0-.36.27-.62.62-.62s.62.26.62.62-.27.6-.62.6-.62-.26-.62-.6Zm0,3.1c0-.36.27-.62.62-.62s.62.26.62.62-.27.6-.62.6-.62-.26-.62-.6Z"/><path class="cls-2" d="m148.94,162.93c-.06.61-.2,1.26-.39,1.68-.14-.09-.42-.22-.59-.28.19-.38.29-.96.34-1.51l.64.11Zm5.06-2.81s0,.26,0,.36c-.08,2.85-.18,3.87-.45,4.22-.18.25-.35.32-.62.36-.23.04-.64.03-1.01.02-.01-.22-.12-.56-.26-.78.41.04.78.04.96.04.12,0,.19-.03.27-.11.19-.2.29-1.15.36-3.37h-1.79c-.18.32-.36.6-.55.84-.13-.12-.42-.31-.61-.43.23.41.44.89.51,1.21l-.59.27c-.02-.1-.05-.22-.09-.35l-.37.03v2.67h-.68v-2.62l-.96.07-.06-.68.48-.02c.1-.12.2-.26.3-.4-.19-.28-.51-.63-.78-.89l.36-.53c.05.05.1.09.16.14.18-.36.36-.79.47-1.13l.68.24c-.23.45-.5.95-.73,1.31.08.09.16.19.23.27.23-.36.44-.74.6-1.07l.66.27c-.36.57-.82,1.24-1.24,1.76l.66-.03c-.07-.16-.15-.31-.23-.45l.55-.24.05.08c.48-.51.86-1.35,1.07-2.17l.79.17c-.08.32-.2.63-.32.93h2.22Zm-3.67,2.67c.18.38.34.89.42,1.22l-.61.21c-.05-.33-.22-.86-.38-1.25l.57-.18Zm1.52.66c-.12-.41-.46-1.03-.79-1.5l.62-.31c.34.45.71,1.05.85,1.46l-.67.36Z"/><path class="cls-2" d="m155.34,163.97c1.25-1.2,2.08-2.01,2.08-2.71,0-.47-.26-.76-.72-.76-.35,0-.64.23-.88.5l-.52-.52c.44-.47.87-.73,1.53-.73.91,0,1.51.58,1.51,1.46,0,.82-.75,1.66-1.61,2.56.24-.03.56-.05.79-.05h1.05v.81h-3.22v-.55Z"/><path class="cls-2" d="m159.17,162.16c0-1.59.64-2.41,1.63-2.41s1.62.83,1.62,2.41-.64,2.46-1.62,2.46-1.63-.86-1.63-2.46Zm2.35,0c0-1.3-.31-1.66-.72-1.66s-.73.36-.73,1.66.31,1.71.73,1.71.72-.4.72-1.71Z"/><path class="cls-2" d="m168.03,159.09c.41.83,1.22,1.77,1.93,2.31-.21.16-.51.47-.66.7-.14-.12-.27-.27-.42-.42v.05c-.07,1.96-.15,2.73-.38,3-.16.21-.34.27-.59.31-.22.03-.6.03-.98.02-.01-.23-.12-.56-.25-.78.36.03.7.03.86.03.12,0,.19-.01.26-.09.13-.14.2-.71.26-2.07h-1.28c-.16,1.25-.58,2.36-2.27,2.99-.1-.22-.33-.54-.51-.71,1.47-.47,1.81-1.33,1.94-2.28h-1.1v-.45c-.17.18-.34.33-.52.47-.14-.18-.47-.49-.66-.62.81-.55,1.53-1.44,1.92-2.43l.83.24c-.32.75-.77,1.46-1.29,2.05h3.51c-.51-.6-1-1.31-1.36-2l.76-.31Z"/></g><g><path class="cls-2" d="m191.98,160.96c-.12.7-.3,1.33-.53,1.89.29.38.52.74.67,1.05l-.62.53c-.1-.23-.25-.51-.44-.8-.34.57-.79,1.04-1.33,1.4-.09-.16-.36-.46-.52-.6.6-.35,1.05-.85,1.38-1.48-.34-.46-.73-.92-1.09-1.32l.55-.44c.28.3.57.63.86.97.14-.4.24-.84.31-1.31l.75.1Zm3.35.24h-.7v2.92c0,.44-.08.66-.32.79-.25.14-.63.17-1.17.17-.03-.23-.14-.6-.25-.83.36.02.71.01.83.01.12,0,.16-.03.16-.14v-2.92h-1.63v-.47h-2.86v-.71h1.13v-.99h.74v.99h1.2v.44h1.42v-1.44h.76v1.44h.7v.74Zm-2.54.51c.31.43.62.99.72,1.37l-.67.34c-.1-.38-.38-.98-.67-1.42l.62-.3Z"/><path class="cls-2" d="m201.7,162.43c-.43.28-.94.56-1.37.76.38.47.88.84,1.51,1.05-.16.16-.38.45-.49.65-1.24-.51-1.95-1.52-2.36-2.91-.17.1-.35.2-.54.29,1.33.89,1.33,2.2.66,2.63-.25.16-.44.21-.75.21-.16,0-.34,0-.52-.01-.01-.21-.08-.49-.22-.69-.44.2-.9.37-1.32.49-.1-.16-.3-.42-.44-.56.94-.21,2.04-.64,2.68-1.12-.04-.06-.08-.12-.14-.17-.58.36-1.36.66-2.02.83-.1-.16-.28-.39-.42-.52.69-.13,1.48-.37,2.03-.66-.06-.05-.14-.09-.21-.14-.48.18-.99.33-1.45.44-.08-.13-.27-.42-.39-.55.63-.1,1.31-.27,1.87-.49h-1.23v-1.01c-.07.05-.14.1-.22.14-.11-.17-.35-.43-.51-.55.83-.44,1.42-1.03,1.76-1.56l.81.16c-.06.09-.13.18-.19.27h1.14l.12-.03.53.34c-.12.19-.27.4-.44.6h1.57v1.62h-1.48c.09.26.2.51.33.74.38-.21.8-.5,1.08-.73l.62.46Zm-4.39-1.03h1.11v-.5h-1.11v.5Zm.42-1.4c-.1.12-.22.23-.34.34h1.29c.09-.1.18-.22.26-.34h-1.21Zm1.06,3.76c-.34.24-.75.47-1.16.66.22.03.44.03.6.03s.29-.01.4-.1c.16-.1.23-.32.17-.58Zm1.6-2.85h-1.21v.5h1.21v-.5Z"/><path class="cls-2" d="m208.29,163.71h-2.22v1.39h-.8v-1.39h-2.93v-.74h1.03v-1.71h1.9v-.77h-1.39c-.27.46-.58.88-.88,1.18-.15-.13-.48-.39-.67-.5.58-.49,1.09-1.33,1.37-2.16l.79.2c-.06.18-.13.36-.21.53h3.67v.75h-1.87v.77h1.72v.72h-1.72v.99h2.22v.74Zm-3.02-.74v-.99h-1.12v.99h1.12Z"/><path class="cls-2" d="m212.51,161.19c-.14.16-.28.31-.43.43-.04-.1-.1-.23-.16-.36h-3.13v-.65h.36v-1.25h.65v1.25h.42v-1.59h.71v.49h.94v.61h-.94v.48h1.1v.05c.4-.46.74-1.11.91-1.63h.7c.3.7.78,1.48,1.29,1.83-.14.2-.28.49-.38.73-.14-.11-.27-.24-.4-.39v.49h-1.65v-.5Zm-1.18.24h.6v3.58h-.6v-.31h-1.77v.39h-.57v-3.65h.57v2.68h1.77v-2.68Zm-1.11,1.87c-.12.24-.27.45-.42.6-.04-.14-.13-.35-.2-.47.16-.12.33-.34.46-.57h-.38v-.45h.55v-.91h.46v.91h.54v.45h-.46c.17.16.46.44.54.53l-.28.33c-.06-.11-.21-.29-.34-.46v.76h-.46v-.71Zm-.4-.96c-.03-.16-.1-.43-.2-.62l.34-.1c.1.19.18.45.21.61l-.36.12Zm1.49-.6c-.11.23-.21.44-.31.59l-.32-.09c.09-.18.2-.44.25-.61l.38.11Zm3.31,2.02c0,.3-.04.49-.23.62-.19.12-.43.13-.75.13-.03-.21-.12-.5-.21-.69.18,0,.36,0,.42,0s.08-.03.08-.08v-.92h-.58v2.28h-.72v-2.28h-.48v-.67h2.48v1.61Zm-.59-2.72c-.3-.38-.55-.83-.7-1.21-.15.37-.39.82-.68,1.21h1.38Z"/><path class="cls-2" d="m217.7,160.57c0-.36.27-.62.62-.62s.62.26.62.62-.27.6-.62.6-.62-.26-.62-.6Zm0,3.1c0-.36.27-.62.62-.62s.62.26.62.62-.27.6-.62.6-.62-.26-.62-.6Z"/><path class="cls-2" d="m222.1,163.75h1.03v-2.92h-.87v-.59c.48-.09.81-.21,1.12-.4h.71v3.91h.9v.77h-2.89v-.77Z"/><path class="cls-2" d="m225.68,162.16c0-1.59.64-2.41,1.63-2.41s1.62.83,1.62,2.41-.64,2.46-1.62,2.46-1.63-.86-1.63-2.46Zm2.35,0c0-1.3-.3-1.66-.72-1.66s-.73.36-.73,1.66.31,1.71.73,1.71.72-.4.72-1.71Z"/><path class="cls-2" d="m235.97,162.29c-.2.6-.49,1.14-.84,1.61.18.33.34.53.48.53.12,0,.18-.26.21-.84.15.13.38.27.55.34-.1.95-.33,1.18-.81,1.18-.33,0-.64-.25-.9-.67-.26.25-.55.47-.85.66-.11-.14-.37-.4-.52-.52.39-.21.74-.47,1.04-.79-.21-.51-.38-1.14-.48-1.82h-2.39v.51c0,.78-.1,1.9-.64,2.63-.12-.14-.42-.37-.58-.45.47-.64.51-1.53.51-2.18v-1.11h3.02c-.01-.15-.03-.3-.03-.45h-3.31v-.62h.97v-.98h.71v.98h.98v-1.27h.75v.37h1.85v.55h-1.85v.35h2.38v.62h-.85c.19.14.4.31.51.43l-.03.02h.34v.6h-1.65c.07.43.18.83.28,1.18.19-.31.34-.64.45-1l.69.16Zm-3.65.93c-.12.44-.33.91-.54,1.2-.1-.08-.34-.23-.48-.29.21-.27.38-.66.47-1.03l.55.12Zm.68-.35v1.52c0,.27-.03.43-.21.52-.16.1-.38.11-.67.11-.03-.18-.11-.42-.19-.58.17,0,.33,0,.37,0,.07,0,.08-.02.08-.08v-1.5h-.71v-.57h2.04v.57h-.71Zm.42,1.32c-.05-.24-.22-.63-.38-.92l.49-.18c.16.27.34.66.41.9l-.52.2Zm1.01-3.28c0,.15.02.3.03.45h.61c-.12-.1-.24-.2-.34-.27l.25-.18h-.55Z"/><path class="cls-2" d="m239.57,163.26c-.86.38-1.82.79-2.55,1.1l-.26-.83c.25-.08.54-.19.86-.32l-.13-3.8.81-.03.12,3.52c.33-.14.66-.27.98-.4l.18.76Zm2.69,1.83c-.25-.42-.73-1.02-1.22-1.57-.47.68-1.12,1.2-1.98,1.58-.11-.17-.43-.52-.62-.68,2.06-.78,2.73-2.35,2.97-5.02l.85.08c-.14,1.33-.37,2.42-.79,3.3.54.56,1.14,1.22,1.44,1.67l-.66.64Zm-2.44-3.33c-.16-.45-.58-1.13-.97-1.61l.7-.35c.42.47.83,1.11,1.03,1.56l-.76.4Z"/><path class="cls-2" d="m249.28,163.99v.78h-5.91v-.78h2.33v-4.89h.83v1.86h2.29v.79h-2.29v2.25h2.75Z"/></g><rect class="cls-2" x="99.8" y="158.2" width=".43" height="7.86"/><rect class="cls-2" x="179.67" y="158.2" width=".43" height="7.86"/><g><path class="cls-2" d="m72.98,75.52c-.02.14-.06.28-.08.44.98-.04,1.84-.14,2.72-.35v.93c-.78.14-1.85.24-2.83.28-.02.24-.05.49-.06.73.38-.09.8-.14,1.19-.14h.14c.03-.16.06-.36.07-.48l.98.23c-.03.09-.1.26-.14.41.93.3,1.54,1.03,1.54,1.96,0,1.13-.66,2.23-2.63,2.53l-.53-.84c1.54-.17,2.17-.95,2.17-1.73,0-.48-.28-.9-.83-1.12-.43,1.09-1.07,1.93-1.68,2.43.06.2.12.4.18.59l-.92.28c-.03-.1-.07-.22-.1-.33-.39.19-.82.32-1.24.32-.58,0-1.08-.35-1.08-1.16,0-1.03.85-2.1,1.97-2.63.02-.34.04-.68.07-1.01h-.26c-.42,0-1.04-.03-1.42-.05l-.02-.93c.28.05.98.11,1.47.11h.32c.02-.15.03-.3.05-.43,0-.15.02-.34.02-.48l1.04.02c-.05.16-.08.3-.11.42Zm-1.81,5.15c.22,0,.51-.1.8-.26-.09-.5-.15-1.05-.17-1.6-.6.41-1,1.02-1,1.47,0,.26.11.39.37.39Zm1.63-.93c.38-.39.74-.88,1.01-1.53-.42,0-.79.08-1.1.18v.02c0,.49.03.93.1,1.33Z"/><path class="cls-2" d="m79.61,75.48c.42,0,2.13-.03,2.59-.07.33-.03.51-.06.61-.09l.52.71c-.18.12-.38.23-.56.37-.43.3-1.27,1.01-1.77,1.41.26-.06.5-.09.76-.09,1.36,0,2.39.85,2.39,2.02,0,1.26-.96,2.26-2.89,2.26-1.11,0-1.95-.51-1.95-1.31,0-.65.58-1.25,1.43-1.25.99,0,1.59.61,1.7,1.37.44-.23.66-.6.66-1.09,0-.72-.72-1.21-1.66-1.21-1.22,0-2.02.65-2.88,1.62l-.73-.75c.57-.46,1.54-1.27,2.01-1.66.45-.37,1.28-1.04,1.67-1.38-.41,0-1.51.06-1.94.08-.22.02-.47.04-.66.06l-.03-1.04c.22.03.5.04.73.04Zm1.44,5.6c.17,0,.32,0,.46-.02-.05-.52-.34-.86-.78-.86-.3,0-.5.18-.5.38,0,.3.33.5.81.5Z"/><path class="cls-2" d="m91.92,75.24v6.88h-1.02v-.5h-3.55v.52h-.98v-6.89h5.56Zm-4.57.96v1.72h3.55v-1.72h-3.55Zm3.55,4.45v-1.79h-3.55v1.79h3.55Z"/><path class="cls-2" d="m93.45,80.31l.83-.72c.57.46,1.34,1.25,1.74,1.75l-.86.74c-.49-.6-1.17-1.29-1.72-1.77Z"/><path class="cls-2" d="m101.64,79.39c.25-.1.5-.21.74-.31l.22.84c-.85.42-1.76.86-2.49,1.19l-.38-.96c.29-.1.64-.24,1.04-.39v-2.25h-.94v-.9h.94v-1.74h.89v1.74h.81v.9h-.81v1.89Zm4.27,1.84c.44,0,.52-.18.59-1,.2.14.57.3.83.34-.13,1.12-.41,1.5-1.34,1.5h-1.7c-1.08,0-1.39-.3-1.39-1.4v-2.05l-.43.18-.35-.85.78-.33v-2.1h.91v1.71l.66-.28v-2.21h.89v1.82l.63-.27.17-.11.17-.11.66.23-.03.16c0,1.52-.02,2.48-.06,2.81-.02.37-.17.56-.41.66-.23.1-.58.11-.83.11-.02-.25-.1-.6-.2-.8.14.02.31.02.38.02.1,0,.14-.03.18-.18.02-.13.02-.71.02-1.85l-.69.3v2.82h-.89v-2.44l-.66.29v2.47c0,.46.07.54.56.54h1.54Z"/><path class="cls-2" d="m113.66,78.76c.36.88.89,1.54,1.75,2.13-.22.17-.47.46-.58.72-.71-.54-1.21-1.1-1.57-1.78v1.3c0,.47-.1.73-.38.87-.28.16-.68.2-1.28.2-.03-.26-.19-.66-.33-.92.4.02.77.02.89.02.13,0,.18-.05.18-.17v-4.18h-1.89v-.72h-.78v1.34h.78v.87h-.78v1.37c.29-.09.58-.17.86-.26l.1.59c.41-.24.87-.52,1.33-.79l.29.78c-.6.43-1.27.89-1.84,1.23l-.44-.78c-.71.24-1.42.46-2.01.65l-.25-.9c.3-.07.66-.17,1.06-.27v-1.62h-.84v-.87h.84v-1.34h-.9v-.88h2.67v.74h1.8v-1.34h.92v1.34h1.26c-.22-.26-.63-.58-.98-.82l.53-.5c.37.22.84.58,1.06.83l-.48.48h.62v.86h-2.02v.29c.09.49.2.93.34,1.32.3-.38.64-.92.83-1.33l.83.44c-.34.49-.75,1.03-1.06,1.38l-.53-.29Zm-2.41.32c-.12-.38-.43-.99-.74-1.43l.74-.33c.31.43.66,1,.78,1.39l-.78.37Z"/><path class="cls-2" d="m117.61,76.07c-.12.54-.38,2.29-.38,3.09,0,.16,0,.36.03.52.1-.28.24-.55.36-.82l.49.4c-.22.66-.48,1.47-.58,1.9-.02.11-.04.29-.04.38,0,.08,0,.22.02.33l-.9.07c-.17-.56-.32-1.47-.32-2.56,0-1.21.24-2.72.33-3.33.03-.22.07-.53.08-.78l1.1.1c-.06.16-.16.57-.18.71Zm4.04-.28c0,.18-.02.47-.02.82.44-.04.86-.1,1.24-.18v1c-.38.06-.8.1-1.24.14.02.78.06,1.42.09,1.96.66.27,1.17.68,1.55,1.03l-.55.84c-.34-.31-.66-.59-.98-.81-.05.77-.48,1.31-1.56,1.31s-1.79-.46-1.79-1.3.69-1.37,1.77-1.37c.18,0,.36,0,.52.03-.02-.5-.05-1.08-.06-1.65-.19,0-.38,0-.57,0-.47,0-.93-.02-1.4-.05v-.95c.46.05.92.07,1.4.07.18,0,.38,0,.56,0,0-.39,0-.72,0-.89,0-.12-.02-.37-.06-.53h1.14c-.02.15-.04.34-.05.52Zm-1.58,5.17c.49,0,.66-.26.66-.73v-.14c-.21-.06-.42-.09-.64-.09-.46,0-.76.19-.76.5,0,.33.32.46.74.46Z"/><path class="cls-2" d="m130.99,79.75h-2.99v1.38c0,.54-.12.78-.5.93-.38.15-.92.17-1.62.17-.06-.29-.26-.7-.4-.96.51.02,1.13.02,1.3.02.17,0,.22-.04.22-.18v-1.36h-2.93v-.9h2.93v-.9h-1.64v-.88h4.29v.88h-1.65v.9h2.99v.9Zm-5.99-2.18h-.94v-2.02h2.93v-.78h1.01v.78h2.97v2.02h-.98v-1.16h-4.99v1.16Z"/><path class="cls-2" d="m139.38,75.59v1.98h-.99v-1.1h-4.81v1.1h-.94v-1.98h2.83v-.82h1.01v.82h2.89Zm-2.93,2.21h2.28v4.41h-.98v-.3h-3.52v.3h-.93v-4.41h2.21v-1.02h.93v1.02Zm-2.21.87v.75h1.28v-.75h-1.28Zm0,2.37h1.28v-.82h-1.28v.82Zm2.21-2.37v.75h1.3v-.75h-1.3Zm1.3,2.37v-.82h-1.3v.82h1.3Z"/><path class="cls-2" d="m144.43,74.94c0,.13-.02.29-.02.46.06,1.1.46,4.55,3.45,5.95-.3.22-.58.55-.74.81-1.81-.9-2.7-2.54-3.15-4.01-.43,1.44-1.27,2.98-2.96,4.01-.17-.25-.48-.54-.8-.76,3.19-1.77,3.08-5.4,3.13-6.45h1.09Z"/><path class="cls-2" d="m150.16,76.12c-.1.54-.38,2.13-.38,2.93,0,.15,0,.36.03.52.12-.27.25-.55.36-.82l.5.39c-.22.66-.49,1.54-.58,1.96-.02.12-.04.3-.04.38,0,.09,0,.22.02.33l-.93.06c-.16-.55-.31-1.53-.31-2.61,0-1.2.25-2.55.34-3.17.02-.22.07-.53.08-.78l1.12.1c-.06.17-.17.57-.2.71Zm1.98,3.91c0,.35.3.57,1.12.57.71,0,1.3-.06,2.01-.21l.02,1.08c-.52.1-1.16.15-2.06.15-1.37,0-2.04-.49-2.04-1.31,0-.31.05-.63.14-1.04l.92.09c-.06.26-.1.46-.1.67Zm2.89-4.09v1.03c-.98.09-2.43.1-3.44,0v-1.02c.98.14,2.57.1,3.44,0Z"/><path class="cls-2" d="m158.82,75.07c-.21.55-.47,1.11-.77,1.65v5.49h-.9v-4.09c-.18.23-.36.45-.54.64-.09-.23-.34-.76-.5-.98.72-.72,1.41-1.85,1.82-3l.9.29Zm4.3,4.53c-.27.58-.66,1.05-1.14,1.43.55.19,1.18.32,1.87.4-.2.19-.45.56-.57.81-.83-.13-1.57-.34-2.19-.66-.66.32-1.42.54-2.23.68-.07-.24-.27-.62-.43-.82.65-.08,1.26-.22,1.8-.42-.31-.25-.58-.53-.8-.85l.59-.21h-.9v-.37h-.61v-1.42h5.12v1.42h-.52Zm.05-1.74h-4.19v-.72h3.25v-.34h-3v-.67h3v-.34h-3.17v-.72h4.12v2.79Zm-3.8,1.03v.34h3.05l.16-.03.18.08v-.39h-3.39Zm.95,1.08c.19.25.46.46.76.65.3-.18.56-.4.77-.65h-1.53Z"/><path class="cls-2" d="m171.47,75.81c-.3.79-.74,1.49-1.28,2.07.5.38,1.08.7,1.73.9-.19.18-.47.57-.61.8l-.06-.02v2.65h-.93v-.25h-1.64v.26h-.88v-2.62l-.2.09c-.06-.12-.17-.27-.27-.42v1.39h-2.08v.66h-.69v-6.08h2.77v1.51c.58-.52,1.08-1.25,1.37-2l.9.25c-.07.19-.16.38-.26.56h1.34l.16-.04.62.3Zm-6.2.23v1.42h.38v-1.42h-.38Zm0,3.8h.38v-1.6h-.38v1.6Zm1.37-3.8h-.4v1.42h.4v-1.42Zm0,3.8v-1.6h-.4v1.6h.4Zm.71-1.01c.55-.24,1.1-.57,1.57-.97-.22-.26-.42-.53-.59-.79-.19.22-.39.42-.59.59-.08-.1-.23-.26-.38-.4v1.57Zm3.29.43c-.4-.22-.77-.48-1.1-.77-.34.29-.71.54-1.1.77h2.19Zm-.3,1.86v-1.03h-1.64v1.03h1.64Zm-1.45-4.79l-.05.06c.18.3.41.6.69.89.27-.3.51-.62.7-.95h-1.34Z"/><path class="cls-2" d="m175.8,75.12l1.08-.13c.08.42.2.86.34,1.26.58-.09,1.14-.22,1.64-.37l.13,1.01c-.41.12-.92.22-1.42.29.23.52.51,1.02.71,1.3.14.2.29.38.43.54l-.5.72c-.45-.09-1.46-.19-2.13-.25l.08-.85c.39.03.92.08,1.17.1-.24-.38-.53-.91-.75-1.45-.95.07-2.05.08-3.41-.03l-.02-1.02c1.2.14,2.22.17,3.07.11-.06-.18-.11-.35-.16-.49-.06-.18-.15-.47-.26-.74Zm-1.45,4.92c0,.67.6.96,1.7.96.87,0,1.58-.08,2.14-.19l-.06,1.01c-.46.09-1.18.19-2.15.19-1.63,0-2.66-.64-2.66-1.79,0-.49.15-.94.42-1.49l1,.23c-.26.38-.39.73-.39,1.08Z"/><path class="cls-2" d="m182.15,75.05l1.17.04c-.05.22-.12.63-.18,1.13l.3.38c-.11.14-.27.41-.41.62,0,.06,0,.11-.02.18.63-.55,1.55-1.2,2.33-1.2.86,0,1.26.51,1.26,1.18,0,.83-.26,2.01-.26,2.83,0,.21.1.36.3.36.3,0,.67-.21,1.04-.58l.13,1.13c-.37.34-.86.59-1.5.59-.6,0-1-.43-1-1.21,0-.86.29-2.04.29-2.77,0-.39-.21-.59-.54-.59-.59,0-1.45.74-2.11,1.46,0,.22-.02.44-.02.65,0,.66,0,1.33.05,2.08,0,.14.03.43.06.62h-1.1c.02-.18.02-.46.02-.59.02-.62.02-1.09.03-1.76-.34.5-.73,1.09-1.01,1.46l-.63-.87c.46-.56,1.26-1.61,1.71-2.29.02-.18.03-.38.04-.57-.39.05-1.01.13-1.46.19l-.1-1.02c.23,0,.42,0,.7,0,.23-.02.58-.06.93-.1.02-.3.03-.53.03-.62,0-.23,0-.47-.03-.72Z"/><path class="cls-2" d="m189.37,75.99c.66-.06,1.98-.18,3.45-.3.82-.06,1.7-.12,2.26-.14v1.02c-.42,0-1.11,0-1.54.1-.97.26-1.69,1.3-1.69,2.25,0,1.31,1.23,1.79,2.58,1.86l-.38,1.09c-1.67-.11-3.25-1.02-3.25-2.74,0-1.15.65-2.06,1.18-2.47-.75.08-2.38.26-3.31.46l-.1-1.1c.32,0,.63-.02.79-.04Z"/><path class="cls-2" d="m198.87,76.25c-.03.86-.1,2.66-.1,3.65,0,.81.48,1.07,1.1,1.07,1.32,0,2.16-.76,2.73-1.63l.73.88c-.51.77-1.65,1.84-3.47,1.84-1.31,0-2.16-.58-2.16-1.94,0-1.07.08-3.17.08-3.86,0-.38-.03-.76-.1-1.08l1.29.02c-.05.34-.09.74-.1,1.06Z"/><path class="cls-2" d="m208.73,75.63c0,.08,0,.2,0,.33.66-.03,1.32-.1,2.02-.22v.92c-.54.06-1.26.14-2.04.18v.82c.81-.04,1.49-.1,2.14-.19v.94c-.73.08-1.35.14-2.12.16.02.3.03.63.06.95,1.01.29,1.77.82,2.24,1.21l-.58.9c-.43-.4-.98-.82-1.62-1.11,0,.11,0,.21,0,.3,0,.68-.52,1.21-1.57,1.21-1.28,0-1.95-.49-1.95-1.34s.74-1.38,1.98-1.38c.17,0,.34,0,.5.02-.02-.25-.02-.5-.03-.74h-.42c-.46,0-1.37-.04-1.9-.1v-.94c.51.1,1.5.15,1.92.15h.38c0-.26,0-.55,0-.82h-.3c-.5,0-1.43-.07-1.96-.14l-.02-.91c.58.1,1.49.18,1.98.18h.31v-.38c0-.15-.02-.4-.05-.55h1.08c-.02.16-.04.36-.05.57Zm-1.62,5.48c.42,0,.7-.12.7-.58,0-.09,0-.2,0-.34-.22-.03-.43-.06-.66-.06-.57,0-.88.22-.88.5,0,.3.29.49.84.49Z"/><path class="cls-2" d="m216.32,77.96c-.88,0-1.67.27-2.08.39-.23.06-.54.19-.78.28l-.3-1.14c.27-.02.62-.08.88-.14.58-.14,1.48-.37,2.41-.37,1.26,0,2.15.72,2.15,1.98,0,1.71-1.58,2.77-3.81,3.08l-.58-.99c1.98-.22,3.26-.88,3.26-2.13,0-.53-.42-.96-1.17-.96Zm1.62-2.52l-.16.98c-.94-.06-2.67-.22-3.59-.38l.16-.96c.93.2,2.74.35,3.59.36Z"/><path class="cls-2" d="m47.7,89.88h4.4c.2,0,.5,0,.79-.02-.02.24-.02.54-.02.78v3.92c0,.31.02,1.08.02,1.11h-1.1s0-.2,0-.43h-3.85c0,.22,0,.41,0,.43h-1.1s.02-.74.02-1.12v-3.91c0-.22,0-.55-.02-.78.33,0,.63.02.85.02Zm.24,4.33h3.86v-3.32h-3.86v3.32Z"/><path class="cls-2" d="m57.17,89.92c-.06.17-.14.38-.22.58h3.45c.21,0,.57,0,.83-.06v1.09c-.3-.03-.65-.03-.83-.03h-1.12c-.14,2.12-.98,3.55-2.42,4.46l-1.08-.73c.29-.11.57-.28.76-.44.84-.64,1.5-1.62,1.63-3.29h-1.69c-.32.58-.82,1.26-1.29,1.68l-1-.61c.57-.42,1.08-1.14,1.38-1.65.22-.37.37-.78.46-1.09.1-.26.15-.58.17-.82l1.24.25c-.1.2-.2.48-.26.65Z"/><path class="cls-2" d="m64.77,93.03l-.98.37c-.14-.43-.54-1.5-.73-1.85l.96-.34c.2.41.58,1.38.74,1.82Zm3.87-1.08c-.21.81-.54,1.64-1.09,2.34-.74.96-1.74,1.63-2.68,1.98l-.84-.86c.88-.23,1.99-.84,2.65-1.67.54-.68.93-1.74,1.02-2.74l1.12.36c-.1.26-.14.42-.19.58Zm-2.1.58l-.96.34c-.1-.39-.45-1.36-.65-1.78l.95-.31c.15.34.54,1.38.66,1.75Z"/><path class="cls-2" d="m72.35,90.16c0-.28-.02-.68-.08-.96h1.25c-.03.28-.07.63-.07.96v1.18c1.07.31,2.61.88,3.34,1.24l-.46,1.1c-.82-.43-2.02-.9-2.89-1.19v2.26c0,.23.04.79.07,1.12h-1.25c.05-.32.08-.8.08-1.12v-4.6Z"/><path class="cls-2" d="m79.18,90c.67-.06,1.99-.18,3.45-.3.82-.07,1.69-.12,2.26-.14v1.02c-.42,0-1.11,0-1.54.11-.97.26-1.7,1.29-1.7,2.24,0,1.32,1.23,1.79,2.59,1.86l-.38,1.1c-1.68-.11-3.26-1.01-3.26-2.74,0-1.15.65-2.06,1.19-2.47-.75.08-2.38.26-3.31.46l-.1-1.1c.32,0,.63-.02.78-.04Zm5.22,2.45l-.61.27c-.2-.44-.37-.75-.62-1.11l.59-.25c.2.29.49.78.64,1.09Zm.93-.39l-.6.29c-.22-.43-.4-.73-.66-1.08l.58-.27c.2.28.5.75.67,1.06Z"/><path class="cls-2" d="m87.95,93.39c.25-.1.5-.21.74-.31l.22.84c-.85.42-1.76.86-2.49,1.19l-.38-.96c.29-.1.64-.24,1.04-.39v-2.25h-.93v-.9h.93v-1.73h.89v1.73h.81v.9h-.81v1.89Zm4.27,1.84c.44,0,.52-.18.59-1,.2.14.57.3.83.34-.13,1.12-.41,1.5-1.34,1.5h-1.7c-1.08,0-1.39-.3-1.39-1.4v-2.05l-.43.18-.35-.85.78-.33v-2.1h.91v1.71l.66-.28v-2.21h.89v1.82l.63-.27.17-.11.17-.11.66.23-.03.16c0,1.52-.02,2.48-.06,2.81-.02.37-.17.56-.41.66-.23.1-.58.11-.83.11-.02-.25-.1-.6-.2-.8.14.02.31.02.38.02.1,0,.14-.03.18-.18.02-.13.02-.71.02-1.85l-.69.3v2.82h-.89v-2.44l-.66.29v2.47c0,.46.07.54.56.54h1.54Z"/><path class="cls-2" d="m99.98,92.76c.36.88.89,1.54,1.75,2.13-.22.17-.47.46-.58.72-.71-.54-1.21-1.1-1.58-1.78v1.3c0,.47-.1.73-.38.87-.28.16-.68.2-1.28.2-.03-.26-.19-.66-.33-.92.4.02.77.02.89.02.13,0,.18-.05.18-.17v-4.18h-1.89v-.72h-.78v1.34h.78v.87h-.78v1.37c.29-.09.58-.17.86-.26l.1.59c.41-.24.87-.52,1.33-.79l.29.78c-.6.43-1.27.89-1.84,1.23l-.44-.78c-.71.24-1.42.46-2.01.65l-.25-.9c.3-.07.66-.17,1.06-.27v-1.62h-.84v-.87h.84v-1.34h-.9v-.88h2.67v.74h1.8v-1.34h.92v1.34h1.26c-.22-.26-.63-.58-.98-.82l.53-.5c.37.22.84.58,1.06.83l-.48.48h.62v.86h-2.02v.29c.09.49.2.93.34,1.32.3-.38.64-.92.83-1.34l.83.44c-.34.49-.75,1.03-1.06,1.38l-.53-.29Zm-2.41.32c-.12-.38-.43-.99-.74-1.43l.74-.33c.31.43.66,1,.78,1.39l-.78.37Z"/><path class="cls-2" d="m105.53,89.92c.76-.04,1.56-.11,2.26-.23v.93c-.77.11-1.75.18-2.61.2-.14.3-.3.58-.46.82.21-.1.64-.16.9-.16.49,0,.89.21,1.06.62.42-.19.75-.33,1.08-.47.31-.14.59-.26.89-.42l.4.93c-.26.07-.68.23-.95.34-.36.14-.82.32-1.3.54,0,.45.02,1.04.03,1.41h-.96c.02-.24.03-.62.04-.98-.6.34-.92.66-.92,1.06,0,.44.38.56,1.16.56.68,0,1.57-.09,2.27-.22l-.03,1.03c-.53.07-1.51.14-2.26.14-1.26,0-2.18-.3-2.18-1.33s.96-1.66,1.87-2.14c-.12-.2-.34-.27-.56-.27-.45,0-.94.26-1.25.55-.24.24-.47.53-.74.88l-.86-.64c.84-.78,1.41-1.49,1.77-2.21h-.1c-.33,0-.91-.02-1.35-.05v-.94c.41.06,1,.1,1.41.1h.38c.09-.32.14-.63.16-.92l1.06.09c-.04.2-.1.46-.2.8Z"/><path class="cls-2" d="m116.7,95.26c.12,0,.15-.12.17-.95.18.14.56.3.81.37-.08,1.13-.3,1.44-.87,1.44h-.54c-.71,0-.86-.28-.86-1.12v-1.93h-.43c-.1,1.39-.39,2.5-1.71,3.17-.08-.19-.27-.46-.45-.63-.04.15-.12.27-.25.36-.23.15-.54.18-1.01.18-.02-.23-.12-.64-.23-.87.25,0,.49,0,.58,0s.12-.03.12-.13v-1.56h-.75c-.07.93-.21,1.9-.49,2.62-.16-.14-.54-.34-.74-.42.43-1.09.46-2.7.46-3.86v-2.89h2.34v6.12c0,.09,0,.17,0,.24.95-.51,1.11-1.33,1.19-2.34h-.74v-2.71h.79c-.12-.38-.35-.86-.59-1.23l.82-.34c.29.42.59.98.7,1.37l-.46.2h.85c.24-.46.5-1.09.64-1.58l.99.31c-.2.44-.42.9-.62,1.27h.73v2.71h-.82v1.93c0,.25.02.27.12.27h.26Zm-4.68-2.55v-.99h-.7v.22c0,.24,0,.5,0,.78h.71Zm-.7-2.81v.96h.7v-.96h-.7Zm4.85,1.29h-1.94v1.05h1.94v-1.05Z"/><path class="cls-2" d="m125.05,92.84v3.38h-.99v-.46h-4.43v.46h-.97v-3.39h.97v1.99h1.67v-2.41h-2.32v-2.9h.94v1.97h1.37v-2.65h.98v2.65h1.45v-1.97h1v2.9h-2.45v2.41h1.78v-1.99h.99Z"/><path class="cls-2" d="m128.71,90.25c-.03.86-.1,2.66-.1,3.65,0,.81.48,1.07,1.1,1.07,1.32,0,2.16-.76,2.73-1.63l.73.88c-.51.77-1.65,1.84-3.47,1.84-1.31,0-2.16-.58-2.16-1.94,0-1.07.08-3.17.08-3.86,0-.38-.03-.76-.1-1.08l1.29.02c-.05.34-.09.74-.1,1.06Z"/><path class="cls-2" d="m135.2,89.99c.66-.06,1.98-.18,3.45-.3.82-.06,1.7-.12,2.26-.14v1.02c-.42,0-1.11,0-1.54.1-.97.26-1.69,1.3-1.69,2.25,0,1.31,1.23,1.79,2.58,1.86l-.38,1.09c-1.67-.11-3.25-1.02-3.25-2.74,0-1.15.65-2.06,1.18-2.47-.75.08-2.38.26-3.31.46l-.1-1.1c.32,0,.63-.02.79-.04Z"/><path class="cls-2" d="m142.19,95.59c.3-.41.58-1.05.73-1.61l.85.33c-.17.58-.42,1.28-.72,1.75l-.86-.47Zm.08-2.59c.9-.05,2.25-.16,3.52-.26v.34c.31-.17.59-.37.86-.61-.3-.55-.54-1.25-.7-2.01h-3.59v-.82h3.45c-.03-.3-.06-.58-.07-.89h.94c0,.3.04.59.07.89h.97c-.2-.13-.43-.26-.63-.35l.54-.55c.38.16.88.43,1.12.66l-.22.25h.82v.82h-2.44c.1.46.25.9.42,1.26.23-.33.42-.69.56-1.07l.89.22c-.23.62-.57,1.18-.97,1.68.21.26.43.4.65.4.18,0,.26-.24.3-.9.2.18.51.36.74.44-.14,1.11-.43,1.37-1.1,1.37-.46,0-.88-.23-1.24-.63-.22.19-.46.38-.7.53-.14-.18-.46-.5-.66-.66v.42s0,0,0,0c.45.25.99.62,1.26.91l-.62.58c-.25-.31-.83-.74-1.31-1.01l.5-.47c-1.18.1-2.41.21-3.29.29l-.06-.81Zm3.22-2.21v1.74h-2.73v-1.74h2.73Zm-.9.62h-.99v.5h.99v-.5Zm2.13,3.89c.34,0,.4-.09.44-.65.19.14.58.27.83.32-.11.9-.38,1.13-1.18,1.13h-1.48c-1.09,0-1.35-.24-1.35-1.04v-.92h.94v.91c0,.22.08.25.51.25h1.3Zm1.96-1.33c.34.54.71,1.24.86,1.73l-.95.3c-.1-.46-.45-1.2-.79-1.76l.89-.27Z"/><path class="cls-2" d="m157.37,95.2v.82h-7.04v-.82h3.05v-.54h-2.06v-.74h2.06v-.49h-1.7c-.23.3-.49.58-.74.8-.18-.17-.57-.46-.79-.58.53-.4,1.03-1.01,1.32-1.63h-.37v-2.97h5.46v2.97h-4.78l.66.19c-.07.14-.14.29-.23.44h1.16v-.49h.98v.49h2.51v.78h-2.51v.49h2.14v.74h-2.14v.54h3.01Zm-5.33-5.02h3.53v-.42h-3.53v.42Zm0,1.1h3.53v-.43h-3.53v.43Z"/><path class="cls-2" d="m162.57,89.63c0,.08,0,.2,0,.33.66-.03,1.32-.1,2.02-.22v.92c-.54.06-1.26.14-2.04.18v.82c.81-.04,1.49-.1,2.14-.19v.94c-.73.08-1.35.14-2.12.16.02.3.03.63.06.95,1.01.29,1.77.82,2.24,1.21l-.58.9c-.43-.4-.98-.82-1.62-1.11,0,.11,0,.21,0,.3,0,.68-.52,1.21-1.57,1.21-1.28,0-1.95-.49-1.95-1.34s.74-1.38,1.98-1.38c.17,0,.34,0,.5.02-.02-.25-.02-.5-.03-.74h-.42c-.46,0-1.37-.04-1.9-.1v-.94c.51.1,1.5.15,1.92.15h.38c0-.26,0-.55,0-.82h-.3c-.5,0-1.43-.07-1.96-.14l-.02-.91c.58.1,1.49.18,1.98.18h.31v-.38c0-.15-.02-.4-.05-.55h1.08c-.02.16-.04.36-.05.57Zm-1.62,5.48c.42,0,.7-.12.7-.58,0-.09,0-.2,0-.34-.22-.03-.43-.06-.66-.06-.57,0-.88.22-.88.5,0,.3.29.49.84.49Z"/><path class="cls-2" d="m167.18,90c.67-.06,1.99-.18,3.45-.3.82-.07,1.69-.12,2.26-.14v1.02c-.42,0-1.11,0-1.54.11-.97.26-1.7,1.29-1.7,2.24,0,1.32,1.23,1.79,2.59,1.86l-.38,1.1c-1.68-.11-3.26-1.01-3.26-2.74,0-1.15.65-2.06,1.19-2.47-.75.08-2.38.26-3.31.46l-.1-1.1c.32,0,.63-.02.78-.04Zm5.22,2.45l-.61.27c-.2-.44-.37-.75-.62-1.11l.59-.25c.2.29.49.78.64,1.09Zm.93-.39l-.6.29c-.22-.43-.4-.73-.66-1.08l.58-.27c.2.28.5.75.67,1.06Z"/><path class="cls-2" d="m175.97,94.41c.31.54.87.76,1.69.79.96.04,2.85.02,3.95-.07-.11.22-.25.66-.3.93-.99.05-2.69.06-3.66.02-.95-.04-1.59-.27-2.07-.89-.32.31-.65.62-1.06.96l-.45-.94c.31-.2.67-.46.99-.74v-1.74h-.9v-.87h1.8v2.55Zm-.57-3.58c-.22-.39-.75-.94-1.2-1.33l.73-.54c.45.36,1,.89,1.26,1.27l-.78.6Zm1.43.5c-.07-.44-.33-1.13-.62-1.65l.75-.26c.29.47.56,1.09.66,1.54v-2.18h.84v2.77c0,1.38-.2,2.62-1.62,3.41-.13-.2-.42-.52-.62-.66.78-.42,1.13-.96,1.28-1.59-.36.25-.74.5-1.07.71l-.45-.81c.42-.2,1.02-.54,1.63-.87v-.7l-.79.29Zm2.99,3.46c-.73,0-.9-.25-.9-1.16v-4.86h.85v2.14c.24-.45.5-1.06.64-1.5l.95.3c-.34.55-.69,1.17-.97,1.56l-.62-.26v.82l.3-.28c.5.3,1.13.75,1.42,1.09l-.62.6c-.22-.28-.68-.66-1.1-.97v1.35c0,.32.03.36.21.36h.56c.14,0,.18-.12.2-.62.18.14.51.26.75.32-.09.82-.32,1.1-.88,1.1h-.78Z"/><path class="cls-2" d="m183.77,90.12c-.2.89-.49,2.57-.27,3.56.1-.25.26-.64.38-.93l.5.32c-.24.69-.45,1.5-.55,1.94-.02.13-.05.3-.05.39,0,.09.02.22.02.34l-.9.09c-.18-.48-.46-1.6-.46-2.59,0-1.31.16-2.54.26-3.2.03-.22.04-.49.05-.69l1.18.11c-.06.2-.15.49-.18.66Zm4.05-.24c0,.17,0,.58,0,1.03.48-.04.93-.09,1.28-.15v1.04c-.35.04-.79.07-1.27.1v.33c0,1.89-.14,3.05-1.73,4.06l-.93-.73c.31-.14.71-.39.94-.64.61-.64.74-1.35.74-2.7v-.28c-.27,0-.55,0-.82,0-.35,0-.84-.02-1.24-.05v-1.01c.39.06.78.08,1.22.08.26,0,.54,0,.82-.02,0-.44-.02-.86-.04-1.08-.02-.19-.06-.42-.09-.55h1.15c-.02.18-.02.37-.02.55Zm1.08.29l-.55.18c-.11-.34-.26-.81-.42-1.14l.54-.17c.15.32.34.82.42,1.12Zm.84-.26l-.54.18c-.12-.34-.28-.8-.44-1.12l.54-.18c.15.32.34.82.44,1.12Z"/><path class="cls-2" d="m194.33,90.05c0,.18,0,.38,0,.58.64,0,1.58-.04,2.24-.12l.03.95c-.67.06-1.61.1-2.26.11.02.48.05,1.12.09,1.71,1.02.3,1.88.86,2.43,1.37l-.62.95c-.46-.46-1.06-.93-1.77-1.26,0,.1,0,.2,0,.28,0,.71-.36,1.38-1.7,1.38-1.14,0-2.08-.38-2.08-1.46,0-.83.71-1.5,2.18-1.5.16,0,.32,0,.47.02-.02-.62-.06-1.3-.06-1.73,0-.49,0-.96,0-1.3-.02-.39-.04-.74-.09-.94h1.21c-.04.23-.06.62-.07.94Zm-1.64,4.99c.51,0,.7-.22.7-.76,0-.07,0-.17,0-.28-.21-.03-.43-.06-.66-.06-.62,0-1,.22-1,.56,0,.39.41.54.97.54Z"/><path class="cls-2" d="m202.15,91.96c-.88,0-1.67.27-2.08.39-.23.06-.54.19-.78.28l-.3-1.14c.27-.02.62-.08.88-.14.58-.14,1.48-.37,2.41-.37,1.26,0,2.15.72,2.15,1.98,0,1.71-1.58,2.77-3.81,3.08l-.58-.99c1.98-.22,3.26-.88,3.26-2.13,0-.53-.42-.96-1.17-.96Zm1.62-2.52l-.16.98c-.94-.06-2.67-.22-3.59-.38l.16-.96c.93.2,2.74.35,3.59.36Z"/><path class="cls-2" d="m209.48,91.37c.66-.38,1.35-.73,1.73-.94.3-.18.54-.31.74-.49l.55.93c-.24.14-.5.28-.79.43-.5.25-1.5.71-2.23,1.18-.66.44-1.11.9-1.11,1.46s.55.88,1.66.88c.82,0,1.9-.12,2.61-.3l-.02,1.15c-.68.12-1.53.2-2.57.2-1.59,0-2.8-.44-2.8-1.82,0-.88.56-1.54,1.33-2.11-.37-.68-.75-1.54-1.11-2.38l1-.41c.3.83.68,1.6,1,2.21Z"/><path class="cls-2" d="m219.01,89.77c0,.06,0,.15,0,.25.81,0,1.9-.02,2.32,0v.94c-.49-.02-1.23-.04-2.32-.04,0,.41,0,.85,0,1.2.19.3.29.68.29,1.1,0,1.04-.61,2.37-2.56,2.91l-.86-.85c.81-.17,1.51-.43,1.95-.91-.11.02-.23.04-.36.04-.62,0-1.37-.5-1.37-1.47,0-.9.73-1.5,1.6-1.5.11,0,.22,0,.32.02,0-.18,0-.36,0-.54-1.21.02-2.45.06-3.44.12l-.02-.97c.91,0,2.37-.03,3.45-.05,0-.1,0-.18-.02-.25-.02-.33-.06-.6-.08-.7h1.16c-.02.13-.05.56-.06.69Zm-1.34,3.74c.34,0,.63-.26.52-.96-.11-.18-.3-.28-.52-.28-.31,0-.62.22-.62.64,0,.37.3.6.62.6Z"/><path class="cls-2" d="m224.33,89.48c.42,0,2.13-.03,2.59-.07.33-.03.51-.06.61-.09l.52.71c-.18.12-.37.23-.56.37-.43.3-1.27,1.01-1.77,1.41.26-.06.5-.09.76-.09,1.36,0,2.39.85,2.39,2.01,0,1.26-.96,2.26-2.89,2.26-1.11,0-1.95-.51-1.95-1.31,0-.65.58-1.25,1.43-1.25.99,0,1.59.61,1.7,1.37.44-.23.66-.6.66-1.09,0-.72-.72-1.21-1.66-1.21-1.22,0-2.02.65-2.88,1.62l-.73-.75c.57-.46,1.54-1.27,2.01-1.66.45-.37,1.28-1.04,1.67-1.38-.41,0-1.51.06-1.94.08-.22.02-.47.04-.66.06l-.03-1.04c.22.03.5.04.73.04Zm1.44,5.6c.17,0,.32,0,.46-.02-.05-.52-.34-.86-.78-.86-.3,0-.5.18-.5.38,0,.3.33.5.81.5Z"/><path class="cls-2" d="m233.34,89.93c-.05.24-.11.54-.17.82.27-.02.5-.03.67-.03.85,0,1.45.38,1.45,1.53,0,.94-.11,2.24-.46,2.93-.26.56-.7.74-1.31.74-.3,0-.69-.06-.96-.11l-.17-1.06c.3.09.77.17.98.17.27,0,.47-.08.6-.34.22-.46.33-1.42.33-2.21,0-.64-.28-.73-.78-.73-.13,0-.33.02-.56.03-.3,1.22-.9,3.11-1.63,4.29l-1.04-.42c.78-1.05,1.33-2.66,1.62-3.76-.29.03-.54.06-.69.08-.23.04-.65.1-.9.14l-.1-1.09c.3.02.56,0,.86,0,.25,0,.62-.03,1.03-.07.11-.6.18-1.18.17-1.69l1.19.12c-.05.21-.1.46-.14.66Zm3.39.13l-.39.17c.48.74,1.08,2.08,1.3,2.79l-1.02.46c-.21-.89-.78-2.29-1.34-3l.72-.31c-.16-.3-.36-.69-.54-.94l.63-.26c.2.3.49.8.64,1.1Zm.95-.37l-.63.27c-.17-.33-.42-.8-.65-1.1l.64-.26c.21.3.5.81.64,1.09Z"/></g><g><path class="cls-2" d="m56.05,113.46c.31.54.87.76,1.69.79.96.04,2.85.02,3.95-.07-.11.22-.25.66-.3.93-.99.05-2.69.06-3.66.02-.95-.04-1.59-.27-2.07-.89-.32.31-.65.62-1.06.96l-.45-.94c.31-.2.67-.46.99-.74v-1.74h-.9v-.87h1.8v2.55Zm-.57-3.58c-.22-.39-.75-.94-1.2-1.33l.73-.54c.45.36,1,.89,1.26,1.27l-.78.6Zm1.43.5c-.07-.44-.33-1.13-.62-1.66l.75-.26c.29.47.56,1.09.66,1.54v-2.18h.84v2.77c0,1.38-.2,2.62-1.62,3.41-.13-.2-.42-.52-.62-.66.78-.42,1.13-.96,1.28-1.59-.36.25-.74.5-1.07.71l-.45-.81c.42-.2,1.02-.54,1.63-.87v-.7l-.79.29Zm2.99,3.46c-.73,0-.9-.25-.9-1.16v-4.86h.85v2.14c.24-.45.5-1.06.64-1.5l.95.3c-.34.55-.69,1.17-.97,1.56l-.62-.26v.82l.3-.28c.5.3,1.13.75,1.42,1.09l-.62.6c-.22-.28-.68-.66-1.1-.97v1.35c0,.32.03.36.21.36h.56c.14,0,.18-.12.2-.62.18.14.51.26.75.32-.09.82-.32,1.1-.88,1.1h-.78Z"/><path class="cls-2" d="m64.01,109.17c-.2.89-.49,2.57-.27,3.56.1-.25.26-.64.38-.93l.5.32c-.24.69-.45,1.5-.55,1.94-.02.13-.05.3-.05.39,0,.09.02.22.02.34l-.9.09c-.18-.48-.46-1.6-.46-2.59,0-1.31.16-2.54.26-3.2.03-.22.04-.49.05-.69l1.18.11c-.06.2-.15.49-.18.66Zm4.05-.24c0,.17,0,.58,0,1.03.48-.04.93-.09,1.28-.15v1.04c-.35.04-.79.07-1.27.1v.33c0,1.89-.14,3.05-1.73,4.06l-.93-.73c.31-.14.71-.39.94-.64.61-.64.74-1.35.74-2.7v-.28c-.27,0-.55,0-.82,0-.35,0-.84-.02-1.24-.05v-1.01c.39.06.78.08,1.22.08.26,0,.54,0,.82-.02,0-.44-.02-.86-.04-1.08-.02-.19-.06-.42-.09-.55h1.15c-.02.18-.02.37-.02.55Zm1.08.29l-.55.18c-.11-.34-.26-.81-.42-1.14l.54-.17c.15.32.34.82.42,1.12Zm.84-.26l-.54.18c-.12-.34-.28-.8-.44-1.12l.54-.18c.15.32.34.82.44,1.12Z"/><path class="cls-2" d="m72.63,113.42c.33.54.93.75,1.76.78.94.04,2.73.02,3.8-.06-.1.22-.25.69-.3.96-.96.05-2.57.06-3.52.02-.98-.04-1.64-.26-2.16-.89-.35.31-.7.62-1.14.96l-.46-.99c.34-.2.74-.46,1.1-.74v-1.69h-.92v-.87h1.85v2.51Zm-.55-3.59c-.25-.38-.82-.91-1.29-1.26l.7-.58c.48.34,1.06.83,1.34,1.21l-.75.63Zm3.05.02c-.03-.26-.06-.54-.09-.81h-1.39v-.9h2.2c.12,2.26.6,4.19,2.26,5.02-.22.16-.57.5-.74.73-.98-.58-1.57-1.5-1.92-2.62-.4,1.14-1.01,2.02-1.88,2.63-.14-.18-.51-.55-.74-.72,1.12-.66,1.73-1.85,1.98-3.38l.31.05Z"/><path class="cls-2" d="m82.92,109.01c-.39.58-.95,1.6-1.35,2.3.3-.17.62-.24.92-.24.6,0,.96.38.99,1.04.02.36,0,1,.03,1.34.03.31.26.43.52.43.7,0,1.12-.9,1.35-1.89l.86.7c-.42,1.37-1.16,2.28-2.38,2.28-.89,0-1.3-.53-1.34-1.11-.03-.42-.02-1.08-.05-1.41-.02-.28-.18-.45-.47-.45-.54,0-.99.56-1.28,1.21-.21.46-.49,1.36-.61,1.78l-1.13-.38c.59-1.6,2.23-4.86,2.65-5.62.1-.22.26-.48.39-.82l1.14.46c-.08.11-.17.25-.26.38Z"/><path class="cls-2" d="m89.94,109.05c-.02.09-.04.19-.06.3.45-.06.9-.15,1.34-.26v1c-.48.11-1.02.2-1.56.26-.07.34-.15.7-.24,1.03-.3,1.12-.82,2.75-1.27,3.7l-1.11-.38c.48-.81,1.09-2.48,1.38-3.6.06-.22.11-.45.17-.67-.18,0-.36.02-.53.02-.39,0-.69-.02-.97-.03l-.02-1c.41.05.67.06,1.01.06.23,0,.47,0,.72-.02.03-.18.06-.33.07-.46.03-.3.05-.62.02-.82l1.22.1c-.06.22-.14.58-.18.76Zm.97,4.33c0,.35.24.62,1.1.62.54,0,1.09-.06,1.66-.16l-.04,1.01c-.46.06-.99.12-1.63.12-1.34,0-2.07-.46-2.07-1.27,0-.38.07-.76.14-1.07l.96.09c-.06.23-.11.49-.11.66Zm1.22-2.75c.46,0,.94.02,1.41.07l-.02.96c-.4-.05-.89-.1-1.37-.1-.55,0-1.04.02-1.54.09v-.94c.45-.05,1.02-.08,1.54-.08Zm1.18-1.02l-.64.28c-.16-.33-.41-.81-.62-1.11l.63-.26c.2.3.49.8.63,1.1Zm.96-.37l-.63.27c-.17-.34-.42-.8-.65-1.1l.63-.26c.22.3.51.81.65,1.09Z"/><path class="cls-2" d="m96.42,108.93h4.4c.2,0,.5,0,.79-.02-.02.24-.02.54-.02.78v3.92c0,.31.02,1.08.02,1.11h-1.1s0-.2,0-.43h-3.85c0,.22,0,.41,0,.43h-1.1s.02-.74.02-1.12v-3.91c0-.22,0-.55-.02-.78.33,0,.63.02.85.02Zm.24,4.33h3.86v-3.32h-3.86v3.32Z"/><path class="cls-2" d="m105.89,108.97c-.06.17-.14.38-.22.58h3.45c.21,0,.57,0,.83-.06v1.1c-.3-.03-.65-.03-.83-.03h-1.12c-.14,2.12-.98,3.55-2.42,4.46l-1.08-.73c.29-.11.57-.28.76-.44.84-.64,1.5-1.62,1.63-3.29h-1.69c-.32.58-.82,1.26-1.3,1.68l-1-.61c.57-.42,1.08-1.14,1.38-1.65.22-.37.37-.78.46-1.09.1-.26.15-.58.17-.82l1.24.25c-.1.2-.2.48-.26.65Z"/><path class="cls-2" d="m113.49,112.08l-.98.37c-.14-.43-.54-1.5-.73-1.85l.96-.34c.2.41.58,1.38.74,1.82Zm3.87-1.08c-.21.81-.54,1.64-1.09,2.34-.74.96-1.74,1.63-2.68,1.98l-.84-.86c.88-.23,1.99-.84,2.65-1.67.54-.68.93-1.74,1.02-2.74l1.12.36c-.1.26-.14.42-.19.58Zm-2.1.58l-.96.34c-.1-.39-.45-1.36-.65-1.78l.95-.31c.15.34.54,1.38.66,1.75Z"/><path class="cls-2" d="m121.08,109.21c0-.28-.02-.68-.08-.96h1.25c-.03.28-.07.63-.07.96v1.18c1.07.31,2.61.88,3.34,1.24l-.46,1.1c-.82-.43-2.02-.9-2.89-1.19v2.26c0,.23.04.79.07,1.12h-1.25c.05-.32.08-.8.08-1.12v-4.6Z"/><path class="cls-2" d="m130.93,114.96l-.6-.95c.3-.03.53-.08.74-.13,1.02-.24,1.82-.97,1.82-2.14,0-1.1-.6-1.93-1.68-2.11-.11.68-.25,1.42-.48,2.17-.48,1.61-1.17,2.61-2.04,2.61s-1.62-.98-1.62-2.33c0-1.85,1.6-3.42,3.67-3.42s3.23,1.38,3.23,3.12-1.03,2.88-3.05,3.19Zm-2.2-1.79c.34,0,.65-.5.98-1.58.18-.59.34-1.27.42-1.93-1.32.27-2.03,1.44-2.03,2.32,0,.81.32,1.2.63,1.2Z"/><path class="cls-2" d="m141.86,109.19v3.99h-1v-.4h-1.81v2.49h-1.01v-2.49h-1.8v.44h-.96v-4.03h2.76v-1.38h1.01v1.38h2.81Zm-3.81,2.65v-1.72h-1.8v1.72h1.8Zm2.81,0v-1.72h-1.81v1.72h1.81Z"/><path class="cls-2" d="m144.72,109.17c-.1.54-.38,2.13-.38,2.93,0,.15,0,.36.03.52.12-.27.25-.55.36-.82l.5.39c-.22.66-.49,1.54-.58,1.96-.02.12-.04.3-.04.38,0,.09,0,.22.02.33l-.93.06c-.16-.55-.31-1.53-.31-2.61,0-1.2.25-2.55.34-3.17.02-.22.07-.53.08-.78l1.12.1c-.06.17-.17.57-.2.71Zm1.97,3.91c0,.35.3.57,1.12.57.71,0,1.3-.06,2.01-.21l.02,1.08c-.52.1-1.16.15-2.06.15-1.37,0-2.04-.49-2.04-1.31,0-.31.05-.63.14-1.04l.92.09c-.06.26-.1.46-.1.67Zm2.89-4.09v1.03c-.98.09-2.43.1-3.44,0v-1.02c.98.14,2.57.1,3.44,0Z"/><path class="cls-2" d="m158.04,112.8h-2.99v1.38c0,.54-.12.78-.5.93-.38.15-.92.17-1.62.17-.06-.29-.26-.7-.4-.96.51.02,1.13.02,1.3.02.17,0,.22-.04.22-.18v-1.36h-2.93v-.9h2.93v-.9h-1.64v-.88h4.29v.88h-1.65v.9h2.99v.9Zm-5.99-2.18h-.94v-2.02h2.93v-.78h1.01v.78h2.97v2.02h-.98v-1.16h-4.99v1.16Z"/><path class="cls-2" d="m166.42,108.64v1.98h-.99v-1.1h-4.81v1.1h-.94v-1.98h2.83v-.82h1.01v.82h2.89Zm-2.93,2.21h2.28v4.41h-.98v-.3h-3.52v.3h-.93v-4.41h2.21v-1.02h.94v1.02Zm-2.21.87v.75h1.28v-.75h-1.28Zm0,2.37h1.28v-.82h-1.28v.82Zm2.21-2.37v.75h1.3v-.75h-1.3Zm1.3,2.37v-.82h-1.3v.82h1.3Z"/><path class="cls-2" d="m171.47,107.99c0,.13-.02.29-.02.46.06,1.1.46,4.55,3.45,5.95-.3.22-.58.55-.74.81-1.81-.9-2.7-2.54-3.15-4.01-.43,1.44-1.27,2.98-2.96,4.01-.17-.25-.48-.54-.8-.76,3.19-1.77,3.08-5.4,3.13-6.45h1.09Z"/><path class="cls-2" d="m178.54,108.98c-.05.24-.11.54-.17.82.27-.02.5-.03.67-.03.85,0,1.45.38,1.45,1.53,0,.94-.11,2.24-.46,2.93-.26.56-.7.74-1.31.74-.3,0-.69-.06-.96-.11l-.17-1.06c.3.09.77.17.98.17.27,0,.47-.08.6-.34.22-.46.33-1.42.33-2.21,0-.64-.28-.73-.78-.73-.13,0-.33.02-.56.03-.3,1.22-.9,3.11-1.63,4.29l-1.04-.42c.78-1.05,1.33-2.66,1.62-3.76-.29.03-.54.06-.69.08-.23.04-.65.1-.9.14l-.1-1.09c.3.02.56,0,.86,0,.25,0,.62-.03,1.03-.07.11-.6.18-1.18.17-1.69l1.19.12c-.05.21-.1.46-.14.66Zm3.39.13l-.39.17c.48.74,1.08,2.08,1.3,2.79l-1.02.46c-.21-.89-.78-2.29-1.34-3l.72-.31c-.16-.3-.36-.69-.54-.94l.63-.26c.2.3.49.8.64,1.1Zm.95-.37l-.63.27c-.17-.33-.42-.8-.65-1.1l.64-.26c.21.3.5.81.64,1.09Z"/><path class="cls-2" d="m184.98,111.5c-.3-.26-.9-.6-1.37-.8l.51-.72c.47.17,1.1.47,1.4.72l-.54.8Zm-1.18,3.12c.38-.62.9-1.63,1.32-2.57l.74.57c-.36.86-.79,1.78-1.21,2.56l-.86-.56Zm6.36-4.32c.25.44.62.84,1.04,1.07-.2.16-.47.46-.61.67-.04-.03-.09-.06-.13-.1v3.27h-.94v-.27h-2.33v.3h-.9v-3.31c-.07.05-.14.1-.22.15-.12-.18-.39-.46-.58-.61.59-.32.9-.75,1.06-1.19h-.79v-.74h.94c0-.12,0-.24,0-.35v-.03h-.82v-.47l-.5.7c-.28-.27-.89-.64-1.37-.84l.53-.72c.44.18,1.02.47,1.34.73v-.14h.82v-.61h.86v.61h.61v.74h-.61v.04c0,.11,0,.22-.02.34h.65v.74h-.77c.26.19.77.61.9.73l-.62.64c-.13-.18-.36-.45-.57-.68-.19.34-.46.66-.82.94h2.28c-.13-.18-.35-.42-.53-.55.54-.28.83-.67.98-1.07h-.63v-.74h.78c0-.11,0-.22,0-.32v-.07h-.78v-.74h.78v-.59h.86v.59h.82v.74h-.82v.08c0,.1,0,.21,0,.31h.93v.74h-.82Zm-2.97,2.36v.42h2.33v-.42h-2.33Zm2.33,1.54v-.45h-2.33v.45h2.33Zm.91-2.28c-.3-.25-.57-.6-.78-.98-.21.36-.5.7-.94.98h1.72Z"/><path class="cls-2" d="m195.56,109.01c-.39.58-.95,1.6-1.35,2.3.3-.17.62-.24.92-.24.6,0,.96.38.99,1.04.02.36,0,1,.03,1.34.03.31.26.43.52.43.7,0,1.12-.9,1.35-1.89l.86.7c-.42,1.37-1.16,2.28-2.38,2.28-.89,0-1.3-.53-1.34-1.11-.03-.42-.02-1.08-.05-1.41-.02-.28-.18-.45-.47-.45-.54,0-.99.56-1.28,1.21-.21.46-.49,1.36-.61,1.78l-1.13-.38c.59-1.6,2.23-4.86,2.65-5.62.1-.22.26-.48.39-.82l1.14.46c-.08.11-.17.25-.26.38Z"/><path class="cls-2" d="m200.54,109.05c.67-.06,1.99-.18,3.45-.3.82-.07,1.69-.12,2.26-.14v1.02c-.42,0-1.11,0-1.54.11-.97.26-1.7,1.29-1.7,2.24,0,1.32,1.23,1.79,2.59,1.86l-.38,1.1c-1.68-.11-3.26-1.01-3.26-2.74,0-1.15.65-2.06,1.19-2.47-.75.08-2.38.26-3.31.46l-.1-1.1c.32,0,.63-.02.78-.04Zm5.22,2.45l-.61.27c-.2-.44-.37-.75-.62-1.11l.59-.25c.2.29.49.78.64,1.09Zm.93-.39l-.6.29c-.22-.43-.4-.73-.66-1.08l.58-.27c.2.28.5.75.67,1.06Z"/><path class="cls-2" d="m209.19,109.84c0,.52,0,1.12.05,1.69.11,1.15.35,1.94.86,1.94.38,0,.7-.94.85-1.58l.8.98c-.53,1.39-1.03,1.88-1.67,1.88-.88,0-1.64-.79-1.86-2.93-.08-.74-.09-1.67-.09-2.16,0-.22-.02-.57-.06-.82l1.23.02c-.06.29-.1.75-.1.98Zm5.55,3.35l-1.05.41c-.13-1.29-.55-3.23-1.42-4.22l1.02-.33c.76.92,1.37,2.92,1.46,4.14Z"/><path class="cls-2" d="m217.69,108.53c.42,0,2.13-.03,2.59-.07.33-.03.51-.06.61-.09l.52.71c-.18.12-.38.23-.56.37-.43.3-1.27,1.01-1.78,1.41.26-.06.5-.09.76-.09,1.36,0,2.39.85,2.39,2.02,0,1.26-.96,2.26-2.89,2.26-1.11,0-1.95-.51-1.95-1.31,0-.65.58-1.25,1.43-1.25.99,0,1.59.61,1.7,1.37.44-.23.66-.6.66-1.09,0-.72-.72-1.21-1.66-1.21-1.22,0-2.02.65-2.88,1.62l-.73-.75c.57-.46,1.54-1.27,2.01-1.66.45-.37,1.28-1.04,1.67-1.38-.41,0-1.51.06-1.93.08-.22.02-.47.04-.66.06l-.03-1.04c.22.03.5.04.73.04Zm1.44,5.6c.17,0,.32,0,.46-.02-.05-.52-.34-.86-.78-.86-.3,0-.5.18-.5.38,0,.3.33.5.81.5Z"/><path class="cls-2" d="m225.7,113.95c0-.42.3-.71.7-.71s.7.29.7.71-.3.7-.7.7-.7-.29-.7-.7Zm.08-4.16l-.04-1.19h1.33l-.04,1.19-.22,2.73h-.82l-.22-2.73Z"/><path class="cls-2" d="m232.12,110.21c0-.48-.38-.75-1.01-.75-.5,0-.89.22-1.28.63l-.66-.61c.5-.59,1.21-.98,2.06-.98,1.16,0,2.01.54,2.01,1.6,0,1.18-1.74,1.31-1.62,2.42h-1.03c-.17-1.26,1.53-1.54,1.53-2.32Zm-1.71,3.74c0-.42.3-.71.7-.71s.7.29.7.71-.3.7-.7.7-.7-.29-.7-.7Z"/><path class="cls-2" d="m30.02,125.5c-.3-.26-.9-.6-1.37-.8l.51-.72c.47.17,1.1.47,1.4.72l-.54.8Zm-1.18,3.12c.38-.62.9-1.63,1.32-2.57l.74.57c-.36.86-.79,1.78-1.21,2.56l-.86-.56Zm6.36-4.32c.25.44.62.84,1.04,1.07-.2.16-.47.46-.61.67-.04-.03-.09-.06-.13-.1v3.27h-.94v-.27h-2.33v.3h-.9v-3.31c-.07.05-.14.1-.22.15-.12-.18-.39-.46-.58-.61.59-.32.9-.75,1.06-1.19h-.79v-.74h.94c0-.12,0-.24,0-.35v-.03h-.82v-.47l-.5.7c-.28-.27-.89-.64-1.37-.84l.53-.72c.44.18,1.02.47,1.34.73v-.14h.82v-.61h.86v.61h.61v.74h-.61v.04c0,.11,0,.22-.02.34h.65v.74h-.77c.26.19.77.61.9.73l-.62.64c-.13-.18-.36-.45-.57-.68-.19.34-.46.66-.82.94h2.28c-.13-.18-.35-.42-.53-.55.54-.28.83-.67.98-1.07h-.63v-.74h.78c0-.11,0-.22,0-.32v-.07h-.78v-.74h.78v-.59h.86v.59h.82v.74h-.82v.08c0,.1,0,.21,0,.31h.93v.74h-.82Zm-2.97,2.36v.42h2.33v-.42h-2.33Zm2.33,1.54v-.45h-2.33v.45h2.33Zm.91-2.28c-.3-.25-.57-.6-.78-.98-.21.36-.5.7-.93.98h1.72Z"/><path class="cls-2" d="m40.76,123.01c-.39.58-.95,1.6-1.35,2.3.3-.17.62-.24.92-.24.6,0,.96.38.99,1.04.02.36,0,1,.03,1.34.03.31.26.43.52.43.7,0,1.12-.9,1.35-1.89l.86.7c-.42,1.37-1.16,2.28-2.38,2.28-.89,0-1.3-.53-1.34-1.11-.03-.42-.02-1.08-.05-1.41-.02-.28-.18-.45-.47-.45-.54,0-.99.56-1.28,1.21-.21.46-.49,1.36-.61,1.78l-1.13-.38c.59-1.6,2.23-4.86,2.65-5.62.1-.22.26-.48.39-.82l1.14.46c-.08.11-.17.25-.26.38Z"/><path class="cls-2" d="m45.74,123.05c.67-.06,1.99-.18,3.45-.3.82-.07,1.69-.12,2.26-.14v1.02c-.42,0-1.11,0-1.54.11-.97.26-1.7,1.29-1.7,2.24,0,1.32,1.23,1.79,2.59,1.86l-.38,1.1c-1.68-.11-3.26-1.01-3.26-2.74,0-1.15.65-2.06,1.19-2.47-.75.08-2.38.26-3.31.46l-.1-1.1c.32,0,.63-.02.78-.04Zm5.22,2.45l-.61.27c-.2-.44-.37-.75-.62-1.11l.59-.25c.2.29.49.78.64,1.09Zm.93-.39l-.6.29c-.22-.43-.4-.73-.66-1.08l.58-.27c.2.28.5.75.67,1.06Z"/><path class="cls-2" d="m54.39,123.84c0,.52,0,1.12.05,1.7.11,1.15.35,1.94.86,1.94.38,0,.7-.94.85-1.58l.8.98c-.53,1.39-1.03,1.88-1.67,1.88-.88,0-1.64-.79-1.86-2.93-.08-.74-.09-1.67-.09-2.16,0-.22-.02-.57-.06-.82l1.23.02c-.06.29-.1.75-.1.98Zm5.55,3.35l-1.05.41c-.13-1.29-.55-3.23-1.42-4.22l1.02-.33c.76.92,1.37,2.92,1.46,4.14Z"/><path class="cls-2" d="m62.89,122.53c.42,0,2.13-.03,2.59-.07.33-.03.51-.06.61-.09l.52.71c-.18.12-.38.23-.56.37-.43.3-1.27,1.01-1.78,1.41.26-.06.5-.09.76-.09,1.36,0,2.39.85,2.39,2.01,0,1.26-.96,2.26-2.89,2.26-1.11,0-1.95-.51-1.95-1.31,0-.65.58-1.25,1.43-1.25.99,0,1.59.61,1.7,1.37.44-.23.66-.6.66-1.09,0-.72-.72-1.21-1.66-1.21-1.22,0-2.02.65-2.88,1.62l-.73-.75c.57-.46,1.54-1.27,2.01-1.66.45-.37,1.28-1.04,1.67-1.38-.41,0-1.51.06-1.93.08-.22.02-.47.04-.66.06l-.03-1.04c.22.03.5.04.73.04Zm1.44,5.6c.17,0,.32,0,.46-.02-.05-.52-.34-.86-.78-.86-.3,0-.5.18-.5.38,0,.3.33.5.81.5Z"/><path class="cls-2" d="m75.87,126.8h-2.99v1.38c0,.54-.12.78-.5.93-.38.15-.92.17-1.62.17-.06-.29-.26-.7-.4-.96.51.02,1.13.02,1.3.02.17,0,.22-.04.22-.18v-1.36h-2.93v-.9h2.93v-.9h-1.64v-.88h4.29v.88h-1.65v.9h2.99v.9Zm-5.99-2.18h-.94v-2.02h2.93v-.78h1.01v.78h2.97v2.02h-.98v-1.16h-4.99v1.16Z"/><path class="cls-2" d="m84.1,122.64v1.97h-.99v-1.1h-4.81v1.1h-.94v-1.97h2.83v-.82h1.01v.82h2.89Zm-2.93,2.21h2.28v4.41h-.98v-.3h-3.52v.3h-.93v-4.41h2.21v-1.02h.94v1.02Zm-2.21.87v.75h1.28v-.75h-1.28Zm0,2.37h1.28v-.82h-1.28v.82Zm2.21-2.37v.75h1.3v-.75h-1.3Zm1.3,2.37v-.82h-1.3v.82h1.3Z"/><path class="cls-2" d="m89.15,121.99c0,.13-.02.29-.02.46.06,1.1.46,4.55,3.45,5.95-.3.22-.58.55-.74.81-1.81-.9-2.7-2.54-3.15-4.01-.43,1.44-1.27,2.98-2.96,4.01-.17-.25-.48-.54-.8-.76,3.19-1.77,3.08-5.4,3.13-6.45h1.09Z"/><path class="cls-2" d="m96.41,122.97c.76-.04,1.56-.11,2.26-.23v.93c-.77.11-1.75.18-2.61.2-.14.3-.3.58-.46.82.21-.1.64-.16.9-.16.49,0,.89.21,1.06.62.42-.19.75-.33,1.08-.47.31-.14.59-.26.89-.42l.4.93c-.26.07-.68.23-.95.34-.36.14-.82.32-1.3.54,0,.45.02,1.04.03,1.41h-.96c.02-.24.03-.62.04-.98-.6.34-.92.66-.92,1.06,0,.44.38.56,1.16.56.68,0,1.57-.09,2.27-.22l-.03,1.03c-.53.07-1.51.14-2.26.14-1.26,0-2.18-.3-2.18-1.33s.96-1.66,1.87-2.14c-.12-.2-.34-.27-.56-.27-.45,0-.94.26-1.25.55-.24.24-.47.53-.74.88l-.86-.64c.84-.78,1.41-1.49,1.77-2.21h-.1c-.33,0-.91-.02-1.35-.05v-.94c.41.06,1,.1,1.41.1h.38c.09-.32.14-.63.16-.92l1.06.09c-.04.2-.1.46-.2.8Z"/><path class="cls-2" d="m107.24,128.31c.27,0,.32-.14.36-1.06.2.15.62.31.87.38-.1,1.26-.35,1.59-1.14,1.59h-1.06c-.95,0-1.18-.29-1.18-1.18v-1.28h-.97c-.17,1.27-.64,2.11-2.61,2.56-.09-.26-.34-.65-.53-.85,1.64-.3,1.98-.84,2.12-1.71h-.98v-4.69h5.23v4.69h-1.3v1.27c0,.26.05.29.35.29h.83Zm-4.19-4.93h3.34v-.5h-3.34v.5Zm0,1.26h3.34v-.5h-3.34v.5Zm0,1.27h3.34v-.5h-3.34v.5Z"/><path class="cls-2" d="m110.14,123.96c.62-.19,2.25-.77,3.41-.77,1.45,0,2.58.83,2.58,2.31,0,1.81-1.73,2.97-4.54,3.12l-.46-1.06c2.17-.06,3.86-.68,3.86-2.07,0-.75-.52-1.33-1.48-1.33-1.18,0-3.07.8-3.9,1.16l-.46-1.12c.3-.05.7-.16.98-.24Z"/><path class="cls-2" d="m118.78,123.01c-.2.89-.48,2.57-.26,3.56.1-.25.25-.63.38-.93l.5.32c-.23.69-.45,1.5-.54,1.95-.03.12-.05.3-.05.39,0,.08,0,.22.02.33l-.89.09c-.18-.48-.46-1.6-.46-2.59,0-1.31.16-2.54.26-3.19.04-.22.05-.5.06-.7l1.18.12c-.07.19-.15.48-.19.65Zm4.13-.24v1.02c.45-.03.87-.08,1.2-.14v1.04c-.33.04-.74.07-1.19.1v.34c0,1.89-.14,3.05-1.74,4.06l-.92-.73c.3-.14.7-.39.93-.64.62-.64.74-1.35.74-2.7v-.29c-.3,0-.6.02-.9.02-.34,0-.84-.02-1.23-.04v-1.02c.39.06.78.09,1.21.09.29,0,.6,0,.9-.02,0-.45-.02-.86-.03-1.08-.02-.2-.06-.42-.09-.55h1.16c-.02.18-.03.37-.04.54Z"/><path class="cls-2" d="m131.94,125.89v3.38h-.99v-.46h-4.43v.46h-.97v-3.39h.97v1.99h1.67v-2.41h-2.32v-2.9h.94v1.97h1.37v-2.65h.98v2.65h1.46v-1.97h1v2.9h-2.45v2.41h1.78v-1.99h.99Z"/><path class="cls-2" d="m135.59,123.3c-.03.86-.1,2.66-.1,3.65,0,.81.48,1.07,1.1,1.07,1.32,0,2.16-.76,2.73-1.63l.73.88c-.51.77-1.65,1.84-3.47,1.84-1.31,0-2.16-.58-2.16-1.94,0-1.07.08-3.17.08-3.86,0-.38-.03-.76-.1-1.08l1.29.02c-.05.34-.09.74-.1,1.06Z"/><path class="cls-2" d="m142.09,123.04c.66-.06,1.98-.18,3.45-.3.82-.06,1.7-.12,2.26-.14v1.02c-.42,0-1.11,0-1.54.1-.97.26-1.69,1.3-1.69,2.25,0,1.31,1.23,1.79,2.58,1.86l-.38,1.09c-1.67-.11-3.25-1.02-3.25-2.74,0-1.15.65-2.06,1.18-2.47-.75.08-2.38.26-3.31.46l-.1-1.1c.32,0,.63-.02.79-.04Z"/><path class="cls-2" d="m150.21,123.93c-.16.15-.31.3-.47.42-.18-.17-.56-.47-.78-.62.67-.44,1.3-1.17,1.66-1.91l.93.27c-.09.19-.19.38-.31.56h4.8v.84h-.75v1.02h1.04v.85h-1.04v1.02h.93v.85h-6.95v-.85h.95v-1.02h-1.07v-.85h1.07v-.58Zm-1.15,4.99c.35-.34.71-.95.9-1.54l.92.22c-.18.61-.52,1.26-.91,1.68l-.9-.37Zm1.99-4.41h.58v-1.02h-.58v1.02Zm0,1.86h.58v-1.02h-.58v1.02Zm1.22,1.19c.1.49.19,1.12.2,1.5l-.93.14c0-.38-.06-1.04-.15-1.53l.88-.1Zm.74-3.05v-1.02h-.59v1.02h.59Zm-.59.85v1.02h.59v-1.02h-.59Zm1.45,2.17c.19.47.39,1.1.46,1.49l-.95.18c-.05-.38-.23-1.03-.41-1.52l.9-.15Zm.54-4.05h-.61v1.02h.61v-1.02Zm0,1.87h-.61v1.02h.61v-1.02Zm1.06,2c.36.49.81,1.16,1.01,1.6l-.98.33c-.17-.42-.59-1.13-.94-1.64l.91-.29Z"/><path class="cls-2" d="m164.42,127.05h-.83v1.39h-.97v-.33h-1.44v.25c0,.47-.11.66-.42.8-.3.12-.74.14-1.42.14-.05-.22-.19-.55-.31-.75.38.02.86.02.98.02.15,0,.2-.06.2-.2v-.25h-2.43v-.69h2.43v-.38h-3.17v-.73h3.17v-.34h-2.37v-.64h2.37v-.35h-2.17v-1.58h2.17v-.33h-2.98v-.75h2.98v-.52h.97v.52h3.05v.75h-3.05v.33h2.27v1.58h-2.27v.35h2.41v.98h.83v.73Zm-4.21-2.66v-.38h-1.26v.38h1.26Zm.97-.38v.38h1.3v-.38h-1.3Zm0,2.32h1.44v-.34h-1.44v.34Zm1.44.73h-1.44v.38h1.44v-.38Z"/><path class="cls-2" d="m166.88,123.17c-.1.54-.38,2.13-.38,2.93,0,.15,0,.36.03.52.12-.27.25-.55.36-.82l.5.39c-.22.66-.49,1.54-.58,1.96-.02.12-.04.3-.04.38,0,.09,0,.22.02.33l-.93.06c-.16-.55-.31-1.53-.31-2.61,0-1.2.25-2.55.34-3.17.02-.22.07-.53.08-.78l1.12.1c-.06.17-.17.57-.2.71Zm1.98,3.91c0,.35.3.57,1.12.57.71,0,1.3-.06,2.01-.21l.02,1.08c-.52.1-1.16.15-2.06.15-1.37,0-2.04-.49-2.04-1.31,0-.31.05-.63.14-1.04l.92.09c-.06.26-.1.46-.1.67Zm2.89-4.09v1.03c-.98.09-2.43.1-3.44,0v-1.02c.98.14,2.57.1,3.44,0Z"/><path class="cls-2" d="m173.07,128.64c.3-.42.58-1.05.73-1.61l.85.33c-.17.58-.42,1.28-.72,1.75l-.86-.47Zm.08-2.59c.9-.05,2.25-.16,3.52-.26v.34c.31-.17.59-.37.86-.61-.3-.55-.54-1.25-.7-2.01h-3.59v-.82h3.45c-.03-.3-.06-.58-.07-.89h.94c0,.3.04.59.07.89h.97c-.2-.13-.43-.26-.63-.35l.54-.55c.38.16.88.43,1.12.66l-.22.25h.82v.82h-2.44c.1.46.25.9.42,1.26.23-.33.42-.69.56-1.07l.89.22c-.23.62-.57,1.18-.97,1.68.21.26.43.4.65.4.18,0,.26-.24.3-.9.2.18.51.36.74.44-.14,1.11-.43,1.37-1.1,1.37-.46,0-.88-.23-1.24-.63-.22.19-.46.38-.7.53-.14-.18-.46-.5-.66-.66v.42s0,0,0,0c.45.25.99.62,1.26.91l-.62.58c-.25-.31-.83-.74-1.31-1.01l.5-.47c-1.18.1-2.41.21-3.29.29l-.06-.81Zm3.22-2.21v1.74h-2.73v-1.74h2.73Zm-.9.62h-.99v.5h.99v-.5Zm2.13,3.89c.34,0,.4-.09.44-.65.19.14.58.27.83.32-.11.9-.38,1.13-1.18,1.13h-1.48c-1.09,0-1.35-.24-1.35-1.04v-.92h.94v.91c0,.22.08.25.51.25h1.3Zm1.96-1.33c.34.54.71,1.24.86,1.73l-.95.3c-.1-.46-.45-1.2-.79-1.76l.89-.27Z"/><path class="cls-2" d="m188.26,128.25v.82h-7.04v-.82h3.05v-.54h-2.06v-.74h2.06v-.49h-1.7c-.23.3-.49.58-.74.8-.18-.17-.57-.46-.79-.58.53-.4,1.03-1.01,1.32-1.63h-.37v-2.97h5.46v2.97h-4.78l.66.19c-.07.14-.14.29-.23.44h1.16v-.49h.98v.49h2.51v.78h-2.51v.49h2.14v.74h-2.14v.54h3.01Zm-5.33-5.02h3.53v-.42h-3.53v.42Zm0,1.1h3.53v-.43h-3.53v.43Z"/><path class="cls-2" d="m190.88,123.17c-.1.54-.38,2.13-.38,2.93,0,.15,0,.36.03.52.12-.27.25-.55.36-.82l.5.39c-.22.66-.49,1.54-.58,1.96-.02.12-.04.3-.04.38,0,.09,0,.22.02.33l-.93.06c-.16-.55-.31-1.53-.31-2.61,0-1.2.25-2.55.34-3.17.02-.22.07-.53.08-.78l1.12.1c-.06.17-.17.57-.2.71Zm1.98,3.91c0,.35.3.57,1.12.57.71,0,1.3-.06,2.01-.21l.02,1.08c-.52.1-1.16.15-2.06.15-1.37,0-2.04-.49-2.04-1.31,0-.31.05-.63.14-1.04l.92.09c-.06.26-.1.46-.1.67Zm2.89-4.09v1.03c-.98.09-2.43.1-3.44,0v-1.02c.98.14,2.57.1,3.44,0Z"/><path class="cls-2" d="m198.86,127.48c.34.53.94.75,1.77.79.94.04,2.78.02,3.85-.07-.11.22-.25.66-.29.91-.97.05-2.62.06-3.57.03-.98-.04-1.65-.27-2.16-.9-.34.32-.67.62-1.09.97l-.45-.94c.31-.19.7-.45,1.02-.72v-1.25h-.9v-.88h1.81v2.05Zm-.53-2.45c-.26-.29-.82-.7-1.26-.97l.62-.59c.45.24,1.02.62,1.3.91l-.65.65Zm.23-1.58c-.23-.3-.77-.74-1.21-1.01l.63-.57c.44.26.99.66,1.25.95l-.67.62Zm1.91,4.39h-.9v-4.57h.9v3.28h.81v-4.71h.93v4.71h.86v-3.28h.93v4.56h-.93v-.41h-2.59v.42Z"/><path class="cls-2" d="m207.29,123.82c.38-.62,1.08-1.29,1.98-1.29,1.11,0,1.98,1.09,1.98,2.85,0,2.26-1.38,3.34-3.5,3.73l-.61-.93c1.77-.27,3.03-.86,3.03-2.79,0-1.23-.42-1.92-1.09-1.92-.94,0-1.77,1.42-1.81,2.47-.02.22,0,.47.04.85l-.98.06c-.05-.31-.1-.8-.1-1.33,0-.74.11-1.74.22-2.56.04-.3.06-.62.06-.84l1.1.05c-.11.39-.27,1.22-.32,1.66Z"/><path class="cls-2" d="m215.76,125.44c-.04.11-.08.22-.13.32h3.93v3.5h-.99v-.23h-2.79v.23h-.95v-2.12c-.36.48-.78.9-1.22,1.22-.15-.19-.5-.55-.71-.71.79-.5,1.44-1.29,1.83-2.21h-1.54v-.74h3.03v-.34h-2.27v-.69h2.27v-.34h-2.67v-.74h1.34c-.1-.18-.22-.38-.34-.54l.84-.26c.21.23.42.55.51.78l-.04.02h1.76l-.06-.02c.15-.23.34-.56.42-.78l1.04.25c-.16.21-.31.39-.45.55h1.36v.74h-2.73v.34h2.32v.69h-2.32v.34h3.05v.74h-4.49Zm.02.99v.29h2.79v-.29h-2.79Zm2.79.82h-2.79v.29h2.79v-.29Zm0,1.11v-.3h-2.79v.3h2.79Z"/><path class="cls-2" d="m222.78,123.01c-.2.89-.48,2.57-.26,3.56.1-.25.25-.63.38-.93l.5.32c-.23.69-.45,1.5-.54,1.95-.03.12-.05.3-.05.39,0,.08,0,.22.02.33l-.89.09c-.18-.48-.46-1.6-.46-2.59,0-1.31.16-2.54.26-3.19.04-.22.05-.5.06-.7l1.18.12c-.07.19-.15.48-.19.65Zm4.13-.24v1.02c.45-.03.87-.08,1.2-.14v1.04c-.33.04-.74.07-1.19.1v.34c0,1.89-.14,3.05-1.74,4.06l-.92-.73c.3-.14.7-.39.93-.64.62-.64.74-1.35.74-2.7v-.29c-.3,0-.6.02-.9.02-.34,0-.84-.02-1.23-.04v-1.02c.39.06.78.09,1.21.09.29,0,.6,0,.9-.02,0-.45-.02-.86-.03-1.08-.02-.2-.06-.42-.09-.55h1.16c-.02.18-.03.37-.04.54Z"/><path class="cls-2" d="m231.21,122.53c.42,0,2.13-.03,2.59-.07.33-.03.51-.06.61-.09l.52.71c-.18.12-.38.23-.56.37-.43.3-1.27,1.01-1.77,1.41.26-.06.5-.09.76-.09,1.36,0,2.39.85,2.39,2.01,0,1.26-.96,2.26-2.89,2.26-1.11,0-1.95-.51-1.95-1.31,0-.65.58-1.25,1.43-1.25.99,0,1.59.61,1.7,1.37.44-.23.66-.6.66-1.09,0-.72-.72-1.21-1.66-1.21-1.22,0-2.02.65-2.88,1.62l-.73-.75c.57-.46,1.54-1.27,2.01-1.66.45-.37,1.28-1.04,1.67-1.38-.41,0-1.51.06-1.94.08-.22.02-.47.04-.66.06l-.03-1.04c.22.03.5.04.73.04Zm1.44,5.6c.17,0,.32,0,.46-.02-.05-.52-.34-.86-.78-.86-.3,0-.5.18-.5.38,0,.3.33.5.81.5Z"/><path class="cls-2" d="m241.09,128.96l-.6-.95c.3-.03.53-.08.74-.13,1.02-.24,1.82-.97,1.82-2.14,0-1.1-.6-1.93-1.68-2.11-.11.68-.25,1.42-.48,2.17-.48,1.61-1.17,2.61-2.04,2.61s-1.62-.98-1.62-2.33c0-1.85,1.6-3.42,3.67-3.42s3.23,1.38,3.23,3.12-1.03,2.88-3.05,3.19Zm-2.2-1.79c.34,0,.65-.5.98-1.58.18-.59.34-1.27.42-1.94-1.32.27-2.03,1.44-2.03,2.32,0,.81.32,1.2.63,1.2Z"/><path class="cls-2" d="m248.28,122.93c-.06.24-.11.54-.17.82.26-.02.5-.03.67-.03.85,0,1.45.38,1.45,1.53,0,.94-.11,2.24-.46,2.93-.26.56-.71.74-1.31.74-.31,0-.69-.06-.96-.11l-.18-1.05c.31.09.77.17.98.17.26,0,.47-.08.6-.34.22-.45.32-1.42.32-2.21,0-.64-.27-.73-.78-.73-.13,0-.33.02-.55.03-.3,1.22-.9,3.11-1.63,4.29l-1.04-.42c.78-1.05,1.33-2.66,1.62-3.76-.29.03-.54.06-.69.08-.22.04-.65.1-.89.14l-.1-1.09c.29.02.56,0,.86,0,.25,0,.62-.03,1.03-.06.11-.61.18-1.19.17-1.7l1.19.12c-.05.21-.1.46-.14.66Zm4.3,3.06l-1.02.47c-.21-.89-.78-2.33-1.34-3.04l.95-.41c.5.69,1.17,2.21,1.41,2.97Z"/><path class="cls-2" d="m257.64,124.21c0-.48-.38-.75-1.01-.75-.5,0-.89.22-1.28.63l-.66-.61c.5-.59,1.21-.98,2.06-.98,1.16,0,2.01.54,2.01,1.6,0,1.18-1.74,1.31-1.62,2.42h-1.03c-.17-1.26,1.53-1.54,1.53-2.32Zm-1.71,3.74c0-.42.3-.71.7-.71s.7.29.7.71-.3.7-.7.7-.7-.29-.7-.7Z"/></g><g><path class="cls-2" d="m238.73,95.33c0-.38.27-.66.62-.66s.62.27.62.66-.27.64-.62.64-.62-.26-.62-.64Z"/><path class="cls-2" d="m241.12,95.33c0-.38.27-.66.62-.66s.62.27.62.66-.27.64-.62.64-.62-.26-.62-.64Z"/><path class="cls-2" d="m243.5,95.33c0-.38.27-.66.62-.66s.62.27.62.66-.27.64-.62.64-.62-.26-.62-.64Z"/></g></svg>