<svg xmlns="http://www.w3.org/2000/svg" width="85.83" height="22.844" viewBox="0 0 85.83 22.844">
  <g id="_レイヤー_1-2" transform="translate(0.728 -0.804) rotate(2)">
    <g id="グループ_662" data-name="グループ 662" transform="translate(-0.013)">
      <path id="パス_801" data-name="パス 801" d="M9.589,9.685a6.16,6.16,0,0,0-1.675-.34,4.832,4.832,0,0,0-1.491.143,2.757,2.757,0,0,0-1.334.729,1.078,1.078,0,0,0-.313,1.049.83.83,0,0,0,.449.558,2.584,2.584,0,0,0,.837.238,7.071,7.071,0,0,0,1.1.041c.4-.014.8-.014,1.191-.014a7.62,7.62,0,0,1,3.677.769,3.754,3.754,0,0,1,1.743,2.4,4.673,4.673,0,0,1,.1,2.138,4.44,4.44,0,0,1-.9,1.9,6.667,6.667,0,0,1-1.852,1.566,10.841,10.841,0,0,1-2.751,1.117,12.311,12.311,0,0,1-6.536.007L2.944,18.44a8.184,8.184,0,0,0,2.3.572A5.711,5.711,0,0,0,7.3,18.849a2.737,2.737,0,0,0,1.532-.865,1.251,1.251,0,0,0,.286-1.1,1.185,1.185,0,0,0-.293-.531,1.416,1.416,0,0,0-.579-.32,4.11,4.11,0,0,0-.94-.15c-.374-.02-.831-.041-1.355-.048-.626,0-1.239-.014-1.852-.048a6.044,6.044,0,0,1-1.7-.334,3.73,3.73,0,0,1-1.369-.871,3.634,3.634,0,0,1-.878-1.668,4.449,4.449,0,0,1,.7-3.881A5.826,5.826,0,0,1,2.488,7.554a8.691,8.691,0,0,1,2.4-1.014A13.486,13.486,0,0,1,7.662,6.11a13.986,13.986,0,0,1,2.928.15L9.582,9.678Z" transform="translate(0.013 -1.944)" fill="#fff"/>
      <path id="パス_802" data-name="パス 802" d="M28.079,7.634l6.686-.9L34,1.01l4.63-.62L40.62,15.232l-4.63.62-.824-6.121-6.686.9.824,6.121-4.63.626L22.68,2.535l4.63-.62.769,5.726Z" transform="translate(-7.229 -0.124)" fill="#fff"/>
      <path id="パス_803" data-name="パス 803" d="M64.072,12.432,57.4,12.364l-1.1,2.594-4.984-.048L58.312,0l5.1.054L70.1,15.1l-4.984-.054-1.049-2.614ZM62.86,9.464l-2.043-5L58.666,9.423l4.194.041Z" transform="translate(-16.37)" fill="#fff"/>
      <path id="パス_804" data-name="パス 804" d="M95.988,17.837,90.235,17l-3.581-6.339-.831,5.7L81.2,15.685,83.358.87l7.19,1.049a8.274,8.274,0,0,1,2.54.742,5.188,5.188,0,0,1,1.682,1.26,4.249,4.249,0,0,1,.871,1.614,4.427,4.427,0,0,1,.109,1.825,3.934,3.934,0,0,1-1.375,2.6,5.216,5.216,0,0,1-3.1,1l4.7,6.883ZM87.014,8.162l.871.129a3.928,3.928,0,0,0,2.165-.163,1.531,1.531,0,0,0,.926-1.253,1.542,1.542,0,0,0-.531-1.464,3.865,3.865,0,0,0-2.029-.776l-.871-.129-.531,3.656Z" transform="translate(-25.906 -0.278)" fill="#fff"/>
      <path id="パス_805" data-name="パス 805" d="M117.995,11.074l-5.372-1.416-.64,2.417,5.072,1.341-.844,3.186-5.072-1.341-.66,2.5,5.372,1.423-.844,3.186-9.886-2.614L108.946,5.28l9.886,2.614-.844,3.186Z" transform="translate(-33.54 -1.685)" fill="#fff"/>
    </g>
  </g>
</svg>
